STARTFONT 2.1
COMMENT
COMMENT Converted from OpenType font "TimesI.otf" by "otf2bdf 3.0".
COMMENT
FONT -FreeType-Times New Roman-Medium-I-Normal--22-160-100-100-P-113-ISO10646-1
SIZE 16 100 100
FONTBOUNDINGBOX 36 30 -11 -7
STARTPROPERTIES 19
FOUNDRY "FreeType"
FAMILY_NAME "Times New Roman"
WEIGHT_NAME "Medium"
SLANT "I"
SETWIDTH_NAME "Normal"
ADD_STYLE_NAME ""
PIXEL_SIZE 22
POINT_SIZE 160
RESOLUTION_X 100
RESOLUTION_Y 100
SPACING "P"
AVERAGE_WIDTH 113
CHARSET_REGISTRY "ISO10646"
CHARSET_ENCODING "1"
FONT_ASCENT 19
FONT_DESCENT 4
COPYRIGHT "© 2006 The Monotype Corporation. All Rights Reserved."
_OTF_FONTFILE "TimesI.otf"
_OTF_PSNAME "TimesNewRomanPS-ItalicMT"
ENDPROPERTIES
CHARS 943
STARTCHAR 0020
ENCODING 32
SWIDTH 270 0
DWIDTH 6 0
BBX 0 0 0 0
BITMAP
ENDCHAR
STARTCHAR 0021
ENCODING 33
SWIDTH 315 0
DWIDTH 7 0
BBX 5 15 2 0
BITMAP
18
18
18
10
10
30
20
20
40
40
40
00
00
C0
C0
ENDCHAR
STARTCHAR 0022
ENCODING 34
SWIDTH 405 0
DWIDTH 9 0
BBX 7 6 3 9
BITMAP
66
66
44
CC
8C
88
ENDCHAR
STARTCHAR 0023
ENCODING 35
SWIDTH 495 0
DWIDTH 11 0
BBX 10 15 2 0
BITMAP
1080
1080
1080
1100
1100
FFC0
2100
2100
2200
FFC0
4200
4200
4200
4400
8400
ENDCHAR
STARTCHAR 0024
ENCODING 36
SWIDTH 495 0
DWIDTH 11 0
BBX 10 17 1 -1
BITMAP
0100
0700
1AC0
3240
3280
3400
1C00
1C00
0E00
0B00
0B80
0980
9180
9100
D100
7600
2800
ENDCHAR
STARTCHAR 0025
ENCODING 37
SWIDTH 855 0
DWIDTH 19 0
BBX 16 16 2 -1
BITMAP
3801
4402
C404
8408
8C10
8C20
9840
7080
010E
0231
0431
0823
1063
2062
4024
8018
ENDCHAR
STARTCHAR 0026
ENCODING 38
SWIDTH 765 0
DWIDTH 17 0
BBX 15 15 1 0
BITMAP
00F0
0110
0310
0310
0320
03C0
0700
1B1E
6188
6190
C190
C0E0
E0C0
E0E0
7F3E
ENDCHAR
STARTCHAR 0027
ENCODING 39
SWIDTH 225 0
DWIDTH 5 0
BBX 3 6 3 9
BITMAP
60
E0
C0
C0
80
80
ENDCHAR
STARTCHAR 0028
ENCODING 40
SWIDTH 315 0
DWIDTH 7 0
BBX 7 20 2 -5
BITMAP
02
04
08
10
30
20
60
C0
C0
C0
80
80
80
80
80
80
80
80
40
40
ENDCHAR
STARTCHAR 0029
ENCODING 41
SWIDTH 315 0
DWIDTH 7 0
BBX 8 19 -2 -5
BITMAP
04
02
02
02
03
03
03
03
03
03
06
06
06
0C
08
18
10
20
C0
ENDCHAR
STARTCHAR 002A
ENCODING 42
SWIDTH 495 0
DWIDTH 11 0
BBX 8 8 3 6
BITMAP
18
18
EB
36
3C
EB
D9
18
ENDCHAR
STARTCHAR 002B
ENCODING 43
SWIDTH 675 0
DWIDTH 15 0
BBX 12 11 2 2
BITMAP
0400
0400
0400
0400
0400
FFF0
0400
0400
0400
0400
0400
ENDCHAR
STARTCHAR 002C
ENCODING 44
SWIDTH 270 0
DWIDTH 6 0
BBX 3 5 0 -3
BITMAP
60
60
60
40
80
ENDCHAR
STARTCHAR 002D
ENCODING 45
SWIDTH 315 0
DWIDTH 7 0
BBX 6 2 1 4
BITMAP
FC
F8
ENDCHAR
STARTCHAR 002E
ENCODING 46
SWIDTH 270 0
DWIDTH 6 0
BBX 2 2 1 0
BITMAP
C0
C0
ENDCHAR
STARTCHAR 002F
ENCODING 47
SWIDTH 270 0
DWIDTH 6 0
BBX 8 15 0 0
BITMAP
01
02
02
04
04
08
08
10
10
20
20
40
40
80
80
ENDCHAR
STARTCHAR 0030
ENCODING 48
SWIDTH 495 0
DWIDTH 11 0
BBX 10 15 1 0
BITMAP
0700
0880
10C0
30C0
30C0
60C0
60C0
60C0
C180
C180
C180
C100
4300
4200
3C00
ENDCHAR
STARTCHAR 0031
ENCODING 49
SWIDTH 495 0
DWIDTH 11 0
BBX 7 15 2 0
BITMAP
06
0E
06
04
0C
0C
08
18
18
18
10
30
30
20
F0
ENDCHAR
STARTCHAR 0032
ENCODING 50
SWIDTH 495 0
DWIDTH 11 0
BBX 10 15 0 0
BITMAP
0780
0FC0
10C0
00C0
0040
00C0
0080
0100
0100
0200
0400
0800
1080
3F00
FF00
ENDCHAR
STARTCHAR 0033
ENCODING 51
SWIDTH 495 0
DWIDTH 11 0
BBX 9 15 1 0
BITMAP
0F00
1380
0180
0180
0100
0200
1C00
0E00
0300
0300
0300
0300
0200
C400
F800
ENDCHAR
STARTCHAR 0034
ENCODING 52
SWIDTH 495 0
DWIDTH 11 0
BBX 10 15 1 0
BITMAP
0040
0080
0180
0380
0580
0900
1300
2300
4200
C200
FF80
0600
0400
0C00
0C00
ENDCHAR
STARTCHAR 0035
ENCODING 53
SWIDTH 495 0
DWIDTH 11 0
BBX 10 15 1 0
BITMAP
07C0
0F80
0800
1000
1C00
3E00
0700
0300
0300
0100
0100
0200
0200
C400
F800
ENDCHAR
STARTCHAR 0036
ENCODING 54
SWIDTH 495 0
DWIDTH 11 0
BBX 10 15 1 0
BITMAP
00C0
0300
0600
0C00
1800
3600
7B00
6180
6180
4180
C180
C180
4300
4300
3C00
ENDCHAR
STARTCHAR 0037
ENCODING 55
SWIDTH 495 0
DWIDTH 11 0
BBX 9 15 3 0
BITMAP
7F80
7F00
8300
0200
0400
0400
0800
0800
1000
1000
2000
6000
4000
8000
8000
ENDCHAR
STARTCHAR 0038
ENCODING 56
SWIDTH 495 0
DWIDTH 11 0
BBX 10 15 1 0
BITMAP
0F00
1080
1040
10C0
1880
1980
0E00
1600
2700
4300
C100
8100
8100
C300
7C00
ENDCHAR
STARTCHAR 0039
ENCODING 57
SWIDTH 495 0
DWIDTH 11 0
BBX 9 15 2 0
BITMAP
1E00
3100
6180
6180
C180
C180
C180
C300
6300
3E00
0600
0C00
1800
3000
C000
ENDCHAR
STARTCHAR 003A
ENCODING 58
SWIDTH 315 0
DWIDTH 7 0
BBX 5 10 1 0
BITMAP
18
18
00
00
00
00
00
00
40
C0
ENDCHAR
STARTCHAR 003B
ENCODING 59
SWIDTH 315 0
DWIDTH 7 0
BBX 6 13 0 -3
BITMAP
0C
0C
00
00
00
00
00
00
20
70
20
20
C0
ENDCHAR
STARTCHAR 003C
ENCODING 60
SWIDTH 675 0
DWIDTH 15 0
BBX 11 10 2 3
BITMAP
0060
0380
0C00
3000
C000
6000
1C00
0300
00C0
0020
ENDCHAR
STARTCHAR 003D
ENCODING 61
SWIDTH 675 0
DWIDTH 15 0
BBX 12 5 2 5
BITMAP
FFF0
0000
0000
0000
FFF0
ENDCHAR
STARTCHAR 003E
ENCODING 62
SWIDTH 675 0
DWIDTH 15 0
BBX 11 10 2 3
BITMAP
C000
3800
0600
0180
0060
00C0
0700
1800
6000
8000
ENDCHAR
STARTCHAR 003F
ENCODING 63
SWIDTH 495 0
DWIDTH 11 0
BBX 8 15 2 0
BITMAP
3E
43
63
03
03
06
0C
10
20
20
40
00
00
C0
C0
ENDCHAR
STARTCHAR 0040
ENCODING 64
SWIDTH 900 0
DWIDTH 20 0
BBX 19 20 1 -5
BITMAP
03FC00
0C0300
100080
200080
200040
40FC40
410C40
830840
860840
861840
841880
8C3080
8C7100
47B220
421C40
400040
200080
100100
0C0600
03F800
ENDCHAR
STARTCHAR 0041
ENCODING 65
SWIDTH 630 0
DWIDTH 14 0
BBX 11 15 0 0
BITMAP
0020
0020
0060
00E0
00E0
0160
0260
0460
0460
0FE0
1040
2040
20C0
40C0
E1E0
ENDCHAR
STARTCHAR 0042
ENCODING 66
SWIDTH 630 0
DWIDTH 14 0
BBX 13 15 0 0
BITMAP
1FC0
0630
0618
0418
0C18
0C30
0C60
1FC0
1860
1870
1070
3070
3060
30C0
FF80
ENDCHAR
STARTCHAR 0043
ENCODING 67
SWIDTH 675 0
DWIDTH 15 0
BBX 14 15 1 0
BITMAP
01F4
060C
0C04
1804
3004
7000
6000
6000
6000
E000
6000
6000
7010
3020
1FC0
ENDCHAR
STARTCHAR 0044
ENCODING 68
SWIDTH 720 0
DWIDTH 16 0
BBX 16 15 0 0
BITMAP
1FE0
0618
060C
0C06
0C06
0C07
0C07
1807
1806
1806
300E
300C
3018
3070
FF80
ENDCHAR
STARTCHAR 0045
ENCODING 69
SWIDTH 630 0
DWIDTH 14 0
BBX 13 15 1 0
BITMAP
3FF8
0C18
0C10
0800
1800
1880
1880
3F80
3080
3000
2000
6020
6020
6040
FFC0
ENDCHAR
STARTCHAR 0046
ENCODING 70
SWIDTH 630 0
DWIDTH 14 0
BBX 15 15 0 0
BITMAP
1FFE
0604
0604
0404
0C00
0C20
0C60
1FC0
1840
1840
1000
3000
3000
3000
F000
ENDCHAR
STARTCHAR 0047
ENCODING 71
SWIDTH 720 0
DWIDTH 16 0
BBX 14 15 2 0
BITMAP
03F4
0C0C
1808
3008
6008
E000
C000
C000
C078
C030
C030
C060
E060
6060
3FC0
ENDCHAR
STARTCHAR 0048
ENCODING 72
SWIDTH 720 0
DWIDTH 16 0
BBX 18 15 0 0
BITMAP
1F8FC0
060300
060200
040600
0C0600
0C0600
0C0C00
1FFC00
180C00
180800
301800
301800
301800
303000
F07800
ENDCHAR
STARTCHAR 0049
ENCODING 73
SWIDTH 315 0
DWIDTH 7 0
BBX 9 15 0 0
BITMAP
1F80
0600
0600
0400
0C00
0C00
0C00
1800
1800
1800
1000
3000
3000
3000
F800
ENDCHAR
STARTCHAR 004A
ENCODING 74
SWIDTH 450 0
DWIDTH 10 0
BBX 13 15 -1 0
BITMAP
01F8
0060
0060
00C0
00C0
00C0
00C0
0180
0180
0180
0300
0300
E300
C600
7C00
ENDCHAR
STARTCHAR 004B
ENCODING 75
SWIDTH 675 0
DWIDTH 15 0
BBX 16 15 0 0
BITMAP
1F9F
060C
0618
0420
0C40
0D80
0E00
1B00
1B00
1980
31C0
30C0
3060
3070
F0F8
ENDCHAR
STARTCHAR 004C
ENCODING 76
SWIDTH 540 0
DWIDTH 12 0
BBX 11 15 0 0
BITMAP
1F80
0600
0600
0C00
0C00
0C00
0C00
1800
1800
1800
3000
3020
3020
3060
FFC0
ENDCHAR
STARTCHAR 004D
ENCODING 77
SWIDTH 855 0
DWIDTH 19 0
BBX 21 15 0 0
BITMAP
1E0078
0600C0
0601C0
0A01C0
0B0380
0B0580
130980
130980
131300
132300
232300
234600
218600
210600
E11F00
ENDCHAR
STARTCHAR 004E
ENCODING 78
SWIDTH 675 0
DWIDTH 15 0
BBX 17 15 0 0
BITMAP
1C0F80
060200
060400
0B0400
0B0400
0B0400
118800
118800
10C800
10D000
20D000
207000
207000
202000
E02000
ENDCHAR
STARTCHAR 004F
ENCODING 79
SWIDTH 720 0
DWIDTH 16 0
BBX 15 15 1 0
BITMAP
01F0
060C
0C0C
1806
3006
3006
6006
600E
E00C
E00C
E018
E038
6030
6060
3F80
ENDCHAR
STARTCHAR 0050
ENCODING 80
SWIDTH 630 0
DWIDTH 14 0
BBX 14 15 0 0
BITMAP
1FE0
0618
060C
060C
0C0C
0C18
0C38
1FE0
1800
1800
1800
3000
3000
3000
F800
ENDCHAR
STARTCHAR 0051
ENCODING 81
SWIDTH 720 0
DWIDTH 16 0
BBX 15 20 1 -5
BITMAP
01F0
060C
0C0C
1806
3006
3006
6006
600E
E00C
E00C
E018
E038
6030
6060
3980
0E00
1000
2008
FFF0
0380
ENDCHAR
STARTCHAR 0052
ENCODING 82
SWIDTH 630 0
DWIDTH 14 0
BBX 13 15 0 0
BITMAP
1FC0
0630
0638
0418
0C18
0C30
0C60
1FC0
1980
1980
10C0
30C0
30C0
3060
F070
ENDCHAR
STARTCHAR 0053
ENCODING 83
SWIDTH 495 0
DWIDTH 11 0
BBX 12 15 0 0
BITMAP
0790
0C70
1820
1820
1800
0C00
0E00
0700
0380
01C0
40C0
40C0
40C0
4180
BF00
ENDCHAR
STARTCHAR 0054
ENCODING 84
SWIDTH 540 0
DWIDTH 12 0
BBX 12 15 2 0
BITMAP
7FF0
6610
8610
8600
0600
0C00
0C00
0C00
1800
1800
1800
1800
3000
3000
7800
ENDCHAR
STARTCHAR 0055
ENCODING 85
SWIDTH 720 0
DWIDTH 16 0
BBX 16 15 2 0
BITMAP
7E1F
1804
1004
3008
3008
3008
6008
6010
6010
4010
C020
C020
4040
60C0
3F80
ENDCHAR
STARTCHAR 0056
ENCODING 86
SWIDTH 630 0
DWIDTH 14 0
BBX 13 15 3 0
BITMAP
FC78
3020
3040
2080
6080
6100
6200
6200
6400
6800
7000
7000
6000
4000
8000
ENDCHAR
STARTCHAR 0057
ENCODING 87
SWIDTH 855 0
DWIDTH 19 0
BBX 18 15 3 0
BITMAP
FBF3C0
60C100
60C200
61C200
62C400
628800
658800
699000
69A000
51A000
D1C000
E18000
C18000
C10000
810000
ENDCHAR
STARTCHAR 0058
ENCODING 88
SWIDTH 630 0
DWIDTH 14 0
BBX 17 15 -1 0
BITMAP
0FCF80
030200
030400
010800
019000
01A000
01C000
00C000
01C000
02C000
044000
086000
106000
206000
F07800
ENDCHAR
STARTCHAR 0059
ENCODING 89
SWIDTH 540 0
DWIDTH 12 0
BBX 12 15 3 0
BITMAP
F9F0
6040
6080
3100
3100
3200
1C00
1800
1800
1800
3000
3000
3000
6000
F000
ENDCHAR
STARTCHAR 005A
ENCODING 90
SWIDTH 540 0
DWIDTH 12 0
BBX 14 15 0 0
BITMAP
1FFC
1018
2030
2060
00E0
01C0
0180
0300
0600
0C00
1C00
1810
3020
6020
FFE0
ENDCHAR
STARTCHAR 005B
ENCODING 91
SWIDTH 405 0
DWIDTH 9 0
BBX 10 19 0 -4
BITMAP
03C0
0600
0600
0400
0400
0C00
0C00
0800
1800
1800
1000
3000
3000
2000
2000
6000
6000
4000
F000
ENDCHAR
STARTCHAR 005C
ENCODING 92
SWIDTH 270 0
DWIDTH 6 0
BBX 3 15 2 0
BITMAP
80
80
80
40
40
40
40
40
40
40
20
20
20
20
20
ENDCHAR
STARTCHAR 005D
ENCODING 93
SWIDTH 405 0
DWIDTH 9 0
BBX 10 19 -2 -4
BITMAP
07C0
00C0
0080
0180
0180
0100
0100
0300
0300
0200
0600
0600
0400
0400
0C00
0C00
0800
1800
F800
ENDCHAR
STARTCHAR 005E
ENCODING 94
SWIDTH 405 0
DWIDTH 9 0
BBX 9 8 1 7
BITMAP
0800
1C00
1400
2200
2200
4100
8100
8080
ENDCHAR
STARTCHAR 005F
ENCODING 95
SWIDTH 495 0
DWIDTH 11 0
BBX 11 1 0 -4
BITMAP
FFE0
ENDCHAR
STARTCHAR 0060
ENCODING 96
SWIDTH 315 0
DWIDTH 7 0
BBX 3 3 4 11
BITMAP
E0
60
20
ENDCHAR
STARTCHAR 0061
ENCODING 97
SWIDTH 495 0
DWIDTH 11 0
BBX 9 10 1 0
BITMAP
0E80
1180
2180
4100
C100
C300
8300
8E00
CE80
F700
ENDCHAR
STARTCHAR 0062
ENCODING 98
SWIDTH 495 0
DWIDTH 11 0
BBX 9 15 1 0
BITMAP
3800
1800
1800
1000
3000
3700
2980
7080
6080
6080
4180
C100
C300
8200
FC00
ENDCHAR
STARTCHAR 0063
ENCODING 99
SWIDTH 450 0
DWIDTH 10 0
BBX 8 10 1 0
BITMAP
0F
11
61
40
C0
C0
80
80
C2
7C
ENDCHAR
STARTCHAR 0064
ENCODING 100
SWIDTH 495 0
DWIDTH 11 0
BBX 12 15 0 0
BITMAP
00F0
0020
0020
0060
0060
0740
08C0
10C0
2080
6180
6180
4380
C500
6B40
7380
ENDCHAR
STARTCHAR 0065
ENCODING 101
SWIDTH 450 0
DWIDTH 10 0
BBX 9 10 1 0
BITMAP
0F00
1180
2100
4300
C600
F800
C000
C100
C200
7C00
ENDCHAR
STARTCHAR 0066
ENCODING 102
SWIDTH 270 0
DWIDTH 6 0
BBX 14 20 -4 -5
BITMAP
003C
0044
0040
00C0
0080
07E0
0180
0100
0100
0300
0300
0200
0600
0600
0600
0400
0C00
0800
D000
6000
ENDCHAR
STARTCHAR 0067
ENCODING 103
SWIDTH 495 0
DWIDTH 11 0
BBX 12 15 -1 -5
BITMAP
0780
0870
1860
3060
30C0
10C0
0F00
0800
1000
1F00
23C0
4040
C040
6080
1F00
ENDCHAR
STARTCHAR 0068
ENCODING 104
SWIDTH 495 0
DWIDTH 11 0
BBX 9 15 1 0
BITMAP
3800
1800
1800
1000
3000
3300
3780
2980
7180
7100
6300
C300
C200
C680
8700
ENDCHAR
STARTCHAR 0069
ENCODING 105
SWIDTH 270 0
DWIDTH 6 0
BBX 5 14 1 0
BITMAP
18
18
00
00
30
70
20
20
60
60
40
C0
D0
E0
ENDCHAR
STARTCHAR 006A
ENCODING 106
SWIDTH 270 0
DWIDTH 6 0
BBX 10 19 -4 -5
BITMAP
00C0
00C0
0000
0000
0080
0180
0180
0100
0300
0300
0200
0600
0600
0600
0400
0C00
0800
D800
6000
ENDCHAR
STARTCHAR 006B
ENCODING 107
SWIDTH 450 0
DWIDTH 10 0
BBX 11 15 0 0
BITMAP
0C00
0C00
0C00
0800
1800
1BE0
1180
3200
3400
2C00
3400
6600
6600
4680
C300
ENDCHAR
STARTCHAR 006C
ENCODING 108
SWIDTH 270 0
DWIDTH 6 0
BBX 5 15 1 0
BITMAP
38
18
18
10
10
30
30
20
60
60
40
40
C0
E0
C0
ENDCHAR
STARTCHAR 006D
ENCODING 109
SWIDTH 720 0
DWIDTH 16 0
BBX 14 10 1 0
BITMAP
3318
672C
294C
7388
6398
6318
C210
C610
8634
8438
ENDCHAR
STARTCHAR 006E
ENCODING 110
SWIDTH 495 0
DWIDTH 11 0
BBX 9 10 1 0
BITMAP
3300
7580
2980
7100
6100
6300
C300
C200
8680
8700
ENDCHAR
STARTCHAR 006F
ENCODING 111
SWIDTH 495 0
DWIDTH 11 0
BBX 9 10 1 0
BITMAP
0E00
3180
6180
6180
C180
C180
8180
8300
C600
7C00
ENDCHAR
STARTCHAR 0070
ENCODING 112
SWIDTH 495 0
DWIDTH 11 0
BBX 12 15 -2 -5
BITMAP
0660
0FB0
0610
0C10
0C30
0830
1820
1860
10C0
1980
3600
3000
2000
6000
F800
ENDCHAR
STARTCHAR 0071
ENCODING 113
SWIDTH 495 0
DWIDTH 11 0
BBX 10 15 0 -5
BITMAP
0740
0940
10C0
20C0
6080
6180
4180
C700
6700
7B00
0300
0200
0600
0600
1F00
ENDCHAR
STARTCHAR 0072
ENCODING 114
SWIDTH 405 0
DWIDTH 9 0
BBX 8 10 1 0
BITMAP
33
77
2B
70
60
60
C0
C0
80
80
ENDCHAR
STARTCHAR 0073
ENCODING 115
SWIDTH 405 0
DWIDTH 9 0
BBX 8 10 0 0
BITMAP
1D
33
31
30
18
1C
0C
86
84
FC
ENDCHAR
STARTCHAR 0074
ENCODING 116
SWIDTH 270 0
DWIDTH 6 0
BBX 6 13 1 0
BITMAP
08
10
10
7C
30
20
60
60
40
40
C0
D0
E0
ENDCHAR
STARTCHAR 0075
ENCODING 117
SWIDTH 495 0
DWIDTH 11 0
BBX 9 10 1 0
BITMAP
2080
F180
2180
6180
6300
4300
C700
CA00
D280
E700
ENDCHAR
STARTCHAR 0076
ENCODING 118
SWIDTH 450 0
DWIDTH 10 0
BBX 9 10 1 0
BITMAP
6100
E180
2080
2100
3100
3200
3400
3800
3000
2000
ENDCHAR
STARTCHAR 0077
ENCODING 119
SWIDTH 675 0
DWIDTH 15 0
BBX 14 10 1 0
BITMAP
6008
E10C
6184
2388
2590
2990
29A0
31C0
30C0
2080
ENDCHAR
STARTCHAR 0078
ENCODING 120
SWIDTH 450 0
DWIDTH 10 0
BBX 11 10 -1 0
BITMAP
1860
0CE0
0D00
0600
0600
0600
0E00
1200
1380
E380
ENDCHAR
STARTCHAR 0079
ENCODING 121
SWIDTH 450 0
DWIDTH 10 0
BBX 12 15 -2 -5
BITMAP
0C20
1C30
0410
0420
0420
0640
0680
0680
0700
0600
0400
0800
1000
E000
C000
ENDCHAR
STARTCHAR 007A
ENCODING 122
SWIDTH 405 0
DWIDTH 9 0
BBX 9 10 0 0
BITMAP
3F80
3F00
4200
0400
0800
1000
2000
4000
8600
FE00
ENDCHAR
STARTCHAR 007B
ENCODING 123
SWIDTH 405 0
DWIDTH 9 0
BBX 8 20 2 -5
BITMAP
03
04
08
18
18
18
18
10
20
C0
40
40
60
60
C0
C0
80
80
80
60
ENDCHAR
STARTCHAR 007C
ENCODING 124
SWIDTH 270 0
DWIDTH 6 0
BBX 1 19 2 -5
BITMAP
80
80
80
80
80
80
80
80
80
80
80
80
80
80
80
80
80
80
80
ENDCHAR
STARTCHAR 007D
ENCODING 125
SWIDTH 405 0
DWIDTH 9 0
BBX 9 20 -2 -5
BITMAP
0100
0080
0080
0180
0180
0300
0300
0200
0100
0080
0100
0600
0400
0C00
0C00
0C00
0800
1800
2000
C000
ENDCHAR
STARTCHAR 007E
ENCODING 126
SWIDTH 540 0
DWIDTH 12 0
BBX 12 3 0 4
BITMAP
7C10
8720
80C0
ENDCHAR
STARTCHAR 00A0
ENCODING 160
SWIDTH 270 0
DWIDTH 6 0
BBX 0 0 0 0
BITMAP
ENDCHAR
STARTCHAR 00A1
ENCODING 161
SWIDTH 405 0
DWIDTH 9 0
BBX 5 16 2 -5
BITMAP
10
18
10
00
00
20
20
20
20
40
40
40
C0
C0
80
80
ENDCHAR
STARTCHAR 00A2
ENCODING 162
SWIDTH 495 0
DWIDTH 11 0
BBX 9 18 1 -4
BITMAP
0100
0200
0200
0200
0700
1C80
3580
6400
4800
C800
C800
D000
F300
7C00
1000
2000
2000
2000
ENDCHAR
STARTCHAR 00A3
ENCODING 163
SWIDTH 495 0
DWIDTH 11 0
BBX 11 15 1 0
BITMAP
01C0
0660
0440
0C00
0C00
0C00
1800
7F00
1800
1800
1000
1000
F000
BC80
CF00
ENDCHAR
STARTCHAR 00A4
ENCODING 164
SWIDTH 495 0
DWIDTH 11 0
BBX 10 11 1 2
BITMAP
8000
DF40
6080
4040
8040
8040
8040
4040
6080
7BC0
8440
ENDCHAR
STARTCHAR 00A5
ENCODING 165
SWIDTH 495 0
DWIDTH 11 0
BBX 14 15 0 0
BITMAP
3E3C
1810
0C20
0C20
0C40
0480
0700
7FF0
0600
0600
FFE0
0C00
0C00
0C00
1C00
ENDCHAR
STARTCHAR 00A6
ENCODING 166
SWIDTH 270 0
DWIDTH 6 0
BBX 1 19 2 -5
BITMAP
80
80
80
80
80
80
80
00
00
00
00
00
80
80
80
80
80
80
80
ENDCHAR
STARTCHAR 00A7
ENCODING 167
SWIDTH 495 0
DWIDTH 11 0
BBX 11 20 0 -5
BITMAP
03C0
0420
0420
0400
0400
0600
0300
1F80
2180
2080
3080
1880
0F00
0C00
0600
0200
8200
C200
4400
3800
ENDCHAR
STARTCHAR 00A8
ENCODING 168
SWIDTH 315 0
DWIDTH 7 0
BBX 6 2 3 13
BITMAP
CC
CC
ENDCHAR
STARTCHAR 00A9
ENCODING 169
SWIDTH 765 0
DWIDTH 17 0
BBX 15 15 2 0
BITMAP
0FC0
1030
6008
47E4
9824
9002
B002
B002
B002
9002
9804
8C64
4388
2010
1FE0
ENDCHAR
STARTCHAR 00AA
ENCODING 170
SWIDTH 270 0
DWIDTH 6 0
BBX 6 6 2 9
BITMAP
3C
44
84
88
98
E8
ENDCHAR
STARTCHAR 00AB
ENCODING 171
SWIDTH 495 0
DWIDTH 11 0
BBX 9 9 1 1
BITMAP
0880
1100
2200
4600
CC00
4400
4600
2200
2200
ENDCHAR
STARTCHAR 00AC
ENCODING 172
SWIDTH 675 0
DWIDTH 15 0
BBX 11 5 2 5
BITMAP
FFE0
0020
0020
0020
0020
ENDCHAR
STARTCHAR 00AD
ENCODING 173
SWIDTH 315 0
DWIDTH 7 0
BBX 6 2 1 4
BITMAP
FC
F8
ENDCHAR
STARTCHAR 00AE
ENCODING 174
SWIDTH 765 0
DWIDTH 17 0
BBX 15 15 2 0
BITMAP
0FC0
1030
6008
4F84
8CC4
8C42
8CC2
8F82
8D02
8D82
8CC4
8C64
4008
2010
1FE0
ENDCHAR
STARTCHAR 00AF
ENCODING 175
SWIDTH 495 0
DWIDTH 11 0
BBX 12 1 2 15
BITMAP
FFF0
ENDCHAR
STARTCHAR 00B0
ENCODING 176
SWIDTH 405 0
DWIDTH 9 0
BBX 7 7 2 8
BITMAP
38
44
82
82
42
64
18
ENDCHAR
STARTCHAR 00B1
ENCODING 177
SWIDTH 540 0
DWIDTH 12 0
BBX 11 11 1 2
BITMAP
0400
0400
0400
0400
0400
FFE0
0400
0400
0400
0400
FFE0
ENDCHAR
STARTCHAR 00B2
ENCODING 178
SWIDTH 315 0
DWIDTH 7 0
BBX 6 8 1 7
BITMAP
1C
24
04
04
08
10
60
F8
ENDCHAR
STARTCHAR 00B3
ENCODING 179
SWIDTH 315 0
DWIDTH 7 0
BBX 5 8 2 7
BITMAP
38
08
08
70
18
18
10
E0
ENDCHAR
STARTCHAR 00B4
ENCODING 180
SWIDTH 315 0
DWIDTH 7 0
BBX 3 4 4 11
BITMAP
60
60
40
80
ENDCHAR
STARTCHAR 00B5
ENCODING 181
SWIDTH 585 0
DWIDTH 13 0
BBX 11 15 0 -5
BITMAP
0C20
0860
1860
1840
10C0
30C0
3080
3180
3380
7CE0
4000
4000
C000
8000
8000
ENDCHAR
STARTCHAR 00B6
ENCODING 182
SWIDTH 540 0
DWIDTH 12 0
BBX 10 20 1 -5
BITMAP
1FC0
7C80
7C80
FC80
FC80
FC80
7C80
3C80
0480
0480
0480
0480
0480
0480
0480
0480
0480
0480
0480
0480
ENDCHAR
STARTCHAR 00B7
ENCODING 183
SWIDTH 270 0
DWIDTH 6 0
BBX 2 3 2 6
BITMAP
80
C0
C0
ENDCHAR
STARTCHAR 00B8
ENCODING 184
SWIDTH 315 0
DWIDTH 7 0
BBX 3 4 1 -4
BITMAP
80
E0
60
C0
ENDCHAR
STARTCHAR 00B9
ENCODING 185
SWIDTH 315 0
DWIDTH 7 0
BBX 5 8 2 7
BITMAP
38
10
10
30
20
20
60
E0
ENDCHAR
STARTCHAR 00BA
ENCODING 186
SWIDTH 315 0
DWIDTH 7 0
BBX 6 6 3 9
BITMAP
38
C4
8C
88
88
F0
ENDCHAR
STARTCHAR 00BB
ENCODING 187
SWIDTH 495 0
DWIDTH 11 0
BBX 9 10 1 0
BITMAP
2200
2200
3100
1100
1980
1980
3300
6200
4400
8800
ENDCHAR
STARTCHAR 00BC
ENCODING 188
SWIDTH 765 0
DWIDTH 17 0
BBX 13 16 2 -1
BITMAP
3810
1020
1020
3040
2080
2080
6100
E100
0208
0418
0438
0850
1090
11F8
2020
4020
ENDCHAR
STARTCHAR 00BD
ENCODING 189
SWIDTH 765 0
DWIDTH 17 0
BBX 13 16 2 -1
BITMAP
3810
1020
1040
3040
2080
2100
6100
E200
0478
0408
0808
1010
1020
2040
4090
4060
ENDCHAR
STARTCHAR 00BE
ENCODING 190
SWIDTH 765 0
DWIDTH 17 0
BBX 14 16 1 -1
BITMAP
1C08
2410
0C10
3820
0C40
0C40
0880
F100
0104
020C
041C
0428
0848
08FC
1010
2010
ENDCHAR
STARTCHAR 00BF
ENCODING 191
SWIDTH 495 0
DWIDTH 11 0
BBX 8 16 1 -5
BITMAP
02
03
02
00
00
04
04
08
18
30
60
C0
C6
C6
C2
3C
ENDCHAR
STARTCHAR 00C0
ENCODING 192
SWIDTH 630 0
DWIDTH 14 0
BBX 13 20 0 0
BITMAP
0070
0030
0010
0008
0000
0020
0020
0060
00E0
00E0
0160
0260
0460
0460
0FE0
1040
2040
20C0
40C0
E1E0
ENDCHAR
STARTCHAR 00C1
ENCODING 193
SWIDTH 630 0
DWIDTH 14 0
BBX 14 20 0 0
BITMAP
001C
0018
0010
0020
0000
0020
0020
0060
00E0
00E0
0160
0260
0460
0460
0FE0
1040
2040
20C0
40C0
E1E0
ENDCHAR
STARTCHAR 00C2
ENCODING 194
SWIDTH 630 0
DWIDTH 14 0
BBX 14 19 0 0
BITMAP
0018
0028
00C4
0000
0020
0020
0060
00E0
00E0
0160
0260
0460
0460
0FE0
1040
2040
20C0
40C0
E1E0
ENDCHAR
STARTCHAR 00C3
ENCODING 195
SWIDTH 630 0
DWIDTH 14 0
BBX 15 19 0 0
BITMAP
0062
00FA
001C
0000
0020
0020
0060
00E0
00E0
0160
0260
0460
0460
0FE0
1040
2040
20C0
40C0
E1E0
ENDCHAR
STARTCHAR 00C4
ENCODING 196
SWIDTH 630 0
DWIDTH 14 0
BBX 15 19 0 0
BITMAP
0044
0066
0064
0000
0020
0020
0060
00E0
00E0
0160
0260
0460
0460
0FE0
1040
2040
20C0
40C0
E1E0
ENDCHAR
STARTCHAR 00C5
ENCODING 197
SWIDTH 630 0
DWIDTH 14 0
BBX 13 19 0 0
BITMAP
0010
0068
0048
0028
0030
0020
0060
00E0
00E0
0160
0260
0460
0460
0FE0
1040
2040
20C0
40C0
E1E0
ENDCHAR
STARTCHAR 00C6
ENCODING 198
SWIDTH 900 0
DWIDTH 20 0
BBX 21 15 -1 0
BITMAP
003FF8
001E18
001408
002C00
004C00
008C40
011880
011F80
021880
07F080
083000
103020
102020
206040
F0FFC0
ENDCHAR
STARTCHAR 00C7
ENCODING 199
SWIDTH 675 0
DWIDTH 15 0
BBX 14 19 1 -4
BITMAP
01F4
060C
0C04
1804
3004
7000
6000
6000
6000
E000
6000
6000
7010
3020
1FC0
0200
0700
0300
0600
ENDCHAR
STARTCHAR 00C8
ENCODING 200
SWIDTH 630 0
DWIDTH 14 0
BBX 13 20 1 0
BITMAP
0380
0180
0080
0040
0000
3FF8
0C18
0C10
0800
1800
1880
1880
3F80
3080
3000
2000
6020
6020
6040
FFC0
ENDCHAR
STARTCHAR 00C9
ENCODING 201
SWIDTH 630 0
DWIDTH 14 0
BBX 13 20 1 0
BITMAP
00C0
0180
0100
0200
0000
3FF8
0C18
0C10
0800
1800
1880
1880
3F80
3080
3000
2000
6020
6020
6040
FFC0
ENDCHAR
STARTCHAR 00CA
ENCODING 202
SWIDTH 630 0
DWIDTH 14 0
BBX 13 19 1 0
BITMAP
00E0
0120
0220
0000
3FF8
0C18
0C10
0800
1800
1880
1880
3F80
3080
3000
2000
6020
6020
6040
FFC0
ENDCHAR
STARTCHAR 00CB
ENCODING 203
SWIDTH 630 0
DWIDTH 14 0
BBX 13 19 1 0
BITMAP
0220
0370
0220
0000
3FF8
0C18
0C10
0800
1800
1880
1880
3F80
3080
3000
2000
6020
6020
6040
FFC0
ENDCHAR
STARTCHAR 00CC
ENCODING 204
SWIDTH 315 0
DWIDTH 7 0
BBX 9 20 0 0
BITMAP
0600
0300
0100
0100
0000
1F80
0600
0600
0400
0C00
0C00
0C00
1800
1800
1800
1000
3000
3000
3000
F800
ENDCHAR
STARTCHAR 00CD
ENCODING 205
SWIDTH 315 0
DWIDTH 7 0
BBX 9 20 0 0
BITMAP
0180
0300
0200
0400
0000
1F80
0600
0600
0400
0C00
0C00
0C00
1800
1800
1800
1000
3000
3000
3000
F800
ENDCHAR
STARTCHAR 00CE
ENCODING 206
SWIDTH 315 0
DWIDTH 7 0
BBX 9 19 0 0
BITMAP
0380
0680
0880
0000
1F80
0600
0600
0400
0C00
0C00
0C00
1800
1800
1800
1000
3000
3000
3000
F800
ENDCHAR
STARTCHAR 00CF
ENCODING 207
SWIDTH 315 0
DWIDTH 7 0
BBX 10 19 0 0
BITMAP
0080
0CC0
0C80
0000
1F80
0600
0600
0400
0C00
0C00
0C00
1800
1800
1800
1000
3000
3000
3000
F800
ENDCHAR
STARTCHAR 00D0
ENCODING 208
SWIDTH 720 0
DWIDTH 16 0
BBX 16 15 0 0
BITMAP
1FE0
0618
060C
0606
0C07
0C07
0C07
7F87
1806
1806
1006
300C
3018
3030
FFC0
ENDCHAR
STARTCHAR 00D1
ENCODING 209
SWIDTH 675 0
DWIDTH 15 0
BBX 17 19 0 0
BITMAP
00C000
01F400
003800
000000
1C0F80
060200
060400
0B0400
0B0400
0B0400
118800
118800
10C800
10D000
20D000
207000
207000
202000
E02000
ENDCHAR
STARTCHAR 00D2
ENCODING 210
SWIDTH 720 0
DWIDTH 16 0
BBX 15 20 1 0
BITMAP
0060
0020
0030
0010
0000
01F0
060C
0C0C
1806
3006
3006
6006
600E
E00C
E00C
E018
E038
6030
6060
3F80
ENDCHAR
STARTCHAR 00D3
ENCODING 211
SWIDTH 720 0
DWIDTH 16 0
BBX 15 20 1 0
BITMAP
0018
0030
0020
0040
0000
01F0
060C
0C0C
1806
3006
3006
6006
600E
E00C
E00C
E018
E038
6030
6060
3F80
ENDCHAR
STARTCHAR 00D4
ENCODING 212
SWIDTH 720 0
DWIDTH 16 0
BBX 15 19 1 0
BITMAP
0030
0058
0088
0000
01F0
060C
0C0C
1806
3006
3006
6006
600E
E00C
E00C
E018
E038
6030
6060
3F80
ENDCHAR
STARTCHAR 00D5
ENCODING 213
SWIDTH 720 0
DWIDTH 16 0
BBX 15 19 1 0
BITMAP
00C4
01F4
0038
0000
01F0
060C
0C0C
1806
3006
3006
6006
600E
E00C
E00C
E018
E038
6030
6060
3F80
ENDCHAR
STARTCHAR 00D6
ENCODING 214
SWIDTH 720 0
DWIDTH 16 0
BBX 15 19 1 0
BITMAP
0088
00CC
00C8
0000
01F0
060C
0C0C
1806
3006
3006
6006
600E
E00C
E00C
E018
E038
6030
6060
3F80
ENDCHAR
STARTCHAR 00D7
ENCODING 215
SWIDTH 675 0
DWIDTH 15 0
BBX 9 9 4 3
BITMAP
8080
4100
2200
1400
0800
1400
2200
4100
8080
ENDCHAR
STARTCHAR 00D8
ENCODING 216
SWIDTH 720 0
DWIDTH 16 0
BBX 15 16 1 -1
BITMAP
01F2
060C
0C0C
1816
3026
3046
6086
610E
620C
E40C
EC18
F838
7030
6060
5980
8600
ENDCHAR
STARTCHAR 00D9
ENCODING 217
SWIDTH 720 0
DWIDTH 16 0
BBX 16 20 2 0
BITMAP
00C0
0040
0060
0020
0000
7E1F
1804
1004
3008
3008
3008
6008
6010
6010
4010
C020
C020
4040
60C0
3F80
ENDCHAR
STARTCHAR 00DA
ENCODING 218
SWIDTH 720 0
DWIDTH 16 0
BBX 16 20 2 0
BITMAP
0060
0040
00C0
0080
0000
7E1F
1804
1004
3008
3008
3008
6008
6010
6010
4010
C020
C020
4040
60C0
3F80
ENDCHAR
STARTCHAR 00DB
ENCODING 219
SWIDTH 720 0
DWIDTH 16 0
BBX 16 19 2 0
BITMAP
0060
00A0
0310
0000
7E1F
1804
1004
3008
3008
3008
6008
6010
6010
4010
C020
C020
4040
60C0
3F80
ENDCHAR
STARTCHAR 00DC
ENCODING 220
SWIDTH 720 0
DWIDTH 16 0
BBX 16 19 2 0
BITMAP
0100
0330
0330
0000
7E1F
1804
1004
3008
3008
3008
6008
6010
6010
4010
C020
C020
4040
60C0
3F80
ENDCHAR
STARTCHAR 00DD
ENCODING 221
SWIDTH 540 0
DWIDTH 12 0
BBX 12 20 3 0
BITMAP
0180
0300
0200
0400
0000
F9F0
6040
6080
3100
3100
3200
1C00
1800
1800
1800
3000
3000
3000
6000
F000
ENDCHAR
STARTCHAR 00DE
ENCODING 222
SWIDTH 630 0
DWIDTH 14 0
BBX 13 15 0 0
BITMAP
1F80
0600
0600
0600
0DF0
0C18
0C18
1818
1818
1838
1070
3F80
3000
3000
F000
ENDCHAR
STARTCHAR 00DF
ENCODING 223
SWIDTH 495 0
DWIDTH 11 0
BBX 15 20 -4 -5
BITMAP
007C
00C6
0086
0186
0184
0188
0130
0318
030C
020C
060C
060C
0498
0490
0CA0
0840
0800
1800
D000
6000
ENDCHAR
STARTCHAR 00E0
ENCODING 224
SWIDTH 495 0
DWIDTH 11 0
BBX 9 15 1 0
BITMAP
0600
0200
0100
0000
0000
0E80
1180
2180
4100
C100
C300
8300
8E00
CE80
F700
ENDCHAR
STARTCHAR 00E1
ENCODING 225
SWIDTH 495 0
DWIDTH 11 0
BBX 9 15 1 0
BITMAP
0300
0200
0200
0400
0000
0E80
1180
2180
4100
C100
C300
8300
8E00
CE80
F700
ENDCHAR
STARTCHAR 00E2
ENCODING 226
SWIDTH 495 0
DWIDTH 11 0
BBX 9 15 1 0
BITMAP
0380
0680
0880
0000
0000
0E80
1180
2180
4100
C100
C300
8300
8E00
CE80
F700
ENDCHAR
STARTCHAR 00E3
ENCODING 227
SWIDTH 495 0
DWIDTH 11 0
BBX 10 15 1 0
BITMAP
0C00
1F40
0380
0000
0000
0E80
1180
2180
4100
C100
C300
8300
8E00
CE80
F700
ENDCHAR
STARTCHAR 00E4
ENCODING 228
SWIDTH 495 0
DWIDTH 11 0
BBX 10 14 1 1
BITMAP
0CC0
0CC0
0000
0000
0E80
1180
2180
4100
C100
C300
8300
8E00
CE80
F700
ENDCHAR
STARTCHAR 00E5
ENCODING 229
SWIDTH 495 0
DWIDTH 11 0
BBX 9 15 1 0
BITMAP
0780
0480
0480
0300
0000
0E80
1180
2180
4100
C100
C300
8300
8E00
CE80
F700
ENDCHAR
STARTCHAR 00E6
ENCODING 230
SWIDTH 675 0
DWIDTH 15 0
BBX 14 10 0 0
BITMAP
065C
09E4
10C4
208C
6198
61E0
4300
C504
6988
79F0
ENDCHAR
STARTCHAR 00E7
ENCODING 231
SWIDTH 450 0
DWIDTH 10 0
BBX 8 14 1 -4
BITMAP
0F
11
61
40
C0
C0
80
80
C2
7C
20
38
18
30
ENDCHAR
STARTCHAR 00E8
ENCODING 232
SWIDTH 450 0
DWIDTH 10 0
BBX 9 15 1 0
BITMAP
0E00
0600
0200
0100
0000
0F00
1180
2100
4300
C600
F800
C000
C100
C200
7C00
ENDCHAR
STARTCHAR 00E9
ENCODING 233
SWIDTH 450 0
DWIDTH 10 0
BBX 9 15 1 0
BITMAP
0300
0600
0400
0000
0000
0F00
1180
2100
4300
C600
F800
C000
C100
C200
7C00
ENDCHAR
STARTCHAR 00EA
ENCODING 234
SWIDTH 450 0
DWIDTH 10 0
BBX 9 15 1 0
BITMAP
0300
0500
0880
0000
0000
0F00
1180
2100
4300
C600
F800
C000
C100
C200
7C00
ENDCHAR
STARTCHAR 00EB
ENCODING 235
SWIDTH 450 0
DWIDTH 10 0
BBX 9 15 1 0
BITMAP
0880
1D80
0980
0000
0000
0F00
1180
2100
4300
C600
F800
C000
C100
C200
7C00
ENDCHAR
STARTCHAR 00EC
ENCODING 236
SWIDTH 270 0
DWIDTH 6 0
BBX 5 15 1 0
BITMAP
30
10
08
00
00
30
70
20
20
60
60
40
C0
D0
E0
ENDCHAR
STARTCHAR 00ED
ENCODING 237
SWIDTH 270 0
DWIDTH 6 0
BBX 6 15 1 0
BITMAP
0C
18
10
00
00
30
70
20
20
60
60
40
C0
D0
E0
ENDCHAR
STARTCHAR 00EE
ENCODING 238
SWIDTH 270 0
DWIDTH 6 0
BBX 6 15 1 0
BITMAP
0C
14
64
00
00
30
70
20
20
60
60
40
C0
D0
E0
ENDCHAR
STARTCHAR 00EF
ENCODING 239
SWIDTH 270 0
DWIDTH 6 0
BBX 7 14 1 1
BITMAP
66
66
00
00
30
70
20
20
60
60
40
C0
D0
E0
ENDCHAR
STARTCHAR 00F0
ENCODING 240
SWIDTH 495 0
DWIDTH 11 0
BBX 10 15 1 0
BITMAP
04C0
0300
0500
0900
0180
0F80
3180
6180
4180
C180
C180
8100
8300
C600
7C00
ENDCHAR
STARTCHAR 00F1
ENCODING 241
SWIDTH 495 0
DWIDTH 11 0
BBX 10 15 1 0
BITMAP
0C00
1F40
0380
0000
0000
3300
7580
2980
7100
6100
6300
C300
C200
8680
8700
ENDCHAR
STARTCHAR 00F2
ENCODING 242
SWIDTH 495 0
DWIDTH 11 0
BBX 9 15 1 0
BITMAP
0700
0300
0100
0080
0000
0E00
3180
6180
6180
C180
C180
8180
8300
C600
7C00
ENDCHAR
STARTCHAR 00F3
ENCODING 243
SWIDTH 495 0
DWIDTH 11 0
BBX 9 15 1 0
BITMAP
0300
0200
0200
0400
0000
0E00
3180
6180
6180
C180
C180
8180
8300
C600
7C00
ENDCHAR
STARTCHAR 00F4
ENCODING 244
SWIDTH 495 0
DWIDTH 11 0
BBX 9 15 1 0
BITMAP
0380
0680
0880
0000
0000
0E00
3180
6180
6180
C180
C180
8180
8300
C600
7C00
ENDCHAR
STARTCHAR 00F5
ENCODING 245
SWIDTH 495 0
DWIDTH 11 0
BBX 10 15 1 0
BITMAP
0C00
1F40
0380
0000
0000
0E00
3180
6180
6180
C180
C180
8180
8300
C600
7C00
ENDCHAR
STARTCHAR 00F6
ENCODING 246
SWIDTH 495 0
DWIDTH 11 0
BBX 10 14 1 1
BITMAP
0CC0
0CC0
0000
0000
0E00
3180
6180
6180
C180
C180
8180
8300
C600
7C00
ENDCHAR
STARTCHAR 00F7
ENCODING 247
SWIDTH 540 0
DWIDTH 12 0
BBX 11 9 1 3
BITMAP
0400
0C00
0000
0000
FFE0
0000
0000
0400
0400
ENDCHAR
STARTCHAR 00F8
ENCODING 248
SWIDTH 495 0
DWIDTH 11 0
BBX 10 11 0 -1
BITMAP
0740
08C0
30C0
31C0
62C0
64C0
68C0
5180
6300
6600
9800
ENDCHAR
STARTCHAR 00F9
ENCODING 249
SWIDTH 495 0
DWIDTH 11 0
BBX 9 15 1 0
BITMAP
0C00
0400
0200
0000
0000
2080
F180
2180
6180
6300
4300
C700
CA00
D280
E700
ENDCHAR
STARTCHAR 00FA
ENCODING 250
SWIDTH 495 0
DWIDTH 11 0
BBX 9 15 1 0
BITMAP
0300
0200
0200
0400
0000
2080
F180
2180
6180
6300
4300
C700
CA00
D280
E700
ENDCHAR
STARTCHAR 00FB
ENCODING 251
SWIDTH 495 0
DWIDTH 11 0
BBX 9 15 1 0
BITMAP
0300
0500
0880
0000
0000
2080
F180
2180
6180
6300
4300
C700
CA00
D280
E700
ENDCHAR
STARTCHAR 00FC
ENCODING 252
SWIDTH 495 0
DWIDTH 11 0
BBX 10 15 1 0
BITMAP
0880
0DC0
0880
0000
0000
2080
F180
2180
6180
6300
4300
C700
CA00
D280
E700
ENDCHAR
STARTCHAR 00FD
ENCODING 253
SWIDTH 450 0
DWIDTH 10 0
BBX 12 20 -2 -5
BITMAP
0060
00C0
0080
0000
0000
0C20
1C30
0410
0420
0420
0640
0680
0680
0700
0600
0400
0800
1000
E000
C000
ENDCHAR
STARTCHAR 00FE
ENCODING 254
SWIDTH 495 0
DWIDTH 11 0
BBX 12 20 -2 -5
BITMAP
0300
0300
0300
0200
0600
0660
07B0
0610
0C10
0C30
0830
1820
1860
10C0
1980
3600
3000
2000
6000
F800
ENDCHAR
STARTCHAR 00FF
ENCODING 255
SWIDTH 450 0
DWIDTH 10 0
BBX 12 19 -2 -4
BITMAP
0330
0330
0000
0000
0C20
1C30
0410
0420
0420
0640
0680
0680
0700
0600
0400
0800
1000
E000
C000
ENDCHAR
STARTCHAR 0100
ENCODING 256
SWIDTH 630 0
DWIDTH 14 0
BBX 15 18 0 0
BITMAP
00FE
00FE
0000
0020
0020
0060
00E0
00E0
0160
0260
0460
0460
0FE0
1040
2040
20C0
40C0
E1E0
ENDCHAR
STARTCHAR 0101
ENCODING 257
SWIDTH 495 0
DWIDTH 11 0
BBX 10 14 1 0
BITMAP
0FC0
1FC0
0000
0000
0E80
1180
2180
4100
C100
C300
8300
8E00
CE80
F700
ENDCHAR
STARTCHAR 0102
ENCODING 258
SWIDTH 630 0
DWIDTH 14 0
BBX 15 19 0 0
BITMAP
0042
007C
0038
0000
0020
0020
0060
00E0
00E0
0160
0260
0460
0460
0FE0
1040
2040
20C0
40C0
E1E0
ENDCHAR
STARTCHAR 0103
ENCODING 259
SWIDTH 495 0
DWIDTH 11 0
BBX 9 15 1 0
BITMAP
1080
0F80
0600
0000
0000
0E80
1180
2180
4100
C100
C300
8300
8E00
CE80
F700
ENDCHAR
STARTCHAR 0104
ENCODING 260
SWIDTH 630 0
DWIDTH 14 0
BBX 12 19 0 -4
BITMAP
0020
0020
0060
00E0
00E0
0160
0260
0460
0460
0FE0
1040
2040
20C0
40C0
E1E0
0080
0100
0180
00F0
ENDCHAR
STARTCHAR 0105
ENCODING 261
SWIDTH 495 0
DWIDTH 11 0
BBX 9 14 1 -4
BITMAP
0E80
1180
2180
4100
C100
C300
8300
8E00
CE80
F700
0400
0400
0600
0380
ENDCHAR
STARTCHAR 0106
ENCODING 262
SWIDTH 675 0
DWIDTH 15 0
BBX 14 20 1 0
BITMAP
0038
0030
0020
0040
0000
01F4
060C
0C04
1804
3004
7000
6000
6000
6000
E000
6000
6000
7010
3020
1FC0
ENDCHAR
STARTCHAR 0107
ENCODING 263
SWIDTH 450 0
DWIDTH 10 0
BBX 8 15 1 0
BITMAP
03
02
04
00
00
0F
11
61
40
C0
C0
80
80
C2
7C
ENDCHAR
STARTCHAR 0108
ENCODING 264
SWIDTH 675 0
DWIDTH 15 0
BBX 14 19 1 0
BITMAP
0030
0050
0190
0000
01F4
060C
0C04
1804
3004
7000
6000
6000
6000
E000
6000
6000
7010
3020
1FC0
ENDCHAR
STARTCHAR 0109
ENCODING 265
SWIDTH 450 0
DWIDTH 10 0
BBX 9 15 1 0
BITMAP
0300
0500
0880
0000
0000
0F00
1100
6100
4000
C000
C000
8000
8000
C200
7C00
ENDCHAR
STARTCHAR 010A
ENCODING 266
SWIDTH 675 0
DWIDTH 15 0
BBX 14 19 1 0
BITMAP
0020
0060
0020
0000
01F4
060C
0C04
1804
3004
7000
6000
6000
6000
E000
6000
6000
7010
3020
1FC0
ENDCHAR
STARTCHAR 010B
ENCODING 267
SWIDTH 450 0
DWIDTH 10 0
BBX 8 13 1 1
BITMAP
06
06
00
0F
11
61
40
C0
C0
80
80
C2
7C
ENDCHAR
STARTCHAR 010C
ENCODING 268
SWIDTH 675 0
DWIDTH 15 0
BBX 14 19 1 0
BITMAP
0088
0050
0060
0000
01F4
060C
0C04
1804
3004
7000
6000
6000
6000
E000
6000
6000
7010
3020
1FC0
ENDCHAR
STARTCHAR 010D
ENCODING 269
SWIDTH 450 0
DWIDTH 10 0
BBX 10 15 1 0
BITMAP
0840
0480
0700
0000
0000
0F00
1100
6100
4000
C000
C000
8000
8000
C200
7C00
ENDCHAR
STARTCHAR 010E
ENCODING 270
SWIDTH 720 0
DWIDTH 16 0
BBX 16 19 0 0
BITMAP
0110
00A0
00C0
0000
1FE0
0618
060C
0C06
0C06
0C07
0C07
1807
1806
1806
300E
300C
3018
3070
FF80
ENDCHAR
STARTCHAR 010F
ENCODING 271
SWIDTH 630 0
DWIDTH 14 0
BBX 15 15 0 0
BITMAP
00F6
0022
0022
0064
0060
0740
08C0
10C0
2080
6180
6180
4380
C500
6B40
7380
ENDCHAR
STARTCHAR 0110
ENCODING 272
SWIDTH 720 0
DWIDTH 16 0
BBX 16 15 0 0
BITMAP
1FE0
0618
060C
0606
0C07
0C07
0C07
7F87
1806
1806
1006
300C
3018
3030
FFC0
ENDCHAR
STARTCHAR 0111
ENCODING 273
SWIDTH 495 0
DWIDTH 11 0
BBX 13 15 0 0
BITMAP
00F0
0020
03F8
0060
0060
0740
08C0
10C0
2080
6180
6180
4380
C500
6B40
7380
ENDCHAR
STARTCHAR 0112
ENCODING 274
SWIDTH 630 0
DWIDTH 14 0
BBX 13 18 1 0
BITMAP
03F0
07F0
0000
3FF8
0C18
0C10
0800
1800
1880
1880
3F80
3080
3000
2000
6020
6020
6040
FFC0
ENDCHAR
STARTCHAR 0113
ENCODING 275
SWIDTH 450 0
DWIDTH 10 0
BBX 9 14 1 0
BITMAP
1F80
1F80
0000
0000
0F00
1180
2100
4300
C600
F800
C000
C100
C200
7C00
ENDCHAR
STARTCHAR 0114
ENCODING 276
SWIDTH 630 0
DWIDTH 14 0
BBX 13 19 1 0
BITMAP
0210
01E0
00C0
0000
3FF8
0C18
0C10
0800
1800
1880
1880
3F80
3080
3000
2000
6020
6020
6040
FFC0
ENDCHAR
STARTCHAR 0115
ENCODING 277
SWIDTH 450 0
DWIDTH 10 0
BBX 10 15 1 0
BITMAP
1040
0F80
0700
0000
0000
0F00
1180
2100
4300
C600
F800
C000
C100
C200
7C00
ENDCHAR
STARTCHAR 0116
ENCODING 278
SWIDTH 630 0
DWIDTH 14 0
BBX 13 19 1 0
BITMAP
0080
01C0
0080
0000
3FF8
0C18
0C10
0800
1800
1880
1880
3F80
3080
3000
2000
6020
6020
6040
FFC0
ENDCHAR
STARTCHAR 0117
ENCODING 279
SWIDTH 450 0
DWIDTH 10 0
BBX 9 15 1 0
BITMAP
0200
0600
0600
0000
0000
0F00
1180
2100
4300
C600
F800
C000
C100
C200
7C00
ENDCHAR
STARTCHAR 0118
ENCODING 280
SWIDTH 630 0
DWIDTH 14 0
BBX 13 19 1 -4
BITMAP
3FF8
0C18
0C10
0800
1800
1880
1880
3F80
3080
3000
2000
6020
6020
6040
FFC0
0200
0200
0300
03C0
ENDCHAR
STARTCHAR 0119
ENCODING 281
SWIDTH 450 0
DWIDTH 10 0
BBX 9 14 1 -4
BITMAP
0F00
1180
2100
4300
C600
F800
C000
C100
C200
7C00
1000
3000
3000
1E00
ENDCHAR
STARTCHAR 011A
ENCODING 282
SWIDTH 630 0
DWIDTH 14 0
BBX 13 19 1 0
BITMAP
0220
0140
0180
0000
3FF8
0C18
0C10
0800
1800
1880
1880
3F80
3080
3000
2000
6020
6020
6040
FFC0
ENDCHAR
STARTCHAR 011B
ENCODING 283
SWIDTH 450 0
DWIDTH 10 0
BBX 10 15 1 0
BITMAP
0840
0480
0700
0000
0000
0F00
1180
2100
4300
C600
F800
C000
C100
C200
7C00
ENDCHAR
STARTCHAR 011C
ENCODING 284
SWIDTH 720 0
DWIDTH 16 0
BBX 14 19 2 0
BITMAP
0060
00B0
0110
0000
03F4
0C0C
1808
3008
6008
E000
C000
C000
C078
C030
C030
C060
E060
6060
3FC0
ENDCHAR
STARTCHAR 011D
ENCODING 285
SWIDTH 495 0
DWIDTH 11 0
BBX 12 20 -1 -5
BITMAP
00C0
01E0
0220
0000
0000
0780
0870
1860
3060
30C0
10C0
0F00
0800
1000
1F00
23C0
4040
C040
6080
1F00
ENDCHAR
STARTCHAR 011E
ENCODING 286
SWIDTH 720 0
DWIDTH 16 0
BBX 14 19 2 0
BITMAP
0108
01F0
00E0
0000
03F4
0C0C
1808
3008
6008
E000
C000
C000
C078
C030
C030
C060
E060
6060
3FC0
ENDCHAR
STARTCHAR 011F
ENCODING 287
SWIDTH 495 0
DWIDTH 11 0
BBX 12 20 -1 -5
BITMAP
0420
03E0
0180
0000
0000
0780
0870
1860
3060
30C0
10C0
0F00
0800
1000
1F00
23C0
4040
C040
6080
1F00
ENDCHAR
STARTCHAR 0120
ENCODING 288
SWIDTH 720 0
DWIDTH 16 0
BBX 14 19 2 0
BITMAP
0040
00E0
0040
0000
03F4
0C0C
1808
3008
6008
E000
C000
C000
C078
C030
C030
C060
E060
6060
3FC0
ENDCHAR
STARTCHAR 0121
ENCODING 289
SWIDTH 495 0
DWIDTH 11 0
BBX 12 19 -1 -4
BITMAP
0180
0180
0000
0000
0780
0870
1860
3060
30C0
10C0
0F00
0800
1000
1F00
23C0
4040
C040
6080
1F00
ENDCHAR
STARTCHAR 0122
ENCODING 290
SWIDTH 720 0
DWIDTH 16 0
BBX 14 19 2 -4
BITMAP
03F4
0C0C
1808
3008
6008
E000
C000
C000
C078
C030
C030
C060
E060
6060
3FC0
0800
0E00
0600
0C00
ENDCHAR
STARTCHAR 0123
ENCODING 291
SWIDTH 495 0
DWIDTH 11 0
BBX 12 21 -1 -5
BITMAP
0080
0300
0300
0300
0000
0000
0780
0870
1860
3060
30C0
10C0
0F00
0800
1000
1F00
23C0
4040
C040
6080
1F00
ENDCHAR
STARTCHAR 0124
ENCODING 292
SWIDTH 720 0
DWIDTH 16 0
BBX 18 19 0 0
BITMAP
001800
002800
004400
000000
1F8FC0
060300
060200
040600
0C0600
0C0600
0C0C00
1FFC00
180C00
180800
301800
301800
301800
303000
F07800
ENDCHAR
STARTCHAR 0125
ENCODING 293
SWIDTH 495 0
DWIDTH 11 0
BBX 10 19 1 0
BITMAP
00C0
0140
0640
0000
3800
1800
1800
1000
3000
3300
3780
2980
7180
7100
6300
C300
C200
C680
8700
ENDCHAR
STARTCHAR 0126
ENCODING 294
SWIDTH 720 0
DWIDTH 16 0
BBX 18 15 0 0
BITMAP
1F8FC0
060300
1FFF80
040600
0C0600
0C0600
0C0C00
1FFC00
180C00
180800
301800
301800
301800
303000
F07800
ENDCHAR
STARTCHAR 0127
ENCODING 295
SWIDTH 495 0
DWIDTH 11 0
BBX 9 15 1 0
BITMAP
3800
1800
7F00
1000
3000
3100
3780
2980
7180
6100
6300
C300
C200
C680
8700
ENDCHAR
STARTCHAR 0128
ENCODING 296
SWIDTH 315 0
DWIDTH 7 0
BBX 10 19 0 0
BITMAP
0E00
17C0
1180
0000
1F80
0600
0600
0400
0C00
0C00
0C00
1800
1800
1800
1000
3000
3000
3000
F800
ENDCHAR
STARTCHAR 0129
ENCODING 297
SWIDTH 270 0
DWIDTH 6 0
BBX 8 15 1 0
BITMAP
31
7E
0E
00
00
30
70
20
20
60
60
40
C0
D0
E0
ENDCHAR
STARTCHAR 012A
ENCODING 298
SWIDTH 315 0
DWIDTH 7 0
BBX 10 18 0 0
BITMAP
0FC0
1FC0
0000
1F80
0600
0600
0400
0C00
0C00
0C00
1800
1800
1800
1000
3000
3000
3000
F800
ENDCHAR
STARTCHAR 012B
ENCODING 299
SWIDTH 270 0
DWIDTH 6 0
BBX 7 14 1 0
BITMAP
7E
FE
00
00
30
70
20
20
60
60
40
C0
D0
E0
ENDCHAR
STARTCHAR 012C
ENCODING 300
SWIDTH 315 0
DWIDTH 7 0
BBX 10 19 0 0
BITMAP
0840
07C0
0300
0000
1F80
0600
0600
0400
0C00
0C00
0C00
1800
1800
1800
1000
3000
3000
3000
F800
ENDCHAR
STARTCHAR 012D
ENCODING 301
SWIDTH 270 0
DWIDTH 6 0
BBX 7 15 1 0
BITMAP
42
3C
38
00
00
30
70
20
20
60
60
40
C0
D0
E0
ENDCHAR
STARTCHAR 012E
ENCODING 302
SWIDTH 315 0
DWIDTH 7 0
BBX 9 19 0 -4
BITMAP
1F80
0600
0600
0400
0C00
0C00
0C00
1800
1800
1800
1000
3000
3000
3000
7800
A000
6000
6000
3C00
ENDCHAR
STARTCHAR 012F
ENCODING 303
SWIDTH 270 0
DWIDTH 6 0
BBX 5 18 1 -4
BITMAP
18
18
00
00
30
70
20
20
60
60
40
C0
D0
E0
80
80
80
F0
ENDCHAR
STARTCHAR 0130
ENCODING 304
SWIDTH 315 0
DWIDTH 7 0
BBX 9 19 0 0
BITMAP
0100
0380
0100
0000
1F80
0600
0600
0400
0C00
0C00
0C00
1800
1800
1800
1000
3000
3000
3000
F800
ENDCHAR
STARTCHAR 0131
ENCODING 305
SWIDTH 270 0
DWIDTH 6 0
BBX 4 10 1 0
BITMAP
30
70
20
20
60
60
40
C0
D0
E0
ENDCHAR
STARTCHAR 0132
ENCODING 306
SWIDTH 765 0
DWIDTH 17 0
BBX 18 15 0 0
BITMAP
1F87C0
060300
060300
040300
0C0600
0C0600
0C0600
180600
180C00
180C00
100C00
301800
331800
373000
FBE000
ENDCHAR
STARTCHAR 0133
ENCODING 307
SWIDTH 495 0
DWIDTH 11 0
BBX 10 19 1 -5
BITMAP
18C0
18C0
0000
0000
3180
7380
2100
6100
6300
4300
4200
C600
E600
C400
0C00
0C00
0800
D000
E000
ENDCHAR
STARTCHAR 0134
ENCODING 308
SWIDTH 450 0
DWIDTH 10 0
BBX 13 19 -1 0
BITMAP
0038
0068
0088
0000
01F8
0060
0060
00C0
00C0
00C0
00C0
0180
0180
0180
0300
0300
E300
C600
7C00
ENDCHAR
STARTCHAR 0135
ENCODING 309
SWIDTH 270 0
DWIDTH 6 0
BBX 11 20 -4 -5
BITMAP
00E0
01A0
0220
0000
0000
0180
0180
0180
0100
0300
0300
0200
0600
0600
0600
0400
0C00
0800
D800
6000
ENDCHAR
STARTCHAR 0136
ENCODING 310
SWIDTH 675 0
DWIDTH 15 0
BBX 16 19 0 -4
BITMAP
1F9F
060C
0618
0420
0C40
0D80
0E00
1B00
1B00
1980
31C0
30C0
3060
3070
70F8
8000
0600
0200
1E00
ENDCHAR
STARTCHAR 0137
ENCODING 311
SWIDTH 450 0
DWIDTH 10 0
BBX 11 19 0 -4
BITMAP
0C00
0C00
0C00
0800
1800
1BE0
1180
3200
3400
2C00
3400
6600
6600
4680
C300
0000
3800
1800
3000
ENDCHAR
STARTCHAR 0138
ENCODING 312
SWIDTH 450 0
DWIDTH 10 0
BBX 11 10 0 0
BITMAP
1BE0
3180
3200
3400
2C00
3400
6600
6600
4680
C300
ENDCHAR
STARTCHAR 0139
ENCODING 313
SWIDTH 540 0
DWIDTH 12 0
BBX 11 20 0 0
BITMAP
00E0
00C0
0080
0100
0000
1F80
0600
0600
0C00
0C00
0C00
0C00
1800
1800
1800
3000
3020
3020
3060
FFC0
ENDCHAR
STARTCHAR 013A
ENCODING 314
SWIDTH 270 0
DWIDTH 6 0
BBX 7 20 1 0
BITMAP
06
0C
08
08
00
38
18
18
10
10
30
30
20
60
60
40
40
C0
E0
C0
ENDCHAR
STARTCHAR 013B
ENCODING 315
SWIDTH 540 0
DWIDTH 12 0
BBX 11 19 0 -4
BITMAP
1F80
0600
0600
0C00
0C00
0C00
0C00
1800
1800
1800
3000
3020
3020
3060
FFC0
0000
1C00
0400
3800
ENDCHAR
STARTCHAR 013C
ENCODING 316
SWIDTH 270 0
DWIDTH 6 0
BBX 6 19 0 -4
BITMAP
1C
0C
0C
08
08
18
18
10
30
30
20
20
60
70
60
00
E0
60
C0
ENDCHAR
STARTCHAR 013D
ENCODING 317
SWIDTH 540 0
DWIDTH 12 0
BBX 13 15 0 0
BITMAP
1F98
0618
0608
0C10
0C20
0C00
0C00
1800
1800
1800
3000
3020
3020
3060
FFC0
ENDCHAR
STARTCHAR 013E
ENCODING 318
SWIDTH 360 0
DWIDTH 8 0
BBX 9 15 1 0
BITMAP
3980
1980
1900
1100
1200
3000
3000
2000
6000
6000
4000
4000
C000
E000
C000
ENDCHAR
STARTCHAR 013F
ENCODING 319
SWIDTH 540 0
DWIDTH 12 0
BBX 11 15 0 0
BITMAP
1F80
0600
0600
0C00
0C00
0C00
0CC0
18C0
1800
1800
3000
3020
3020
3060
FFC0
ENDCHAR
STARTCHAR 0140
ENCODING 320
SWIDTH 315 0
DWIDTH 7 0
BBX 7 15 1 0
BITMAP
38
18
18
10
10
30
32
26
62
60
40
40
C0
E0
C0
ENDCHAR
STARTCHAR 0141
ENCODING 321
SWIDTH 540 0
DWIDTH 12 0
BBX 11 15 0 0
BITMAP
1F80
0600
0600
0400
0C80
0D00
0E00
1800
3800
5800
B000
3020
3020
7060
FFC0
ENDCHAR
STARTCHAR 0142
ENCODING 322
SWIDTH 270 0
DWIDTH 6 0
BBX 5 15 1 0
BITMAP
38
18
18
10
10
30
38
20
E0
60
40
40
C0
E0
E0
ENDCHAR
STARTCHAR 0143
ENCODING 323
SWIDTH 675 0
DWIDTH 15 0
BBX 17 20 0 0
BITMAP
001800
003000
002000
004000
000000
1C0F80
060200
060400
0B0400
0B0400
0B0400
118800
118800
10C800
10D000
20D000
207000
207000
202000
E02000
ENDCHAR
STARTCHAR 0144
ENCODING 324
SWIDTH 495 0
DWIDTH 11 0
BBX 9 15 1 0
BITMAP
0300
0200
0400
0400
0000
3300
7580
2980
7100
6100
6300
C300
C200
8680
8700
ENDCHAR
STARTCHAR 0145
ENCODING 325
SWIDTH 675 0
DWIDTH 15 0
BBX 17 19 0 -4
BITMAP
1C0F80
060200
060400
0B0400
0B0400
0B0400
118800
118800
10C800
10D000
20D000
207000
207000
202000
602000
800000
060000
020000
1E0000
ENDCHAR
STARTCHAR 0146
ENCODING 326
SWIDTH 495 0
DWIDTH 11 0
BBX 9 14 1 -4
BITMAP
3300
7580
2980
7100
6100
6300
C300
C200
8680
8700
0000
3000
1000
7000
ENDCHAR
STARTCHAR 0147
ENCODING 327
SWIDTH 675 0
DWIDTH 15 0
BBX 17 19 0 0
BITMAP
008800
005000
006000
000000
1C0F80
060200
060400
0B0400
0B0400
0B0400
118800
118800
10C800
10D000
20D000
207000
207000
202000
E02000
ENDCHAR
STARTCHAR 0148
ENCODING 328
SWIDTH 495 0
DWIDTH 11 0
BBX 9 15 1 0
BITMAP
1080
0B00
0E00
0000
0000
3300
7580
2980
7100
6100
6300
C300
C200
8680
8700
ENDCHAR
STARTCHAR 0149
ENCODING 329
SWIDTH 585 0
DWIDTH 13 0
BBX 10 15 2 0
BITMAP
6000
6000
4000
4000
8000
1980
32C0
3480
3880
3180
7180
6100
6300
4380
C300
ENDCHAR
STARTCHAR 014A
ENCODING 330
SWIDTH 675 0
DWIDTH 15 0
BBX 15 15 0 0
BITMAP
1E38
06CC
0706
0606
0E06
0C06
0C06
1806
1806
180C
118C
3388
3318
3210
F1E0
ENDCHAR
STARTCHAR 014B
ENCODING 331
SWIDTH 495 0
DWIDTH 11 0
BBX 9 15 1 -5
BITMAP
3300
7580
2980
7100
6100
6300
C300
C200
8600
8600
0400
0400
0C00
C800
7000
ENDCHAR
STARTCHAR 014C
ENCODING 332
SWIDTH 720 0
DWIDTH 16 0
BBX 15 18 1 0
BITMAP
01FC
01FC
0000
01F0
060C
0C0C
1806
3006
3006
6006
600E
E00C
E00C
E018
E038
6030
6060
3F80
ENDCHAR
STARTCHAR 014D
ENCODING 333
SWIDTH 495 0
DWIDTH 11 0
BBX 10 14 1 0
BITMAP
0FC0
1FC0
0000
0000
0E00
3180
6180
6180
C180
C180
8180
8300
C600
7C00
ENDCHAR
STARTCHAR 014E
ENCODING 334
SWIDTH 720 0
DWIDTH 16 0
BBX 15 19 1 0
BITMAP
0084
00F8
0070
0000
01F0
060C
0C0C
1806
3006
3006
6006
600E
E00C
E00C
E018
E038
6030
6060
3F80
ENDCHAR
STARTCHAR 014F
ENCODING 335
SWIDTH 495 0
DWIDTH 11 0
BBX 10 15 1 0
BITMAP
0840
0F80
0700
0000
0000
0E00
3180
6180
6180
C180
C180
8180
8300
C600
7C00
ENDCHAR
STARTCHAR 0150
ENCODING 336
SWIDTH 720 0
DWIDTH 16 0
BBX 15 20 1 0
BITMAP
0076
006C
0048
0090
0000
01F0
060C
0C0C
1806
3006
3006
6006
600E
E00C
E00C
E018
E038
6030
6060
3F80
ENDCHAR
STARTCHAR 0151
ENCODING 337
SWIDTH 495 0
DWIDTH 11 0
BBX 11 15 1 0
BITMAP
06E0
04C0
0480
0900
0000
0E00
3180
6180
6180
C180
C180
8180
8300
C600
7C00
ENDCHAR
STARTCHAR 0152
ENCODING 338
SWIDTH 945 0
DWIDTH 21 0
BBX 20 15 1 0
BITMAP
01FFF0
061C30
181810
301810
701800
601080
E03180
C03F00
C03100
C06100
C06000
C06040
C0C040
60C0C0
3FFF80
ENDCHAR
STARTCHAR 0153
ENCODING 339
SWIDTH 675 0
DWIDTH 15 0
BBX 13 10 1 0
BITMAP
0E38
3148
6188
4118
C330
C3C0
8300
8700
8710
79E0
ENDCHAR
STARTCHAR 0154
ENCODING 340
SWIDTH 630 0
DWIDTH 14 0
BBX 13 20 0 0
BITMAP
0060
0060
00C0
0080
0000
1FC0
0630
0638
0418
0C18
0C30
0C60
1FC0
1980
1980
10C0
30C0
30C0
3060
F070
ENDCHAR
STARTCHAR 0155
ENCODING 341
SWIDTH 405 0
DWIDTH 9 0
BBX 8 15 1 0
BITMAP
06
04
08
08
00
33
77
2B
70
60
60
C0
C0
80
80
ENDCHAR
STARTCHAR 0156
ENCODING 342
SWIDTH 630 0
DWIDTH 14 0
BBX 13 19 0 -4
BITMAP
1FC0
0630
0638
0418
0C18
0C30
0C60
1FC0
1980
1980
10C0
30C0
30C0
3060
7070
8000
0E00
0600
0C00
ENDCHAR
STARTCHAR 0157
ENCODING 343
SWIDTH 405 0
DWIDTH 9 0
BBX 8 14 1 -4
BITMAP
33
77
2B
70
60
60
C0
C0
80
80
00
E0
60
C0
ENDCHAR
STARTCHAR 0158
ENCODING 344
SWIDTH 630 0
DWIDTH 14 0
BBX 13 19 0 0
BITMAP
0210
0160
01C0
0000
1FC0
0630
0638
0418
0C18
0C30
0C60
1FC0
1980
1980
10C0
30C0
30C0
3060
F070
ENDCHAR
STARTCHAR 0159
ENCODING 345
SWIDTH 405 0
DWIDTH 9 0
BBX 8 15 1 0
BITMAP
21
12
1C
00
00
33
77
2B
70
60
60
C0
C0
80
80
ENDCHAR
STARTCHAR 015A
ENCODING 346
SWIDTH 495 0
DWIDTH 11 0
BBX 12 20 0 0
BITMAP
00C0
00C0
0180
0100
0000
0790
0C70
1820
1820
1800
0C00
0E00
0700
0380
01C0
40C0
40C0
40C0
4180
BF00
ENDCHAR
STARTCHAR 015B
ENCODING 347
SWIDTH 405 0
DWIDTH 9 0
BBX 8 15 0 0
BITMAP
03
06
04
00
00
1D
33
31
30
18
1C
0C
86
84
FC
ENDCHAR
STARTCHAR 015C
ENCODING 348
SWIDTH 495 0
DWIDTH 11 0
BBX 12 19 0 0
BITMAP
00E0
01A0
0220
0000
0790
0C70
1820
1820
1800
0C00
0E00
0700
0380
01C0
40C0
40C0
40C0
4180
BF00
ENDCHAR
STARTCHAR 015D
ENCODING 349
SWIDTH 405 0
DWIDTH 9 0
BBX 9 15 0 0
BITMAP
0300
0500
0880
0000
0000
1D00
3300
3100
3000
1800
1C00
0C00
8600
8400
FC00
ENDCHAR
STARTCHAR 015E
ENCODING 350
SWIDTH 495 0
DWIDTH 11 0
BBX 12 19 0 -4
BITMAP
0790
0C70
1820
1820
1800
0C00
0E00
0700
0380
01C0
40C0
40C0
40C0
4180
B300
0C00
0C00
0400
1C00
ENDCHAR
STARTCHAR 015F
ENCODING 351
SWIDTH 405 0
DWIDTH 9 0
BBX 8 14 0 -4
BITMAP
1D
33
31
30
18
1C
0C
86
84
CC
30
30
10
F0
ENDCHAR
STARTCHAR 0160
ENCODING 352
SWIDTH 495 0
DWIDTH 11 0
BBX 12 19 0 0
BITMAP
0220
0140
0180
0000
0790
0C70
1820
1820
1800
0C00
0E00
0700
0380
01C0
40C0
40C0
40C0
4180
BF00
ENDCHAR
STARTCHAR 0161
ENCODING 353
SWIDTH 405 0
DWIDTH 9 0
BBX 9 15 0 0
BITMAP
1080
0B00
0E00
0000
0000
1D00
3300
3100
3000
1800
1C00
0C00
8600
8400
FC00
ENDCHAR
STARTCHAR 0162
ENCODING 354
SWIDTH 540 0
DWIDTH 12 0
BBX 12 20 2 -5
BITMAP
7FF0
6610
8610
8600
0600
0C00
0C00
0C00
1800
1800
1800
1800
3000
3000
7800
0000
6000
6000
2000
C000
ENDCHAR
STARTCHAR 0163
ENCODING 355
SWIDTH 270 0
DWIDTH 6 0
BBX 7 18 0 -5
BITMAP
04
04
08
3E
18
10
30
30
30
20
60
68
70
00
60
60
40
80
ENDCHAR
STARTCHAR 0164
ENCODING 356
SWIDTH 540 0
DWIDTH 12 0
BBX 12 19 2 0
BITMAP
0420
02C0
0380
0000
7FF0
6610
8610
8600
0600
0C00
0C00
0C00
1800
1800
1800
1800
3000
3000
7800
ENDCHAR
STARTCHAR 0165
ENCODING 357
SWIDTH 360 0
DWIDTH 8 0
BBX 9 15 1 0
BITMAP
0180
0180
0900
1100
1200
7C00
3000
2000
6000
6000
4000
4000
C000
D000
E000
ENDCHAR
STARTCHAR 0166
ENCODING 358
SWIDTH 540 0
DWIDTH 12 0
BBX 12 15 2 0
BITMAP
7FF0
6210
8610
8600
0600
0C00
0C00
FF80
1800
1800
1800
1800
3000
3000
7800
ENDCHAR
STARTCHAR 0167
ENCODING 359
SWIDTH 270 0
DWIDTH 6 0
BBX 6 13 1 0
BITMAP
08
10
10
7C
30
20
F8
60
40
40
C0
D0
E0
ENDCHAR
STARTCHAR 0168
ENCODING 360
SWIDTH 720 0
DWIDTH 16 0
BBX 16 19 2 0
BITMAP
01C0
02E8
0230
0000
7E1F
1804
1004
3008
3008
3008
6008
6010
6010
4010
C020
C020
4040
60C0
3F80
ENDCHAR
STARTCHAR 0169
ENCODING 361
SWIDTH 495 0
DWIDTH 11 0
BBX 10 15 1 0
BITMAP
0C00
1F40
0380
0000
0000
2080
F180
2180
6180
6300
4300
C700
CA00
D280
E700
ENDCHAR
STARTCHAR 016A
ENCODING 362
SWIDTH 720 0
DWIDTH 16 0
BBX 16 18 2 0
BITMAP
03F8
03F8
0000
7E1F
1804
1004
3008
3008
3008
6008
6010
6010
4010
C020
C020
4040
60C0
3F80
ENDCHAR
STARTCHAR 016B
ENCODING 363
SWIDTH 495 0
DWIDTH 11 0
BBX 10 14 1 0
BITMAP
1FC0
1FC0
0000
0000
2080
F180
2180
6180
6300
4300
C700
CA00
D280
E700
ENDCHAR
STARTCHAR 016C
ENCODING 364
SWIDTH 720 0
DWIDTH 16 0
BBX 16 19 2 0
BITMAP
0108
01F0
00E0
0000
7E1F
1804
1004
3008
3008
3008
6008
6010
6010
4010
C020
C020
4040
60C0
3F80
ENDCHAR
STARTCHAR 016D
ENCODING 365
SWIDTH 495 0
DWIDTH 11 0
BBX 10 15 1 0
BITMAP
1040
0F80
0700
0000
0000
2080
F180
2180
6180
6300
4300
C700
CA00
D280
E700
ENDCHAR
STARTCHAR 016E
ENCODING 366
SWIDTH 720 0
DWIDTH 16 0
BBX 16 20 2 0
BITMAP
0040
01A0
0110
00A0
0040
7E1F
1804
1004
3008
3008
3008
6008
6010
6010
4010
C020
C020
4040
60C0
3F80
ENDCHAR
STARTCHAR 016F
ENCODING 367
SWIDTH 495 0
DWIDTH 11 0
BBX 9 15 1 0
BITMAP
0F00
0900
0900
0600
0000
2080
F180
2180
6180
6300
4300
C700
CA00
D280
E700
ENDCHAR
STARTCHAR 0170
ENCODING 368
SWIDTH 720 0
DWIDTH 16 0
BBX 16 20 2 0
BITMAP
00D8
0098
01B0
0120
0000
7E1F
1804
1004
3008
3008
3008
6008
6010
6010
4010
C020
C020
4040
60C0
3F80
ENDCHAR
STARTCHAR 0171
ENCODING 369
SWIDTH 495 0
DWIDTH 11 0
BBX 10 15 1 0
BITMAP
06C0
0480
0900
0000
0000
2080
F180
2180
6180
6300
4300
C700
CA00
D280
E700
ENDCHAR
STARTCHAR 0172
ENCODING 370
SWIDTH 720 0
DWIDTH 16 0
BBX 16 19 2 -4
BITMAP
7E1F
1804
1004
3008
3008
3008
6008
6010
6010
4010
C020
C020
4040
60C0
3F80
0800
0800
0C00
0780
ENDCHAR
STARTCHAR 0173
ENCODING 371
SWIDTH 495 0
DWIDTH 11 0
BBX 10 14 1 -4
BITMAP
2080
F180
2180
6180
6300
4300
C700
CA00
D280
E700
0200
0200
0200
03C0
ENDCHAR
STARTCHAR 0174
ENCODING 372
SWIDTH 855 0
DWIDTH 19 0
BBX 18 19 3 0
BITMAP
006000
00B000
011000
000000
FBF3C0
60C100
60C200
61C200
62C400
628800
658800
699000
69A000
51A000
D1C000
E18000
C18000
C10000
810000
ENDCHAR
STARTCHAR 0175
ENCODING 373
SWIDTH 675 0
DWIDTH 15 0
BBX 14 15 1 0
BITMAP
00E0
01E0
0220
0000
0000
6008
E10C
6184
2388
2590
2990
29A0
31C0
30C0
2080
ENDCHAR
STARTCHAR 0176
ENCODING 374
SWIDTH 540 0
DWIDTH 12 0
BBX 12 19 3 0
BITMAP
0380
0480
0880
0000
F9F0
6040
6080
3100
3100
3200
1C00
1800
1800
1800
3000
3000
3000
6000
F000
ENDCHAR
STARTCHAR 0177
ENCODING 375
SWIDTH 450 0
DWIDTH 10 0
BBX 12 20 -2 -5
BITMAP
0060
00A0
0320
0000
0000
0C20
1C30
0410
0420
0420
0640
0680
0680
0700
0600
0400
0800
1000
E000
C000
ENDCHAR
STARTCHAR 0178
ENCODING 376
SWIDTH 540 0
DWIDTH 12 0
BBX 12 19 3 0
BITMAP
0880
1D80
0980
0000
F9F0
6040
6080
3100
3100
3200
1C00
1800
1800
1800
3000
3000
3000
6000
F000
ENDCHAR
STARTCHAR 0179
ENCODING 377
SWIDTH 540 0
DWIDTH 12 0
BBX 14 20 0 0
BITMAP
0060
00C0
0080
0080
0000
1FFC
1018
2030
2060
00E0
01C0
0180
0300
0600
0C00
1C00
1810
3020
6020
FFE0
ENDCHAR
STARTCHAR 017A
ENCODING 378
SWIDTH 405 0
DWIDTH 9 0
BBX 9 15 0 0
BITMAP
0300
0200
0400
0000
0000
3F80
3F00
4200
0400
0800
1000
2000
4000
8600
FE00
ENDCHAR
STARTCHAR 017B
ENCODING 379
SWIDTH 540 0
DWIDTH 12 0
BBX 14 19 0 0
BITMAP
0080
00C0
00C0
0000
1FFC
1018
2030
2060
00E0
01C0
0180
0300
0600
0C00
1C00
1810
3020
6020
FFE0
ENDCHAR
STARTCHAR 017C
ENCODING 380
SWIDTH 405 0
DWIDTH 9 0
BBX 9 14 0 1
BITMAP
0600
0600
0000
0000
3F80
3F00
4200
0400
0800
1000
2000
4000
8600
FE00
ENDCHAR
STARTCHAR 017D
ENCODING 381
SWIDTH 540 0
DWIDTH 12 0
BBX 14 19 0 0
BITMAP
0210
0160
01C0
0000
1FFC
1018
2030
2060
00E0
01C0
0180
0300
0600
0C00
1C00
1810
3020
6020
FFE0
ENDCHAR
STARTCHAR 017E
ENCODING 382
SWIDTH 405 0
DWIDTH 9 0
BBX 9 15 0 0
BITMAP
1080
0B00
0E00
0000
0000
3F80
3F00
4200
0400
0800
1000
2000
4000
8600
FE00
ENDCHAR
STARTCHAR 017F
ENCODING 383
SWIDTH 270 0
DWIDTH 6 0
BBX 14 20 -4 -5
BITMAP
003C
0064
0040
00C0
0080
0180
0180
0100
0100
0300
0300
0200
0600
0600
0600
0400
0C00
0800
D000
6000
ENDCHAR
STARTCHAR 018F
ENCODING 399
SWIDTH 675 0
DWIDTH 15 0
BBX 14 15 1 0
BITMAP
13E0
1C38
1018
200C
000C
000C
000C
7FFC
E00C
E00C
E018
E018
6030
6060
3F80
ENDCHAR
STARTCHAR 0192
ENCODING 402
SWIDTH 495 0
DWIDTH 11 0
BBX 11 20 0 -5
BITMAP
00E0
0160
0100
0300
0300
0E00
0780
0600
0600
0600
0C00
0C00
0C00
0C00
0800
1800
1800
1000
A000
4000
ENDCHAR
STARTCHAR 01A0
ENCODING 416
SWIDTH 720 0
DWIDTH 16 0
BBX 17 15 1 0
BITMAP
01F180
060D80
0C0E00
180600
300600
300600
600600
600E00
E00C00
E00C00
E01800
E03800
603000
606000
3F8000
ENDCHAR
STARTCHAR 01A1
ENCODING 417
SWIDTH 540 0
DWIDTH 12 0
BBX 12 10 1 0
BITMAP
0E30
31B0
61C0
4180
C180
C180
8180
8300
C600
7C00
ENDCHAR
STARTCHAR 01AF
ENCODING 431
SWIDTH 765 0
DWIDTH 17 0
BBX 18 17 2 0
BITMAP
0000C0
0000C0
7E1F80
180400
100400
300800
300800
300800
600800
601000
601000
401000
C02000
C02000
404000
60C000
3F0000
ENDCHAR
STARTCHAR 01B0
ENCODING 432
SWIDTH 540 0
DWIDTH 12 0
BBX 12 10 1 0
BITMAP
20A0
F1B0
21B0
61C0
6300
4300
C700
CA00
D280
E700
ENDCHAR
STARTCHAR 01CD
ENCODING 461
SWIDTH 630 0
DWIDTH 14 0
BBX 15 19 0 0
BITMAP
0026
003C
0038
0000
0020
0020
0060
00E0
00E0
0160
0260
0460
0460
0FE0
1040
2040
20C0
40C0
E1E0
ENDCHAR
STARTCHAR 01CE
ENCODING 462
SWIDTH 495 0
DWIDTH 11 0
BBX 10 15 1 0
BITMAP
0840
0480
0700
0000
0000
0E80
1180
2180
4100
C100
C300
8300
8E00
CE80
F700
ENDCHAR
STARTCHAR 01CF
ENCODING 463
SWIDTH 315 0
DWIDTH 7 0
BBX 10 19 0 0
BITMAP
0440
0780
0300
0000
1F80
0600
0600
0400
0C00
0C00
0C00
1800
1800
1800
1000
3000
3000
3000
F800
ENDCHAR
STARTCHAR 01D0
ENCODING 464
SWIDTH 270 0
DWIDTH 6 0
BBX 7 15 1 0
BITMAP
22
24
18
00
00
30
70
20
20
60
60
40
C0
D0
E0
ENDCHAR
STARTCHAR 01D1
ENCODING 465
SWIDTH 720 0
DWIDTH 16 0
BBX 15 19 1 0
BITMAP
004C
0078
0070
0000
01F0
060C
0C0C
1806
3006
3006
6006
600E
E00C
E00C
E018
E038
6030
6060
3F80
ENDCHAR
STARTCHAR 01D2
ENCODING 466
SWIDTH 495 0
DWIDTH 11 0
BBX 10 15 1 0
BITMAP
0840
0480
0700
0000
0000
0E00
3180
6180
6180
C180
C180
8180
8300
C600
7C00
ENDCHAR
STARTCHAR 01D3
ENCODING 467
SWIDTH 720 0
DWIDTH 16 0
BBX 16 19 2 0
BITMAP
0110
00E0
00C0
0000
7E1F
1804
1004
3008
3008
3008
6008
6010
6010
4010
C020
C020
4040
60C0
3F80
ENDCHAR
STARTCHAR 01D4
ENCODING 468
SWIDTH 495 0
DWIDTH 11 0
BBX 9 15 1 0
BITMAP
0880
0500
0600
0000
0000
2080
F180
2180
6180
6300
4300
C700
CA00
D280
E700
ENDCHAR
STARTCHAR 01D5
ENCODING 469
SWIDTH 720 0
DWIDTH 16 0
BBX 16 20 2 0
BITMAP
01F8
01F8
0100
0130
0000
7E1F
1804
1004
3008
3008
3008
6008
6010
6010
4010
C020
C020
4040
60C0
3F80
ENDCHAR
STARTCHAR 01D6
ENCODING 470
SWIDTH 495 0
DWIDTH 11 0
BBX 10 17 1 0
BITMAP
0FC0
0FC0
0000
0980
1D80
0880
0000
2080
F180
2180
6180
6300
4300
C700
CA00
D280
E700
ENDCHAR
STARTCHAR 01D7
ENCODING 471
SWIDTH 720 0
DWIDTH 16 0
BBX 16 20 2 0
BITMAP
0060
0040
0100
0130
0000
7E1F
1804
1004
3008
3008
3008
6008
6010
6010
4010
C020
C020
4040
60C0
3F80
ENDCHAR
STARTCHAR 01D8
ENCODING 472
SWIDTH 495 0
DWIDTH 11 0
BBX 9 18 1 0
BITMAP
0180
0100
0200
0000
0980
1D80
0880
0000
2080
F180
2180
6180
6300
4300
C700
CA00
D280
E700
ENDCHAR
STARTCHAR 01D9
ENCODING 473
SWIDTH 720 0
DWIDTH 16 0
BBX 16 20 2 0
BITMAP
0090
0060
0100
0130
0000
7E1F
1804
1004
3008
3008
3008
6008
6010
6010
4010
C020
C020
4040
60C0
3F80
ENDCHAR
STARTCHAR 01DA
ENCODING 474
SWIDTH 495 0
DWIDTH 11 0
BBX 10 17 1 1
BITMAP
04C0
0700
0000
0980
1D80
0880
0000
2080
F180
2180
6180
6300
4300
C700
CA00
D280
E700
ENDCHAR
STARTCHAR 01DB
ENCODING 475
SWIDTH 720 0
DWIDTH 16 0
BBX 16 20 2 0
BITMAP
00C0
0040
0100
0130
0000
7E1F
1804
1004
3008
3008
3008
6008
6010
6010
4010
C020
C020
4040
60C0
3F80
ENDCHAR
STARTCHAR 01DC
ENCODING 476
SWIDTH 495 0
DWIDTH 11 0
BBX 9 18 1 0
BITMAP
0E00
0200
0200
0000
0980
1D80
0880
0000
2080
F180
2180
6180
6300
4300
C700
CA00
D280
E700
ENDCHAR
STARTCHAR 01FA
ENCODING 506
SWIDTH 630 0
DWIDTH 14 0
BBX 15 23 0 0
BITMAP
0006
000C
0008
0000
0010
0068
0048
0028
0030
0020
0060
00E0
00E0
0160
0260
0460
0460
0FE0
1040
2040
20C0
40C0
E1E0
ENDCHAR
STARTCHAR 01FB
ENCODING 507
SWIDTH 495 0
DWIDTH 11 0
BBX 10 20 1 0
BITMAP
00C0
0080
0100
0100
0000
0780
0480
0480
0300
0000
0E80
1180
2180
4100
C100
C300
8300
8E00
CE80
F700
ENDCHAR
STARTCHAR 01FC
ENCODING 508
SWIDTH 900 0
DWIDTH 20 0
BBX 21 19 -1 0
BITMAP
000180
000100
000200
000000
003FF8
001E18
001408
002C00
004C00
008C40
011880
011F80
021880
07F080
083000
103020
102020
206040
F0FFC0
ENDCHAR
STARTCHAR 01FD
ENCODING 509
SWIDTH 675 0
DWIDTH 15 0
BBX 14 15 0 0
BITMAP
0070
0060
0040
0080
0000
065C
09E4
10C4
208C
6198
61E0
4300
C504
6988
79F0
ENDCHAR
STARTCHAR 01FE
ENCODING 510
SWIDTH 720 0
DWIDTH 16 0
BBX 15 20 1 -1
BITMAP
0030
0020
0040
0000
01F2
060C
0C0C
1816
3026
3046
6086
610E
620C
E40C
EC18
F838
7030
6060
5980
8600
ENDCHAR
STARTCHAR 01FF
ENCODING 511
SWIDTH 495 0
DWIDTH 11 0
BBX 10 16 0 -1
BITMAP
0180
0100
0100
0200
0000
0740
08C0
30C0
31C0
62C0
64C0
68C0
5180
6300
6600
9800
ENDCHAR
STARTCHAR 0218
ENCODING 536
SWIDTH 495 0
DWIDTH 11 0
BBX 12 20 0 -5
BITMAP
0790
0C70
1820
1820
1800
0C00
0E00
0700
0380
01C0
40C0
40C0
40C0
4180
B300
0C00
0C00
0C00
0800
1000
ENDCHAR
STARTCHAR 0219
ENCODING 537
SWIDTH 405 0
DWIDTH 9 0
BBX 8 15 0 -5
BITMAP
1D
33
31
30
18
1C
0C
86
84
CC
30
30
30
20
40
ENDCHAR
STARTCHAR 021A
ENCODING 538
SWIDTH 540 0
DWIDTH 12 0
BBX 12 20 2 -5
BITMAP
7FF0
6610
8610
8600
0600
0C00
0C00
0C00
1800
1800
1800
1800
3000
3000
7800
0000
6000
2000
2000
C000
ENDCHAR
STARTCHAR 021B
ENCODING 539
SWIDTH 270 0
DWIDTH 6 0
BBX 7 18 0 -5
BITMAP
04
08
08
3E
18
10
30
30
20
20
60
68
70
00
60
60
40
80
ENDCHAR
STARTCHAR 0259
ENCODING 601
SWIDTH 450 0
DWIDTH 10 0
BBX 9 10 0 0
BITMAP
0E00
3380
4180
0180
0180
1F80
6100
4300
C600
7800
ENDCHAR
STARTCHAR 02C6
ENCODING 710
SWIDTH 315 0
DWIDTH 7 0
BBX 5 3 3 12
BITMAP
18
28
C8
ENDCHAR
STARTCHAR 02C7
ENCODING 711
SWIDTH 315 0
DWIDTH 7 0
BBX 5 3 4 12
BITMAP
88
90
E0
ENDCHAR
STARTCHAR 02C9
ENCODING 713
SWIDTH 315 0
DWIDTH 7 0
BBX 7 2 3 13
BITMAP
FE
FC
ENDCHAR
STARTCHAR 02D8
ENCODING 728
SWIDTH 315 0
DWIDTH 7 0
BBX 6 3 3 12
BITMAP
84
F8
70
ENDCHAR
STARTCHAR 02D9
ENCODING 729
SWIDTH 315 0
DWIDTH 7 0
BBX 2 2 5 13
BITMAP
C0
C0
ENDCHAR
STARTCHAR 02DA
ENCODING 730
SWIDTH 315 0
DWIDTH 7 0
BBX 4 4 4 11
BITMAP
F0
90
90
60
ENDCHAR
STARTCHAR 02DB
ENCODING 731
SWIDTH 315 0
DWIDTH 7 0
BBX 4 4 1 -4
BITMAP
80
80
C0
70
ENDCHAR
STARTCHAR 02DC
ENCODING 732
SWIDTH 315 0
DWIDTH 7 0
BBX 7 3 2 12
BITMAP
60
FA
9C
ENDCHAR
STARTCHAR 02DD
ENCODING 733
SWIDTH 315 0
DWIDTH 7 0
BBX 7 4 3 11
BITMAP
6E
4C
48
90
ENDCHAR
STARTCHAR 0300
ENCODING 768
SWIDTH 0 0
DWIDTH 0 0
BBX 3 4 -2 16
BITMAP
C0
40
20
20
ENDCHAR
STARTCHAR 0301
ENCODING 769
SWIDTH 0 0
DWIDTH 0 0
BBX 3 4 -1 16
BITMAP
60
40
C0
80
ENDCHAR
STARTCHAR 0303
ENCODING 771
SWIDTH 0 0
DWIDTH 0 0
BBX 7 3 -6 16
BITMAP
70
BE
8C
ENDCHAR
STARTCHAR 0309
ENCODING 777
SWIDTH 0 0
DWIDTH 0 0
BBX 3 4 -1 16
BITMAP
E0
A0
40
80
ENDCHAR
STARTCHAR 0323
ENCODING 803
SWIDTH 0 0
DWIDTH 0 0
BBX 2 2 -10 -3
BITMAP
C0
C0
ENDCHAR
STARTCHAR 037E
ENCODING 894
SWIDTH 315 0
DWIDTH 7 0
BBX 6 13 0 -3
BITMAP
0C
0C
00
00
00
00
00
00
20
70
20
20
C0
ENDCHAR
STARTCHAR 0384
ENCODING 900
SWIDTH 315 0
DWIDTH 7 0
BBX 3 4 4 11
BITMAP
60
60
40
80
ENDCHAR
STARTCHAR 0385
ENCODING 901
SWIDTH 315 0
DWIDTH 7 0
BBX 8 4 2 11
BITMAP
0C
DA
D7
02
ENDCHAR
STARTCHAR 0386
ENCODING 902
SWIDTH 630 0
DWIDTH 14 0
BBX 11 15 0 0
BITMAP
0720
0620
0460
00E0
00E0
0160
0260
0460
0460
0FE0
1040
2040
20C0
40C0
E1E0
ENDCHAR
STARTCHAR 0387
ENCODING 903
SWIDTH 315 0
DWIDTH 7 0
BBX 2 2 4 8
BITMAP
C0
C0
ENDCHAR
STARTCHAR 0388
ENCODING 904
SWIDTH 675 0
DWIDTH 15 0
BBX 14 15 1 0
BITMAP
6FFC
470C
8604
0604
0600
0420
0C60
0FC0
0C40
1840
1800
1808
3010
3030
7FF0
ENDCHAR
STARTCHAR 0389
ENCODING 905
SWIDTH 810 0
DWIDTH 18 0
BBX 19 15 1 0
BITMAP
6FC7E0
470380
860300
060300
060200
040600
0C0600
0FFE00
0C0C00
180C00
180C00
181800
301800
301800
783C00
ENDCHAR
STARTCHAR 038A
ENCODING 906
SWIDTH 405 0
DWIDTH 9 0
BBX 10 15 1 0
BITMAP
6FC0
4300
8600
0600
0600
0400
0C00
0C00
0C00
1800
1800
1800
1000
3000
7800
ENDCHAR
STARTCHAR 038C
ENCODING 908
SWIDTH 720 0
DWIDTH 16 0
BBX 15 15 1 0
BITMAP
71F0
660C
4C0C
1806
3006
3006
6006
600E
E00C
E00C
E018
E038
6030
6060
3F80
ENDCHAR
STARTCHAR 038E
ENCODING 910
SWIDTH 675 0
DWIDTH 15 0
BBX 16 15 1 0
BITMAP
6F9F
4704
8308
0308
0310
01A0
01C0
01C0
0180
0180
0180
0300
0300
0300
0F80
ENDCHAR
STARTCHAR 038F
ENCODING 911
SWIDTH 720 0
DWIDTH 16 0
BBX 16 15 0 0
BITMAP
30F8
2306
4C03
1C03
1803
3803
3003
3007
3006
180C
1818
4670
4284
7CFC
FCF8
ENDCHAR
STARTCHAR 0390
ENCODING 912
SWIDTH 270 0
DWIDTH 6 0
BBX 8 15 1 0
BITMAP
0C
DA
D7
02
00
30
70
20
60
60
60
40
C0
D0
E0
ENDCHAR
STARTCHAR 0391
ENCODING 913
SWIDTH 630 0
DWIDTH 14 0
BBX 11 15 0 0
BITMAP
0020
0020
0060
00E0
00E0
0160
0260
0460
0460
0FE0
1040
2040
20C0
40C0
E1E0
ENDCHAR
STARTCHAR 0392
ENCODING 914
SWIDTH 630 0
DWIDTH 14 0
BBX 13 15 0 0
BITMAP
1FC0
0630
0618
0418
0C18
0C30
0C60
1FC0
1860
1870
1070
3070
3060
30C0
FF80
ENDCHAR
STARTCHAR 0393
ENCODING 915
SWIDTH 585 0
DWIDTH 13 0
BBX 15 15 0 0
BITMAP
1FFE
0604
0604
0404
0C00
0C00
0C00
1800
1800
1800
3000
3000
3000
3000
F800
ENDCHAR
STARTCHAR 0394
ENCODING 916
SWIDTH 585 0
DWIDTH 13 0
BBX 12 15 -1 0
BITMAP
0010
0010
0030
0070
00B0
00B0
0130
0230
0430
0830
0830
1020
2020
4060
FFE0
ENDCHAR
STARTCHAR 0395
ENCODING 917
SWIDTH 630 0
DWIDTH 14 0
BBX 13 15 1 0
BITMAP
3FF8
0C18
0C10
0800
1800
1880
1880
3F80
3080
3000
2000
6020
6020
6040
FFC0
ENDCHAR
STARTCHAR 0396
ENCODING 918
SWIDTH 540 0
DWIDTH 12 0
BBX 14 15 0 0
BITMAP
1FFC
1018
2030
2060
00E0
01C0
0180
0300
0600
0C00
1C00
1810
3020
6020
FFE0
ENDCHAR
STARTCHAR 0397
ENCODING 919
SWIDTH 720 0
DWIDTH 16 0
BBX 18 15 0 0
BITMAP
1F8FC0
060300
060200
040600
0C0600
0C0600
0C0C00
1FFC00
180C00
180800
301800
301800
301800
303000
F07800
ENDCHAR
STARTCHAR 0398
ENCODING 920
SWIDTH 720 0
DWIDTH 16 0
BBX 15 15 1 0
BITMAP
01F0
060C
0C0C
1806
3006
3006
6426
67CE
644C
E84C
E018
E018
6030
6060
3F80
ENDCHAR
STARTCHAR 0399
ENCODING 921
SWIDTH 315 0
DWIDTH 7 0
BBX 9 15 0 0
BITMAP
1F80
0600
0600
0400
0C00
0C00
0C00
1800
1800
1800
1000
3000
3000
3000
F800
ENDCHAR
STARTCHAR 039A
ENCODING 922
SWIDTH 675 0
DWIDTH 15 0
BBX 16 15 0 0
BITMAP
1F9F
060C
0618
0420
0C40
0D80
0E00
1B00
1B00
1980
31C0
30C0
3060
3070
F0F8
ENDCHAR
STARTCHAR 039B
ENCODING 923
SWIDTH 585 0
DWIDTH 13 0
BBX 11 15 0 0
BITMAP
0020
0020
0060
00E0
00E0
0160
0260
0460
0460
0860
1040
20C0
20C0
40C0
E1E0
ENDCHAR
STARTCHAR 039C
ENCODING 924
SWIDTH 855 0
DWIDTH 19 0
BBX 21 15 0 0
BITMAP
1E0078
0600C0
0601C0
0A01C0
0B0380
0B0580
130980
130980
131300
132300
232300
234600
218600
210600
E11F00
ENDCHAR
STARTCHAR 039D
ENCODING 925
SWIDTH 675 0
DWIDTH 15 0
BBX 17 15 0 0
BITMAP
1C0F80
060200
060400
0B0400
0B0400
0B0400
118800
118800
10C800
10D000
20D000
207000
207000
202000
E02000
ENDCHAR
STARTCHAR 039E
ENCODING 926
SWIDTH 630 0
DWIDTH 14 0
BBX 15 15 0 0
BITMAP
0FFE
0FFE
1002
1000
0000
0010
0420
0FE0
0820
0000
0000
0000
8010
FFF0
FFF0
ENDCHAR
STARTCHAR 039F
ENCODING 927
SWIDTH 720 0
DWIDTH 16 0
BBX 15 15 1 0
BITMAP
01F0
060C
0C0C
1806
3006
3006
6006
600E
E00C
E00C
E018
E038
6030
6060
3F80
ENDCHAR
STARTCHAR 03A0
ENCODING 928
SWIDTH 720 0
DWIDTH 16 0
BBX 18 15 0 0
BITMAP
1FFFC0
060300
060300
060600
0C0600
0C0600
0C0C00
180C00
180C00
180800
101800
301800
301800
303000
F07800
ENDCHAR
STARTCHAR 03A1
ENCODING 929
SWIDTH 630 0
DWIDTH 14 0
BBX 14 15 0 0
BITMAP
1FE0
0618
060C
060C
0C0C
0C18
0C38
1FE0
1800
1800
1800
3000
3000
3000
F800
ENDCHAR
STARTCHAR 03A3
ENCODING 931
SWIDTH 585 0
DWIDTH 13 0
BBX 16 15 -1 0
BITMAP
0FFF
0602
0702
0300
0380
0180
01C0
0080
0100
0200
0400
0808
3010
7FF0
FFF0
ENDCHAR
STARTCHAR 03A4
ENCODING 932
SWIDTH 540 0
DWIDTH 12 0
BBX 12 15 2 0
BITMAP
7FF0
6610
8610
8600
0600
0C00
0C00
0C00
1800
1800
1800
1800
3000
3000
7800
ENDCHAR
STARTCHAR 03A5
ENCODING 933
SWIDTH 540 0
DWIDTH 12 0
BBX 12 15 3 0
BITMAP
F9F0
6040
6080
3100
3100
3200
1C00
1800
1800
1800
3000
3000
3000
6000
F000
ENDCHAR
STARTCHAR 03A6
ENCODING 934
SWIDTH 765 0
DWIDTH 17 0
BBX 15 15 2 0
BITMAP
03F8
00C0
00C0
0FB8
318C
618C
C386
C30E
C30C
C30C
C618
6660
1F80
0E00
1F00
ENDCHAR
STARTCHAR 03A7
ENCODING 935
SWIDTH 630 0
DWIDTH 14 0
BBX 17 15 -1 0
BITMAP
0FCF80
030200
030400
010800
019000
01A000
01C000
00C000
01C000
02C000
044000
086000
106000
206000
F07800
ENDCHAR
STARTCHAR 03A8
ENCODING 936
SWIDTH 720 0
DWIDTH 16 0
BBX 15 15 3 0
BITMAP
CFE6
4308
6318
4318
C630
C630
C630
4C60
3D80
0E00
0800
1800
1800
1800
7800
ENDCHAR
STARTCHAR 03A9
ENCODING 937
SWIDTH 720 0
DWIDTH 16 0
BBX 16 15 0 0
BITMAP
00F8
0706
0C03
1C03
1803
3803
3003
3007
3006
100C
1818
4E70
4484
7CFC
FCF8
ENDCHAR
STARTCHAR 03AA
ENCODING 938
SWIDTH 315 0
DWIDTH 7 0
BBX 10 19 0 0
BITMAP
0080
0CC0
0C80
0000
1F80
0600
0600
0400
0C00
0C00
0C00
1800
1800
1800
1000
3000
3000
3000
F800
ENDCHAR
STARTCHAR 03AB
ENCODING 939
SWIDTH 540 0
DWIDTH 12 0
BBX 12 19 3 0
BITMAP
0880
1D80
0980
0000
F9F0
6040
6080
3100
3100
3200
1C00
1800
1800
1800
3000
3000
3000
6000
F000
ENDCHAR
STARTCHAR 03AC
ENCODING 940
SWIDTH 540 0
DWIDTH 12 0
BBX 10 15 1 0
BITMAP
0300
0300
0200
0400
0000
1CC0
32C0
6280
6180
C100
C300
8300
8700
8540
78C0
ENDCHAR
STARTCHAR 03AD
ENCODING 941
SWIDTH 405 0
DWIDTH 9 0
BBX 9 15 0 0
BITMAP
0600
0600
0400
0800
0000
0E00
3100
2180
2000
1000
6C00
4000
C200
C200
7C00
ENDCHAR
STARTCHAR 03AE
ENCODING 942
SWIDTH 495 0
DWIDTH 11 0
BBX 9 20 1 -5
BITMAP
0300
0200
0200
0400
0000
3180
F780
2980
3180
7100
6300
6300
C300
C200
8600
0600
0600
0400
0400
0400
ENDCHAR
STARTCHAR 03AF
ENCODING 943
SWIDTH 270 0
DWIDTH 6 0
BBX 6 15 1 0
BITMAP
0C
18
10
00
00
30
70
20
20
60
60
40
C0
D0
E0
ENDCHAR
STARTCHAR 03B0
ENCODING 944
SWIDTH 450 0
DWIDTH 10 0
BBX 10 15 1 0
BITMAP
0700
3680
35C0
0080
0000
2400
F300
2100
6100
6100
4100
C100
C200
C600
7C00
ENDCHAR
STARTCHAR 03B1
ENCODING 945
SWIDTH 540 0
DWIDTH 12 0
BBX 10 10 1 0
BITMAP
1CC0
32C0
6280
6180
C100
C300
8300
8700
8540
78C0
ENDCHAR
STARTCHAR 03B2
ENCODING 946
SWIDTH 495 0
DWIDTH 11 0
BBX 12 20 -1 -5
BITMAP
01F0
0210
0610
0430
0C30
0C60
0B80
0840
1860
1860
1060
3060
30C0
2080
7B00
6400
4000
4000
C000
8000
ENDCHAR
STARTCHAR 03B3
ENCODING 947
SWIDTH 405 0
DWIDTH 9 0
BBX 8 15 1 -5
BITMAP
42
E3
A2
22
22
24
28
28
10
20
20
60
40
C0
80
ENDCHAR
STARTCHAR 03B4
ENCODING 948
SWIDTH 450 0
DWIDTH 10 0
BBX 9 15 1 0
BITMAP
0F80
1080
0800
0C00
0600
0300
0D00
3180
6180
C180
C300
8300
8200
8400
F800
ENDCHAR
STARTCHAR 03B5
ENCODING 949
SWIDTH 405 0
DWIDTH 9 0
BBX 9 10 0 0
BITMAP
0E00
3100
2180
2000
1000
6C00
4000
C200
C200
7C00
ENDCHAR
STARTCHAR 03B6
ENCODING 950
SWIDTH 405 0
DWIDTH 9 0
BBX 11 19 1 -4
BITMAP
18E0
11C0
0E00
0800
1000
2000
4000
4000
8000
8000
8000
8000
8000
F000
FC00
0400
0400
3C00
1000
ENDCHAR
STARTCHAR 03B7
ENCODING 951
SWIDTH 495 0
DWIDTH 11 0
BBX 9 15 1 -5
BITMAP
3180
F780
2980
3180
7100
6300
6300
C300
C200
8600
0600
0600
0400
0400
0400
ENDCHAR
STARTCHAR 03B8
ENCODING 952
SWIDTH 495 0
DWIDTH 11 0
BBX 10 15 1 0
BITMAP
0780
0840
1040
3040
30C0
60C0
60C0
7FC0
C180
C180
C100
C300
8200
C600
7800
ENDCHAR
STARTCHAR 03B9
ENCODING 953
SWIDTH 270 0
DWIDTH 6 0
BBX 4 10 1 0
BITMAP
30
70
20
20
60
60
40
C0
D0
E0
ENDCHAR
STARTCHAR 03BA
ENCODING 954
SWIDTH 495 0
DWIDTH 11 0
BBX 11 10 0 0
BITMAP
1860
38E0
1100
3600
3C00
3400
6600
6600
4240
C380
ENDCHAR
STARTCHAR 03BB
ENCODING 955
SWIDTH 450 0
DWIDTH 10 0
BBX 9 15 0 0
BITMAP
0C00
1200
0200
0200
0200
0200
0400
0400
0C00
1C00
3400
3400
6400
C280
C300
ENDCHAR
STARTCHAR 03BC
ENCODING 956
SWIDTH 495 0
DWIDTH 11 0
BBX 11 15 -1 -5
BITMAP
0C20
0860
0860
1840
1840
10C0
30C0
3180
3280
5CE0
4000
4000
C000
C000
8000
ENDCHAR
STARTCHAR 03BD
ENCODING 957
SWIDTH 450 0
DWIDTH 10 0
BBX 9 10 1 0
BITMAP
6100
E180
2080
2100
3100
3200
3400
3800
3000
2000
ENDCHAR
STARTCHAR 03BE
ENCODING 958
SWIDTH 450 0
DWIDTH 10 0
BBX 11 19 0 -4
BITMAP
0C60
05C0
0200
0400
0400
07C0
0800
1000
2000
4000
4000
8000
C000
7800
7F00
0100
0100
1E00
0800
ENDCHAR
STARTCHAR 03BF
ENCODING 959
SWIDTH 495 0
DWIDTH 11 0
BBX 9 10 1 0
BITMAP
0E00
3180
6180
6180
C180
C180
8180
8300
C600
7C00
ENDCHAR
STARTCHAR 03C0
ENCODING 960
SWIDTH 495 0
DWIDTH 11 0
BBX 11 10 1 0
BITMAP
3FE0
7FE0
9300
1200
2200
2600
6400
6400
C480
C700
ENDCHAR
STARTCHAR 03C1
ENCODING 961
SWIDTH 495 0
DWIDTH 11 0
BBX 11 15 -1 -5
BITMAP
0380
0C40
0860
1860
1060
1040
30C0
30C0
2180
7300
6C00
4000
C000
C000
8000
ENDCHAR
STARTCHAR 03C2
ENCODING 962
SWIDTH 405 0
DWIDTH 9 0
BBX 8 14 1 -4
BITMAP
0E
33
41
80
80
80
80
80
F0
7C
04
04
78
20
ENDCHAR
STARTCHAR 03C3
ENCODING 963
SWIDTH 495 0
DWIDTH 11 0
BBX 11 10 1 0
BITMAP
03E0
3FC0
7200
6100
C100
C300
8300
8300
8600
7C00
ENDCHAR
STARTCHAR 03C4
ENCODING 964
SWIDTH 360 0
DWIDTH 8 0
BBX 8 10 1 0
BITMAP
3F
FE
90
10
30
20
20
60
68
78
ENDCHAR
STARTCHAR 03C5
ENCODING 965
SWIDTH 450 0
DWIDTH 10 0
BBX 8 10 1 0
BITMAP
24
F3
21
61
61
41
C1
C2
C6
7C
ENDCHAR
STARTCHAR 03C6
ENCODING 966
SWIDTH 540 0
DWIDTH 12 0
BBX 10 15 1 -5
BITMAP
0980
3240
6240
4440
C440
C440
C8C0
8880
C900
5600
3800
1000
3000
2000
2000
ENDCHAR
STARTCHAR 03C7
ENCODING 967
SWIDTH 450 0
DWIDTH 10 0
BBX 12 15 -2 -5
BITMAP
0830
1C30
0460
04C0
0580
0580
0300
0600
0600
0E00
1A00
3200
3200
6140
C180
ENDCHAR
STARTCHAR 03C8
ENCODING 968
SWIDTH 630 0
DWIDTH 14 0
BBX 12 15 2 -5
BITMAP
8210
C420
C460
C440
CCC0
C8C0
8880
8980
9100
5600
3800
2000
2000
2000
4000
ENDCHAR
STARTCHAR 03C9
ENCODING 969
SWIDTH 720 0
DWIDTH 16 0
BBX 14 10 1 0
BITMAP
0C20
3018
6108
630C
C30C
C20C
C218
C418
C630
79E0
ENDCHAR
STARTCHAR 03CA
ENCODING 970
SWIDTH 270 0
DWIDTH 6 0
BBX 7 14 1 1
BITMAP
66
66
00
00
30
70
20
20
60
60
40
C0
D0
E0
ENDCHAR
STARTCHAR 03CB
ENCODING 971
SWIDTH 450 0
DWIDTH 10 0
BBX 8 14 1 1
BITMAP
33
33
00
00
24
F3
21
61
61
41
C1
C2
C6
7C
ENDCHAR
STARTCHAR 03CC
ENCODING 972
SWIDTH 495 0
DWIDTH 11 0
BBX 9 15 1 0
BITMAP
0300
0200
0200
0400
0000
0E00
3180
6180
6180
C180
C180
8180
8300
C600
7C00
ENDCHAR
STARTCHAR 03CD
ENCODING 973
SWIDTH 450 0
DWIDTH 10 0
BBX 8 15 1 0
BITMAP
06
04
08
00
00
24
F3
21
61
61
41
C1
C2
C6
7C
ENDCHAR
STARTCHAR 03CE
ENCODING 974
SWIDTH 720 0
DWIDTH 16 0
BBX 14 15 1 0
BITMAP
0060
00C0
0080
0000
0000
0C20
3018
6108
630C
C30C
C20C
C218
C418
C630
79E0
ENDCHAR
STARTCHAR 0401
ENCODING 1025
SWIDTH 630 0
DWIDTH 14 0
BBX 13 19 1 0
BITMAP
0130
03B0
0000
0000
3FF8
0C18
0C10
0800
1800
1880
1880
3F80
3080
3000
2000
6020
6020
6040
FFC0
ENDCHAR
STARTCHAR 0402
ENCODING 1026
SWIDTH 810 0
DWIDTH 18 0
BBX 15 15 2 0
BITMAP
7FF8
6318
8308
8608
0600
0678
0D9C
0E0E
0C06
0C06
180E
180C
181C
3018
78E0
ENDCHAR
STARTCHAR 0403
ENCODING 1027
SWIDTH 585 0
DWIDTH 13 0
BBX 15 19 0 0
BITMAP
0060
0040
0080
0000
1FFE
0604
0604
0404
0C00
0C00
0C00
1800
1800
1800
3000
3000
3000
3000
F800
ENDCHAR
STARTCHAR 0404
ENCODING 1028
SWIDTH 675 0
DWIDTH 15 0
BBX 14 15 2 0
BITMAP
03E4
0C18
1808
3008
6008
E000
C000
FE00
C000
C000
C000
C000
E020
6040
3F80
ENDCHAR
STARTCHAR 0405
ENCODING 1029
SWIDTH 495 0
DWIDTH 11 0
BBX 12 15 0 0
BITMAP
0790
0C70
1820
1820
1800
0C00
0E00
0700
0380
01C0
40C0
40C0
40C0
4180
BF00
ENDCHAR
STARTCHAR 0406
ENCODING 1030
SWIDTH 315 0
DWIDTH 7 0
BBX 9 15 0 0
BITMAP
1F80
0600
0600
0400
0C00
0C00
0C00
1800
1800
1800
1000
3000
3000
3000
F800
ENDCHAR
STARTCHAR 0407
ENCODING 1031
SWIDTH 315 0
DWIDTH 7 0
BBX 10 19 0 0
BITMAP
0080
0CC0
0C80
0000
1F80
0600
0600
0400
0C00
0C00
0C00
1800
1800
1800
1000
3000
3000
3000
F800
ENDCHAR
STARTCHAR 0408
ENCODING 1032
SWIDTH 450 0
DWIDTH 10 0
BBX 13 15 -1 0
BITMAP
01F8
0060
0060
00C0
00C0
00C0
00C0
0180
0180
0180
0300
0300
E300
C600
7C00
ENDCHAR
STARTCHAR 0409
ENCODING 1033
SWIDTH 945 0
DWIDTH 21 0
BBX 20 15 -1 0
BITMAP
03FFC0
008300
010600
010600
010600
010C00
020C00
020FE0
020C70
041830
041830
041830
483030
E83060
707FC0
ENDCHAR
STARTCHAR 040A
ENCODING 1034
SWIDTH 900 0
DWIDTH 20 0
BBX 19 15 0 0
BITMAP
1F9F80
060E00
060C00
040C00
0C0C00
0C1800
0C1800
1FFFC0
1830E0
183060
103060
303060
3060E0
3060C0
F0FF80
ENDCHAR
STARTCHAR 040B
ENCODING 1035
SWIDTH 810 0
DWIDTH 18 0
BBX 14 15 2 0
BITMAP
7FF8
6318
8308
8608
0600
0678
059C
0E0C
0C0C
0C0C
1808
1818
1818
3018
7838
ENDCHAR
STARTCHAR 040C
ENCODING 1036
SWIDTH 675 0
DWIDTH 15 0
BBX 16 20 0 0
BITMAP
0038
0030
0020
0040
0000
1F87
060F
0612
0410
0C20
0C20
0C40
1F80
1980
18C0
10C0
3060
3060
3030
F838
ENDCHAR
STARTCHAR 040D
ENCODING 1037
SWIDTH 720 0
DWIDTH 16 0
BBX 18 20 0 0
BITMAP
00E000
006000
002000
002000
000000
1F8FC0
060300
060700
060E00
0C1600
0C2600
0C4C00
188C00
190C00
1A0800
141800
3C1800
381800
303000
F07800
ENDCHAR
STARTCHAR 040E
ENCODING 1038
SWIDTH 675 0
DWIDTH 15 0
BBX 15 19 2 0
BITMAP
0610
0630
0360
0080
7C1E
3008
3008
1810
1820
1820
0840
0C40
0C80
0D00
0700
0600
4400
E400
7800
ENDCHAR
STARTCHAR 040F
ENCODING 1039
SWIDTH 720 0
DWIDTH 16 0
BBX 18 19 0 -4
BITMAP
1F8FC0
060300
060300
040600
0C0600
0C0600
0C0C00
180C00
180C00
180800
101800
301800
301800
303000
7FF800
870000
060000
040000
040000
ENDCHAR
STARTCHAR 0410
ENCODING 1040
SWIDTH 630 0
DWIDTH 14 0
BBX 11 15 0 0
BITMAP
0020
0020
0060
00E0
00E0
0160
0260
0460
0460
0FE0
1040
2040
20C0
40C0
E1E0
ENDCHAR
STARTCHAR 0411
ENCODING 1041
SWIDTH 585 0
DWIDTH 13 0
BBX 14 15 0 0
BITMAP
0FFC
060C
0608
0608
0C00
0C00
0C00
1FC0
1860
1830
1030
3030
3060
30E0
FF80
ENDCHAR
STARTCHAR 0412
ENCODING 1042
SWIDTH 630 0
DWIDTH 14 0
BBX 13 15 0 0
BITMAP
1FC0
0630
0618
0418
0C18
0C30
0C60
1FC0
1860
1870
1070
3070
3060
30C0
FF80
ENDCHAR
STARTCHAR 0413
ENCODING 1043
SWIDTH 585 0
DWIDTH 13 0
BBX 15 15 0 0
BITMAP
1FFE
0604
0604
0404
0C00
0C00
0C00
1800
1800
1800
3000
3000
3000
3000
F800
ENDCHAR
STARTCHAR 0414
ENCODING 1044
SWIDTH 630 0
DWIDTH 14 0
BBX 18 18 -2 -4
BITMAP
03FFC0
008300
008300
010600
010600
010600
010400
020C00
020C00
040C00
041800
041800
081800
103800
3FF800
600C00
C00400
800800
ENDCHAR
STARTCHAR 0415
ENCODING 1045
SWIDTH 630 0
DWIDTH 14 0
BBX 13 15 1 0
BITMAP
3FF8
0C18
0C10
0800
1800
1880
1880
3F80
3080
3000
2000
6020
6020
6040
FFC0
ENDCHAR
STARTCHAR 0416
ENCODING 1046
SWIDTH 900 0
DWIDTH 20 0
BBX 22 15 0 0
BITMAP
0C3F18
1E1C3C
0A1848
021840
021880
023080
023100
01FE00
073600
0E6300
1C6300
186180
30C180
60C1C0
C1E0E0
ENDCHAR
STARTCHAR 0417
ENCODING 1047
SWIDTH 495 0
DWIDTH 11 0
BBX 11 15 0 0
BITMAP
0FC0
18E0
1060
0060
00E0
00C0
0180
0F00
0180
01C0
00C0
01C0
0180
0300
FE00
ENDCHAR
STARTCHAR 0418
ENCODING 1048
SWIDTH 720 0
DWIDTH 16 0
BBX 18 15 0 0
BITMAP
1F8FC0
060300
060700
060E00
0C1600
0C2600
0C4C00
188C00
190C00
1A0800
141800
3C1800
381800
303000
F07800
ENDCHAR
STARTCHAR 0419
ENCODING 1049
SWIDTH 720 0
DWIDTH 16 0
BBX 18 19 0 0
BITMAP
00C200
00C600
006C00
001000
1F8FC0
060300
060700
060E00
0C1600
0C2600
0C4C00
188C00
190C00
1A0800
141800
3C1800
381800
303000
F07800
ENDCHAR
STARTCHAR 041A
ENCODING 1050
SWIDTH 675 0
DWIDTH 15 0
BBX 16 15 0 0
BITMAP
1F87
060F
0612
0410
0C20
0C20
0C40
1F80
1980
18C0
10C0
3060
3060
3030
F838
ENDCHAR
STARTCHAR 041B
ENCODING 1051
SWIDTH 675 0
DWIDTH 15 0
BBX 18 15 -1 0
BITMAP
03FFC0
008300
010300
010600
010600
010600
020C00
020C00
020C00
040800
041800
041800
481800
C83000
707800
ENDCHAR
STARTCHAR 041C
ENCODING 1052
SWIDTH 855 0
DWIDTH 19 0
BBX 21 15 0 0
BITMAP
1E0078
0600C0
0601C0
0A01C0
0B0380
0B0580
130980
130980
131300
132300
232300
234600
218600
210600
E11F00
ENDCHAR
STARTCHAR 041D
ENCODING 1053
SWIDTH 720 0
DWIDTH 16 0
BBX 18 15 0 0
BITMAP
1F8FC0
060300
060200
040600
0C0600
0C0600
0C0C00
1FFC00
180C00
180800
301800
301800
301800
303000
F07800
ENDCHAR
STARTCHAR 041E
ENCODING 1054
SWIDTH 720 0
DWIDTH 16 0
BBX 15 15 1 0
BITMAP
01F0
060C
0C0C
1806
3006
3006
6006
600E
E00C
E00C
E018
E038
6030
6060
3F80
ENDCHAR
STARTCHAR 041F
ENCODING 1055
SWIDTH 720 0
DWIDTH 16 0
BBX 18 15 0 0
BITMAP
1FFFC0
060300
060300
060600
0C0600
0C0600
0C0C00
180C00
180C00
180800
101800
301800
301800
303000
F07800
ENDCHAR
STARTCHAR 0420
ENCODING 1056
SWIDTH 630 0
DWIDTH 14 0
BBX 14 15 0 0
BITMAP
1FE0
0618
060C
060C
0C0C
0C18
0C38
1FE0
1800
1800
1800
3000
3000
3000
F800
ENDCHAR
STARTCHAR 0421
ENCODING 1057
SWIDTH 675 0
DWIDTH 15 0
BBX 14 15 1 0
BITMAP
01F4
060C
0C04
1804
3004
7000
6000
6000
6000
E000
6000
6000
7010
3020
1FC0
ENDCHAR
STARTCHAR 0422
ENCODING 1058
SWIDTH 540 0
DWIDTH 12 0
BBX 12 15 2 0
BITMAP
7FF0
6610
8610
8600
0600
0C00
0C00
0C00
1800
1800
1800
1800
3000
3000
7800
ENDCHAR
STARTCHAR 0423
ENCODING 1059
SWIDTH 675 0
DWIDTH 15 0
BBX 15 15 2 0
BITMAP
7C1E
3008
3008
1810
1820
1820
0840
0C40
0C80
0D00
0700
0600
4400
E400
7800
ENDCHAR
STARTCHAR 0424
ENCODING 1060
SWIDTH 810 0
DWIDTH 18 0
BBX 16 15 2 0
BITMAP
01F0
00E0
00C0
1FFC
3086
6186
C183
C187
C306
C30E
C30C
6638
3FC0
0600
0F00
ENDCHAR
STARTCHAR 0425
ENCODING 1061
SWIDTH 630 0
DWIDTH 14 0
BBX 17 15 -1 0
BITMAP
0FCF80
030200
030400
010800
019000
01A000
01C000
00C000
01C000
02C000
044000
086000
106000
206000
F07800
ENDCHAR
STARTCHAR 0426
ENCODING 1062
SWIDTH 720 0
DWIDTH 16 0
BBX 18 19 0 -4
BITMAP
1F8FC0
060300
060300
060600
0C0600
0C0600
0C0C00
180C00
180C00
180800
101800
301800
301800
303000
7FF800
800C00
000C00
000800
000800
ENDCHAR
STARTCHAR 0427
ENCODING 1063
SWIDTH 675 0
DWIDTH 15 0
BBX 14 15 3 0
BITMAP
F8FC
6030
6030
6020
4060
C060
C060
C0C0
7FC0
00C0
0080
0180
0180
0180
0780
ENDCHAR
STARTCHAR 0428
ENCODING 1064
SWIDTH 1035 0
DWIDTH 23 0
BBX 24 15 1 0
BITMAP
1F1F1F
0C0C0C
0C0C0C
0C1818
181818
181818
181810
303030
303030
303030
206060
606060
606060
60E0C0
FFFFE0
ENDCHAR
STARTCHAR 0429
ENCODING 1065
SWIDTH 1035 0
DWIDTH 23 0
BBX 24 18 1 -4
BITMAP
1F1F1F
0C0C0C
0C0C0C
0C1818
181818
181818
181810
303030
303030
303030
206060
606060
606060
60E0E0
FFFFE0
000030
000010
000020
ENDCHAR
STARTCHAR 042A
ENCODING 1066
SWIDTH 675 0
DWIDTH 15 0
BBX 12 15 2 0
BITMAP
7F80
4600
8600
8400
0C00
0C00
0C00
1FC0
1860
1870
3030
3030
3060
70E0
FF80
ENDCHAR
STARTCHAR 042B
ENCODING 1067
SWIDTH 855 0
DWIDTH 19 0
BBX 21 15 0 0
BITMAP
0F80F8
060060
060060
060060
0C00C0
0C00C0
0C00C0
1FC080
186180
183180
103180
303300
306300
30E300
FF8F80
ENDCHAR
STARTCHAR 042C
ENCODING 1068
SWIDTH 585 0
DWIDTH 13 0
BBX 12 15 0 0
BITMAP
0F80
0600
0600
0600
0C00
0C00
0C00
1FC0
1860
1830
1030
3030
3060
30E0
FF80
ENDCHAR
STARTCHAR 042D
ENCODING 1069
SWIDTH 675 0
DWIDTH 15 0
BBX 13 15 1 0
BITMAP
2FC0
3070
2030
4018
0018
0018
0018
03F8
0018
0038
0030
0030
8060
40C0
3F00
ENDCHAR
STARTCHAR 042E
ENCODING 1070
SWIDTH 1035 0
DWIDTH 23 0
BBX 23 15 0 0
BITMAP
1F81F0
06060C
060C0C
041806
0C3006
0C3006
0C600E
1FE00E
18E00C
18E01C
10C018
30E038
306030
306060
F03F80
ENDCHAR
STARTCHAR 042F
ENCODING 1071
SWIDTH 675 0
DWIDTH 15 0
BBX 18 15 -1 0
BITMAP
007FC0
018700
030600
060600
060400
060C00
030C00
00FC00
039800
071800
061800
0C1000
183000
303000
E07800
ENDCHAR
STARTCHAR 0430
ENCODING 1072
SWIDTH 495 0
DWIDTH 11 0
BBX 9 10 1 0
BITMAP
0E80
1180
2180
4100
C100
C300
8300
8E00
CE80
F700
ENDCHAR
STARTCHAR 0431
ENCODING 1073
SWIDTH 495 0
DWIDTH 11 0
BBX 10 15 1 0
BITMAP
01C0
0F80
1800
2000
2000
4F00
5180
A080
E080
C180
C180
C180
8300
C200
7C00
ENDCHAR
STARTCHAR 0432
ENCODING 1074
SWIDTH 450 0
DWIDTH 10 0
BBX 8 10 1 0
BITMAP
0F
31
61
62
CC
F6
86
86
86
7C
ENDCHAR
STARTCHAR 0433
ENCODING 1075
SWIDTH 405 0
DWIDTH 9 0
BBX 8 10 0 0
BITMAP
0E
31
01
03
04
18
60
C0
C0
7E
ENDCHAR
STARTCHAR 0434
ENCODING 1076
SWIDTH 495 0
DWIDTH 11 0
BBX 10 15 1 0
BITMAP
0C00
0200
0100
0180
0080
0E80
3180
61C0
6180
C180
C180
8180
8300
C600
7C00
ENDCHAR
STARTCHAR 0435
ENCODING 1077
SWIDTH 450 0
DWIDTH 10 0
BBX 9 10 1 0
BITMAP
0F00
1180
2100
4300
C600
F800
C000
C100
C200
7C00
ENDCHAR
STARTCHAR 0436
ENCODING 1078
SWIDTH 945 0
DWIDTH 21 0
BBX 21 10 0 0
BITMAP
0E1070
373190
433318
033600
032600
03FC00
026C00
C64400
CC4620
F8C7C0
ENDCHAR
STARTCHAR 0437
ENCODING 1079
SWIDTH 405 0
DWIDTH 9 0
BBX 8 10 0 0
BITMAP
2E
33
03
03
1C
04
06
06
06
FC
ENDCHAR
STARTCHAR 0438
ENCODING 1080
SWIDTH 495 0
DWIDTH 11 0
BBX 9 10 1 0
BITMAP
2080
F180
2180
6180
6300
4300
C700
CA00
D280
E700
ENDCHAR
STARTCHAR 0439
ENCODING 1081
SWIDTH 495 0
DWIDTH 11 0
BBX 9 15 1 0
BITMAP
0800
0C80
0700
0000
0000
2080
F180
2180
6180
6300
4300
C700
CA00
D280
E700
ENDCHAR
STARTCHAR 043A
ENCODING 1082
SWIDTH 450 0
DWIDTH 10 0
BBX 9 10 1 0
BITMAP
3180
7380
2400
6400
6800
5800
CC00
C400
8600
8300
ENDCHAR
STARTCHAR 043B
ENCODING 1083
SWIDTH 450 0
DWIDTH 10 0
BBX 10 10 -1 0
BITMAP
0FC0
04C0
0880
0980
0980
1100
1100
1300
2380
C300
ENDCHAR
STARTCHAR 043C
ENCODING 1084
SWIDTH 630 0
DWIDTH 14 0
BBX 14 10 -1 0
BITMAP
0604
0E0C
0A1C
0A2C
0A28
1258
1398
1390
2314
E238
ENDCHAR
STARTCHAR 043D
ENCODING 1085
SWIDTH 495 0
DWIDTH 11 0
BBX 9 10 1 0
BITMAP
3080
7180
2180
6100
6300
5F00
C200
C200
C680
8700
ENDCHAR
STARTCHAR 043E
ENCODING 1086
SWIDTH 495 0
DWIDTH 11 0
BBX 9 10 1 0
BITMAP
0E00
3180
6180
6180
C180
C180
8180
8300
C600
7C00
ENDCHAR
STARTCHAR 043F
ENCODING 1087
SWIDTH 495 0
DWIDTH 11 0
BBX 9 10 1 0
BITMAP
3300
7580
2980
7100
6100
6300
C300
C200
8680
8700
ENDCHAR
STARTCHAR 0440
ENCODING 1088
SWIDTH 495 0
DWIDTH 11 0
BBX 12 15 -2 -5
BITMAP
0660
0FB0
0610
0C10
0C30
0830
1820
1860
10C0
1980
3600
3000
2000
6000
F800
ENDCHAR
STARTCHAR 0441
ENCODING 1089
SWIDTH 450 0
DWIDTH 10 0
BBX 8 10 1 0
BITMAP
0F
11
61
40
C0
C0
80
80
C2
7C
ENDCHAR
STARTCHAR 0442
ENCODING 1090
SWIDTH 720 0
DWIDTH 16 0
BBX 14 10 1 0
BITMAP
3318
672C
294C
7388
6398
6318
C210
C610
8634
8438
ENDCHAR
STARTCHAR 0443
ENCODING 1091
SWIDTH 450 0
DWIDTH 10 0
BBX 12 15 -2 -5
BITMAP
0C20
1C30
0410
0420
0420
0640
0680
0680
0700
0600
0400
0800
1000
E000
C000
ENDCHAR
STARTCHAR 0444
ENCODING 1092
SWIDTH 720 0
DWIDTH 16 0
BBX 14 20 1 -5
BITMAP
01C0
00C0
00C0
00C0
0080
0DB0
33C8
618C
630C
C30C
C20C
8218
8618
8630
5D60
2C80
0C00
0800
1800
3E00
ENDCHAR
STARTCHAR 0445
ENCODING 1093
SWIDTH 450 0
DWIDTH 10 0
BBX 11 10 -1 0
BITMAP
1860
0CE0
0D00
0600
0600
0600
0E00
1200
1380
E380
ENDCHAR
STARTCHAR 0446
ENCODING 1094
SWIDTH 495 0
DWIDTH 11 0
BBX 9 14 1 -4
BITMAP
2080
F180
2180
6180
6300
4300
C700
CA00
D280
E700
0200
0200
0200
0600
ENDCHAR
STARTCHAR 0447
ENCODING 1095
SWIDTH 495 0
DWIDTH 11 0
BBX 8 10 2 0
BITMAP
C3
C3
C2
C6
86
8C
7C
0C
0E
0C
ENDCHAR
STARTCHAR 0448
ENCODING 1096
SWIDTH 765 0
DWIDTH 17 0
BBX 15 10 1 0
BITMAP
20C6
F086
2186
618C
630C
631C
4728
CA38
D25A
E39C
ENDCHAR
STARTCHAR 0449
ENCODING 1097
SWIDTH 765 0
DWIDTH 17 0
BBX 15 14 1 -4
BITMAP
20C6
F086
2186
618C
630C
631C
4728
CA38
D25A
E39C
0008
0008
0008
0010
ENDCHAR
STARTCHAR 044A
ENCODING 1098
SWIDTH 540 0
DWIDTH 12 0
BBX 9 10 1 0
BITMAP
F800
F800
1800
1000
3780
3980
2080
2180
2180
3E00
ENDCHAR
STARTCHAR 044B
ENCODING 1099
SWIDTH 675 0
DWIDTH 15 0
BBX 13 10 1 0
BITMAP
3018
6038
2010
6030
7E30
6320
C360
C360
C270
7C60
ENDCHAR
STARTCHAR 044C
ENCODING 1100
SWIDTH 450 0
DWIDTH 10 0
BBX 8 10 1 0
BITMAP
30
60
20
60
7E
63
C3
C3
C2
7C
ENDCHAR
STARTCHAR 044D
ENCODING 1101
SWIDTH 450 0
DWIDTH 10 0
BBX 9 10 0 0
BITMAP
2E00
3300
4180
0180
0180
0F80
0300
8300
8600
7C00
ENDCHAR
STARTCHAR 044E
ENCODING 1102
SWIDTH 720 0
DWIDTH 16 0
BBX 14 10 1 0
BITMAP
3070
7188
230C
660C
660C
5C0C
CC18
CC18
C430
87C0
ENDCHAR
STARTCHAR 044F
ENCODING 1103
SWIDTH 450 0
DWIDTH 10 0
BBX 11 10 -1 0
BITMAP
07E0
1840
18C0
18C0
1880
0F80
1980
3180
3140
E380
ENDCHAR
STARTCHAR 0451
ENCODING 1105
SWIDTH 450 0
DWIDTH 10 0
BBX 9 15 1 0
BITMAP
0880
1D80
0980
0000
0000
0F00
1180
2100
4300
C600
F800
C000
C100
C200
7C00
ENDCHAR
STARTCHAR 0452
ENCODING 1106
SWIDTH 495 0
DWIDTH 11 0
BBX 9 20 1 -5
BITMAP
3800
1800
3F00
1000
3000
3300
3580
2980
7180
6100
6300
C300
C200
C600
8600
0400
0800
1000
2000
4000
ENDCHAR
STARTCHAR 0453
ENCODING 1107
SWIDTH 360 0
DWIDTH 8 0
BBX 9 15 0 0
BITMAP
0300
0200
0200
0400
0000
3F80
1880
1000
3000
3000
2000
6000
6000
6000
E000
ENDCHAR
STARTCHAR 0454
ENCODING 1108
SWIDTH 450 0
DWIDTH 10 0
BBX 9 10 1 0
BITMAP
0F80
1180
6100
4000
C000
F800
8000
8000
C200
7C00
ENDCHAR
STARTCHAR 0455
ENCODING 1109
SWIDTH 405 0
DWIDTH 9 0
BBX 8 10 0 0
BITMAP
1D
33
31
30
18
1C
0C
86
84
FC
ENDCHAR
STARTCHAR 0456
ENCODING 1110
SWIDTH 270 0
DWIDTH 6 0
BBX 5 14 1 0
BITMAP
18
18
00
00
30
70
20
20
60
60
40
C0
D0
E0
ENDCHAR
STARTCHAR 0457
ENCODING 1111
SWIDTH 270 0
DWIDTH 6 0
BBX 7 14 1 1
BITMAP
66
66
00
00
30
70
20
20
60
60
40
C0
D0
E0
ENDCHAR
STARTCHAR 0458
ENCODING 1112
SWIDTH 270 0
DWIDTH 6 0
BBX 10 19 -4 -5
BITMAP
00C0
00C0
0000
0000
0080
0180
0180
0100
0300
0300
0200
0600
0600
0600
0400
0C00
0800
D800
6000
ENDCHAR
STARTCHAR 0459
ENCODING 1113
SWIDTH 675 0
DWIDTH 15 0
BBX 15 10 -1 0
BITMAP
00E0
0340
04C0
08C0
08FC
10C6
1186
1186
218C
E0F8
ENDCHAR
STARTCHAR 045A
ENCODING 1114
SWIDTH 720 0
DWIDTH 16 0
BBX 14 10 1 0
BITMAP
3080
7180
2180
6180
6178
5F8C
C30C
C208
8218
81F0
ENDCHAR
STARTCHAR 045B
ENCODING 1115
SWIDTH 495 0
DWIDTH 11 0
BBX 9 15 1 0
BITMAP
3800
1800
7F00
1000
3000
3100
3780
2980
7180
6100
6300
C300
C200
C680
8700
ENDCHAR
STARTCHAR 045C
ENCODING 1116
SWIDTH 450 0
DWIDTH 10 0
BBX 9 15 1 0
BITMAP
0300
0200
0400
0000
0000
3180
7380
2400
6400
6800
5800
CC00
C400
8600
8300
ENDCHAR
STARTCHAR 045D
ENCODING 1117
SWIDTH 495 0
DWIDTH 11 0
BBX 9 15 1 0
BITMAP
0C00
0400
0200
0000
0000
2080
F180
2180
6180
6300
4300
C700
CA00
D280
E700
ENDCHAR
STARTCHAR 045E
ENCODING 1118
SWIDTH 450 0
DWIDTH 10 0
BBX 12 20 -2 -5
BITMAP
0310
0320
01C0
0000
0000
0C20
1C30
0410
0420
0420
0640
0680
0680
0700
0600
0400
0800
1000
E000
C000
ENDCHAR
STARTCHAR 045F
ENCODING 1119
SWIDTH 495 0
DWIDTH 11 0
BBX 9 14 1 -4
BITMAP
2080
F180
2180
6180
6300
4300
C700
CA00
D280
E700
4000
4000
4000
8000
ENDCHAR
STARTCHAR 0490
ENCODING 1168
SWIDTH 450 0
DWIDTH 10 0
BBX 13 17 0 1
BITMAP
0008
0010
1FF0
0600
0600
0600
0C00
0C00
0C00
1800
1800
1800
1000
3000
3000
3000
F000
ENDCHAR
STARTCHAR 0491
ENCODING 1169
SWIDTH 315 0
DWIDTH 7 0
BBX 7 11 1 1
BITMAP
02
FE
30
20
20
60
60
40
C0
D0
E0
ENDCHAR
STARTCHAR 0492
ENCODING 1170
SWIDTH 585 0
DWIDTH 13 0
BBX 15 15 0 0
BITMAP
1FFE
0604
0604
0404
0C00
0C00
0C00
7F80
1800
1800
3000
3000
3000
3000
F800
ENDCHAR
STARTCHAR 0493
ENCODING 1171
SWIDTH 405 0
DWIDTH 9 0
BBX 9 10 0 0
BITMAP
0E00
3100
0180
1300
0C00
1800
6400
C000
C000
FE00
ENDCHAR
STARTCHAR 0496
ENCODING 1174
SWIDTH 900 0
DWIDTH 20 0
BBX 23 19 -1 -4
BITMAP
061F8C
0F0E1E
050C24
010C20
010C40
011840
011880
00FF00
039B00
073180
0E3180
0C30C0
1860C0
3060E0
E0F070
000030
000010
000020
000020
ENDCHAR
STARTCHAR 0497
ENCODING 1175
SWIDTH 945 0
DWIDTH 21 0
BBX 21 14 0 -4
BITMAP
0E1070
373190
433318
033600
032600
03FC00
026C00
C64400
C44620
98C7C0
600040
000080
000080
000180
ENDCHAR
STARTCHAR 049A
ENCODING 1178
SWIDTH 675 0
DWIDTH 15 0
BBX 16 19 0 -4
BITMAP
1F87
060F
0610
0410
0C20
0C20
0C40
1F80
1980
18C0
10C0
3060
3060
3030
F838
0018
0008
0008
0008
ENDCHAR
STARTCHAR 049B
ENCODING 1179
SWIDTH 450 0
DWIDTH 10 0
BBX 9 14 1 -4
BITMAP
3180
7380
2400
6400
6800
5800
CC00
CC00
8680
8300
0200
0200
0200
0600
ENDCHAR
STARTCHAR 049C
ENCODING 1180
SWIDTH 675 0
DWIDTH 15 0
BBX 16 15 0 0
BITMAP
1F87
060F
0610
0490
0CA0
0CA0
0D40
1F80
1980
1AC0
12C0
3260
3060
3030
F838
ENDCHAR
STARTCHAR 049D
ENCODING 1181
SWIDTH 450 0
DWIDTH 10 0
BBX 9 10 1 0
BITMAP
3180
7380
2C00
6C00
6800
5800
DC00
D400
A600
8300
ENDCHAR
STARTCHAR 04A2
ENCODING 1186
SWIDTH 720 0
DWIDTH 16 0
BBX 18 19 0 -4
BITMAP
1F8FC0
060300
060200
040600
0C0600
0C0600
0C0C00
1FFC00
180C00
180800
301800
301800
301800
303000
707800
800C00
000800
000800
000800
ENDCHAR
STARTCHAR 04A3
ENCODING 1187
SWIDTH 495 0
DWIDTH 11 0
BBX 9 14 1 -4
BITMAP
3080
7180
2180
6100
6300
5F00
C200
C200
C680
8700
0200
0200
0200
0400
ENDCHAR
STARTCHAR 04AE
ENCODING 1198
SWIDTH 540 0
DWIDTH 12 0
BBX 12 15 3 0
BITMAP
F9F0
6040
6080
3100
3100
3200
1C00
1800
1800
1800
3000
3000
3000
6000
F000
ENDCHAR
STARTCHAR 04AF
ENCODING 1199
SWIDTH 495 0
DWIDTH 11 0
BBX 12 15 0 -5
BITMAP
3C70
1040
1840
1880
1900
1900
1A00
1C00
1C00
1800
1800
1000
1000
3000
F800
ENDCHAR
STARTCHAR 04B0
ENCODING 1200
SWIDTH 540 0
DWIDTH 12 0
BBX 13 15 2 0
BITMAP
7CF8
3020
3040
1880
1880
1900
0E00
0C00
FFC0
0C00
1800
1800
1800
3000
7800
ENDCHAR
STARTCHAR 04B1
ENCODING 1201
SWIDTH 495 0
DWIDTH 11 0
BBX 12 15 0 -5
BITMAP
3C70
1040
1840
1880
1900
1900
1A00
1C00
1C00
FF80
1800
1000
1000
3000
F800
ENDCHAR
STARTCHAR 04B2
ENCODING 1202
SWIDTH 630 0
DWIDTH 14 0
BBX 17 19 -1 -4
BITMAP
0FCF80
030200
030400
010800
019000
01A000
01C000
00C000
01C000
02C000
044000
086000
106000
206000
F07800
001800
000800
000800
001000
ENDCHAR
STARTCHAR 04B3
ENCODING 1203
SWIDTH 450 0
DWIDTH 10 0
BBX 11 14 -1 -4
BITMAP
1860
0CE0
0D00
0600
0600
0600
0E00
1200
1380
E380
0100
0300
0300
0200
ENDCHAR
STARTCHAR 04B8
ENCODING 1208
SWIDTH 675 0
DWIDTH 15 0
BBX 14 15 3 0
BITMAP
F8FC
6030
6030
6220
4460
C460
C460
C4C0
7FC0
08C0
0880
1180
0180
0180
0780
ENDCHAR
STARTCHAR 04B9
ENCODING 1209
SWIDTH 495 0
DWIDTH 11 0
BBX 8 10 2 0
BITMAP
C3
C3
D2
D6
96
AC
7C
2C
0E
0C
ENDCHAR
STARTCHAR 04BA
ENCODING 1210
SWIDTH 675 0
DWIDTH 15 0
BBX 13 15 0 0
BITMAP
1F80
0600
0600
0C00
0C00
0C00
09F0
1E18
1818
1818
3018
3018
3010
7030
F078
ENDCHAR
STARTCHAR 04BB
ENCODING 1211
SWIDTH 495 0
DWIDTH 11 0
BBX 9 15 1 0
BITMAP
3800
1800
1800
1000
3000
3300
3780
2980
7180
7100
6300
C300
C200
C680
8700
ENDCHAR
STARTCHAR 04D8
ENCODING 1240
SWIDTH 675 0
DWIDTH 15 0
BBX 14 15 1 0
BITMAP
13E0
1C38
1018
200C
000C
000C
000C
7FFC
E00C
E00C
E018
E018
6030
6060
3F80
ENDCHAR
STARTCHAR 04D9
ENCODING 1241
SWIDTH 450 0
DWIDTH 10 0
BBX 9 10 0 0
BITMAP
0E00
3380
4180
0180
0180
1F80
6100
4300
C600
7800
ENDCHAR
STARTCHAR 04E8
ENCODING 1256
SWIDTH 720 0
DWIDTH 16 0
BBX 15 15 1 0
BITMAP
01F0
060C
0C0C
1806
3006
3006
6006
7FFE
E00C
E00C
E018
E038
6030
6060
3F80
ENDCHAR
STARTCHAR 04E9
ENCODING 1257
SWIDTH 495 0
DWIDTH 11 0
BBX 9 10 1 0
BITMAP
0E00
3180
6180
6180
C180
FF80
8180
8300
C600
7C00
ENDCHAR
STARTCHAR 05B0
ENCODING 1456
SWIDTH 315 0
DWIDTH 7 0
BBX 1 4 1 -6
BITMAP
80
00
80
80
ENDCHAR
STARTCHAR 05B1
ENCODING 1457
SWIDTH 315 0
DWIDTH 7 0
BBX 7 4 -2 -6
BITMAP
D6
00
66
66
ENDCHAR
STARTCHAR 05B2
ENCODING 1458
SWIDTH 315 0
DWIDTH 7 0
BBX 7 4 -2 -6
BITMAP
F6
00
04
04
ENDCHAR
STARTCHAR 05B3
ENCODING 1459
SWIDTH 315 0
DWIDTH 7 0
BBX 7 4 -2 -6
BITMAP
F6
20
66
06
ENDCHAR
STARTCHAR 05B4
ENCODING 1460
SWIDTH 315 0
DWIDTH 7 0
BBX 1 1 1 -3
BITMAP
80
ENDCHAR
STARTCHAR 05B5
ENCODING 1461
SWIDTH 315 0
DWIDTH 7 0
BBX 5 1 -1 -3
BITMAP
D8
ENDCHAR
STARTCHAR 05B6
ENCODING 1462
SWIDTH 315 0
DWIDTH 7 0
BBX 5 4 -1 -6
BITMAP
D8
00
20
20
ENDCHAR
STARTCHAR 05B7
ENCODING 1463
SWIDTH 315 0
DWIDTH 7 0
BBX 5 1 -1 -3
BITMAP
F8
ENDCHAR
STARTCHAR 05B8
ENCODING 1464
SWIDTH 315 0
DWIDTH 7 0
BBX 5 3 -1 -5
BITMAP
F8
20
20
ENDCHAR
STARTCHAR 05B9
ENCODING 1465
SWIDTH 315 0
DWIDTH 7 0
BBX 2 2 5 13
BITMAP
C0
C0
ENDCHAR
STARTCHAR 05BA
ENCODING 1466
SWIDTH 315 0
DWIDTH 7 0
BBX 2 2 5 13
BITMAP
C0
C0
ENDCHAR
STARTCHAR 05BB
ENCODING 1467
SWIDTH 315 0
DWIDTH 7 0
BBX 7 4 -2 -6
BITMAP
C0
10
16
06
ENDCHAR
STARTCHAR 05BC
ENCODING 1468
SWIDTH 315 0
DWIDTH 7 0
BBX 2 1 3 5
BITMAP
C0
ENDCHAR
STARTCHAR 05BD
ENCODING 1469
SWIDTH 315 0
DWIDTH 7 0
BBX 1 3 1 -5
BITMAP
80
80
80
ENDCHAR
STARTCHAR 05BE
ENCODING 1470
SWIDTH 360 0
DWIDTH 8 0
BBX 6 2 3 9
BITMAP
FC
FC
ENDCHAR
STARTCHAR 05BF
ENCODING 1471
SWIDTH 315 0
DWIDTH 7 0
BBX 4 1 4 13
BITMAP
F0
ENDCHAR
STARTCHAR 05C0
ENCODING 1472
SWIDTH 315 0
DWIDTH 7 0
BBX 6 14 1 -1
BITMAP
0C
08
18
18
10
30
30
30
20
60
60
40
C0
C0
ENDCHAR
STARTCHAR 05C1
ENCODING 1473
SWIDTH 360 0
DWIDTH 8 0
BBX 1 2 10 13
BITMAP
80
80
ENDCHAR
STARTCHAR 05C2
ENCODING 1474
SWIDTH 360 0
DWIDTH 8 0
BBX 1 2 1 13
BITMAP
80
80
ENDCHAR
STARTCHAR 05C3
ENCODING 1475
SWIDTH 315 0
DWIDTH 7 0
BBX 5 12 1 0
BITMAP
08
18
08
00
00
00
00
00
00
00
40
C0
ENDCHAR
STARTCHAR 05D0
ENCODING 1488
SWIDTH 495 0
DWIDTH 11 0
BBX 11 12 0 0
BITMAP
1080
31E0
38E0
1880
1D00
2F00
4700
4300
4380
6180
6180
C100
ENDCHAR
STARTCHAR 05D1
ENCODING 1489
SWIDTH 450 0
DWIDTH 10 0
BBX 9 12 0 0
BITMAP
3000
3F80
3F80
0080
0080
0080
0100
0100
0100
0200
FF00
FF00
ENDCHAR
STARTCHAR 05D2
ENCODING 1490
SWIDTH 315 0
DWIDTH 7 0
BBX 8 12 -1 0
BITMAP
0C
0E
0F
02
02
04
04
04
04
0C
76
E4
ENDCHAR
STARTCHAR 05D3
ENCODING 1491
SWIDTH 405 0
DWIDTH 9 0
BBX 8 12 2 0
BITMAP
C0
FF
FF
04
08
08
08
18
10
10
10
20
ENDCHAR
STARTCHAR 05D4
ENCODING 1492
SWIDTH 495 0
DWIDTH 11 0
BBX 11 12 0 0
BITMAP
1000
3FE0
1FE0
0040
0080
0080
2080
6080
4180
4100
C100
8100
ENDCHAR
STARTCHAR 05D5
ENCODING 1493
SWIDTH 270 0
DWIDTH 6 0
BBX 4 12 2 0
BITMAP
C0
F0
70
30
20
20
20
40
40
40
80
80
ENDCHAR
STARTCHAR 05D6
ENCODING 1494
SWIDTH 270 0
DWIDTH 6 0
BBX 5 12 1 0
BITMAP
60
78
38
20
20
40
40
40
40
40
C0
80
ENDCHAR
STARTCHAR 05D7
ENCODING 1495
SWIDTH 450 0
DWIDTH 10 0
BBX 11 12 0 0
BITMAP
1000
3FE0
1FC0
1040
2080
2080
2080
2180
6180
4100
4100
8300
ENDCHAR
STARTCHAR 05D8
ENCODING 1496
SWIDTH 495 0
DWIDTH 11 0
BBX 9 12 1 0
BITMAP
6080
7380
7780
2480
4880
4080
4080
8100
8100
8200
FE00
FC00
ENDCHAR
STARTCHAR 05D9
ENCODING 1497
SWIDTH 225 0
DWIDTH 5 0
BBX 4 7 2 5
BITMAP
C0
E0
70
30
20
20
40
ENDCHAR
STARTCHAR 05DA
ENCODING 1498
SWIDTH 450 0
DWIDTH 10 0
BBX 8 15 2 -4
BITMAP
C0
FF
FF
02
02
04
04
04
04
08
08
08
08
10
10
ENDCHAR
STARTCHAR 05DB
ENCODING 1499
SWIDTH 405 0
DWIDTH 9 0
BBX 9 12 0 0
BITMAP
3000
3F00
3F80
0180
0080
0100
0100
0100
0200
0600
FC00
F800
ENDCHAR
STARTCHAR 05DC
ENCODING 1500
SWIDTH 450 0
DWIDTH 10 0
BBX 8 16 2 1
BITMAP
C0
40
40
80
C0
FE
7F
02
02
02
04
08
10
20
20
20
ENDCHAR
STARTCHAR 05DD
ENCODING 1501
SWIDTH 495 0
DWIDTH 11 0
BBX 10 12 0 0
BITMAP
1000
3FC0
3FC0
1040
2040
2040
4080
4080
4080
8100
FF00
FF00
ENDCHAR
STARTCHAR 05DE
ENCODING 1502
SWIDTH 450 0
DWIDTH 10 0
BBX 10 12 0 0
BITMAP
3000
3980
3BC0
0CC0
1040
1040
2040
4080
4080
8100
9F00
BE00
ENDCHAR
STARTCHAR 05DF
ENCODING 1503
SWIDTH 270 0
DWIDTH 6 0
BBX 5 16 1 -4
BITMAP
60
78
38
10
10
10
20
20
20
20
40
40
40
C0
80
80
ENDCHAR
STARTCHAR 05E0
ENCODING 1504
SWIDTH 270 0
DWIDTH 6 0
BBX 7 12 -1 0
BITMAP
08
1E
0E
06
04
04
04
08
08
08
78
F8
ENDCHAR
STARTCHAR 05E1
ENCODING 1505
SWIDTH 450 0
DWIDTH 10 0
BBX 9 12 1 0
BITMAP
6000
7F00
7F80
2180
4080
8100
8100
8100
8100
C200
7E00
7C00
ENDCHAR
STARTCHAR 05E2
ENCODING 1506
SWIDTH 450 0
DWIDTH 10 0
BBX 10 12 0 -1
BITMAP
3080
39C0
3CC0
1040
1080
1100
1900
0A00
1200
1600
7C00
F800
ENDCHAR
STARTCHAR 05E3
ENCODING 1507
SWIDTH 450 0
DWIDTH 10 0
BBX 8 16 1 -4
BITMAP
20
7F
3F
41
41
C1
E2
02
02
02
04
04
04
0C
08
08
ENDCHAR
STARTCHAR 05E4
ENCODING 1508
SWIDTH 450 0
DWIDTH 10 0
BBX 9 12 0 0
BITMAP
1000
3F80
1F80
2080
2080
7080
7080
0100
0100
0200
7E00
FC00
ENDCHAR
STARTCHAR 05E5
ENCODING 1509
SWIDTH 450 0
DWIDTH 10 0
BBX 8 15 2 -4
BITMAP
C4
E7
67
22
24
28
30
10
30
20
20
20
60
40
40
ENDCHAR
STARTCHAR 05E6
ENCODING 1510
SWIDTH 450 0
DWIDTH 10 0
BBX 11 12 0 0
BITMAP
3180
39C0
18E0
0880
1100
0A00
0E00
0600
0600
0300
7F00
FE00
ENDCHAR
STARTCHAR 05E7
ENCODING 1511
SWIDTH 450 0
DWIDTH 10 0
BBX 11 15 -1 -4
BITMAP
0800
1FE0
1FE0
0020
0020
1040
2040
2080
2300
4400
4C00
4800
4000
8000
8000
ENDCHAR
STARTCHAR 05E8
ENCODING 1512
SWIDTH 450 0
DWIDTH 10 0
BBX 8 12 2 0
BITMAP
C0
FE
FF
02
02
02
02
04
04
04
04
08
ENDCHAR
STARTCHAR 05E9
ENCODING 1513
SWIDTH 630 0
DWIDTH 14 0
BBX 12 12 2 0
BITMAP
C420
E770
6730
4410
8420
8840
8880
9080
A100
A100
FE00
FE00
ENDCHAR
STARTCHAR 05EA
ENCODING 1514
SWIDTH 495 0
DWIDTH 11 0
BBX 11 12 -1 0
BITMAP
0800
0FE0
0FE0
0420
0820
1020
1040
1040
1040
1040
7080
E080
ENDCHAR
STARTCHAR 05F0
ENCODING 1520
SWIDTH 540 0
DWIDTH 12 0
BBX 10 12 2 0
BITMAP
C300
F380
73C0
3080
2080
2080
2080
4100
4100
4100
8200
8200
ENDCHAR
STARTCHAR 05F1
ENCODING 1521
SWIDTH 495 0
DWIDTH 11 0
BBX 9 12 2 0
BITMAP
C200
E780
7380
3080
2080
2100
4100
0100
0200
0200
0200
0400
ENDCHAR
STARTCHAR 05F2
ENCODING 1522
SWIDTH 495 0
DWIDTH 11 0
BBX 9 7 2 5
BITMAP
C200
E380
7380
3080
2080
2100
4200
ENDCHAR
STARTCHAR 05F3
ENCODING 1523
SWIDTH 180 0
DWIDTH 4 0
BBX 3 5 2 7
BITMAP
60
60
C0
80
80
ENDCHAR
STARTCHAR 05F4
ENCODING 1524
SWIDTH 360 0
DWIDTH 8 0
BBX 7 5 2 7
BITMAP
66
6E
CC
88
88
ENDCHAR
STARTCHAR 1E80
ENCODING 7808
SWIDTH 855 0
DWIDTH 19 0
BBX 18 19 3 0
BITMAP
018000
00C000
004000
000000
FBF3C0
60C100
60C200
61C200
62C400
628800
658800
699000
69A000
51A000
D1C000
E18000
C18000
C10000
810000
ENDCHAR
STARTCHAR 1E81
ENCODING 7809
SWIDTH 675 0
DWIDTH 15 0
BBX 14 15 1 0
BITMAP
0300
0100
0100
0080
0000
6008
E10C
6184
2388
2590
2990
29A0
31C0
30C0
2080
ENDCHAR
STARTCHAR 1E82
ENCODING 7810
SWIDTH 855 0
DWIDTH 19 0
BBX 18 19 3 0
BITMAP
007000
006000
004000
000000
FBF3C0
60C100
60C200
61C200
62C400
628800
658800
699000
69A000
51A000
D1C000
E18000
C18000
C10000
810000
ENDCHAR
STARTCHAR 1E83
ENCODING 7811
SWIDTH 675 0
DWIDTH 15 0
BBX 14 15 1 0
BITMAP
00C0
00C0
0080
0100
0000
6008
E10C
6184
2388
2590
2990
29A0
31C0
30C0
2080
ENDCHAR
STARTCHAR 1E84
ENCODING 7812
SWIDTH 855 0
DWIDTH 19 0
BBX 18 19 3 0
BITMAP
011000
03B000
011000
000000
FBF3C0
60C100
60C200
61C200
62C400
628800
658800
699000
69A000
51A000
D1C000
E18000
C18000
C10000
810000
ENDCHAR
STARTCHAR 1E85
ENCODING 7813
SWIDTH 675 0
DWIDTH 15 0
BBX 14 15 1 0
BITMAP
0220
0760
0220
0000
0000
6008
E10C
6184
2388
2590
2990
29A0
31C0
30C0
2080
ENDCHAR
STARTCHAR 1EA0
ENCODING 7840
SWIDTH 630 0
DWIDTH 14 0
BBX 11 18 0 -3
BITMAP
0020
0020
0060
00E0
00E0
0160
0260
0460
0460
0FE0
1040
2040
20C0
40C0
E1E0
0000
0800
1800
ENDCHAR
STARTCHAR 1EA1
ENCODING 7841
SWIDTH 495 0
DWIDTH 11 0
BBX 9 13 1 -3
BITMAP
0E80
1180
2180
4100
C100
C300
8300
8E00
CE80
F700
0000
3000
3000
ENDCHAR
STARTCHAR 1EA2
ENCODING 7842
SWIDTH 630 0
DWIDTH 14 0
BBX 14 20 0 0
BITMAP
001C
0014
0008
0010
0000
0020
0020
0060
00E0
00E0
0160
0260
0460
0460
0FE0
1040
2040
20C0
40C0
E1E0
ENDCHAR
STARTCHAR 1EA3
ENCODING 7843
SWIDTH 495 0
DWIDTH 11 0
BBX 9 15 1 0
BITMAP
0700
0100
0200
0000
0000
0E80
1180
2180
4100
C100
C300
8300
8E00
CE80
F700
ENDCHAR
STARTCHAR 1EA4
ENCODING 7844
SWIDTH 630 0
DWIDTH 14 0
BBX 14 20 0 0
BITMAP
000C
0008
0018
0024
0000
0020
0020
0060
00E0
00E0
0160
0260
0460
0460
0FE0
1040
2040
20C0
40C0
E1E0
ENDCHAR
STARTCHAR 1EA5
ENCODING 7845
SWIDTH 495 0
DWIDTH 11 0
BBX 11 20 1 0
BITMAP
00E0
00C0
0080
0100
0000
0380
0680
0880
0000
0000
0E80
1180
2180
4100
C100
C300
8300
8E00
CE80
F700
ENDCHAR
STARTCHAR 1EA6
ENCODING 7846
SWIDTH 630 0
DWIDTH 14 0
BBX 14 20 0 0
BITMAP
0018
0004
0018
0024
0000
0020
0020
0060
00E0
00E0
0160
0260
0460
0460
0FE0
1040
2040
20C0
40C0
E1E0
ENDCHAR
STARTCHAR 1EA7
ENCODING 7847
SWIDTH 495 0
DWIDTH 11 0
BBX 10 20 1 0
BITMAP
0380
0180
0080
0040
0000
0380
0680
0880
0000
0000
0E80
1180
2180
4100
C100
C300
8300
8E00
CE80
F700
ENDCHAR
STARTCHAR 1EA8
ENCODING 7848
SWIDTH 630 0
DWIDTH 14 0
BBX 14 20 0 0
BITMAP
001C
0008
0018
0024
0000
0020
0020
0060
00E0
00E0
0160
0260
0460
0460
0FE0
1040
2040
20C0
40C0
E1E0
ENDCHAR
STARTCHAR 1EA9
ENCODING 7849
SWIDTH 495 0
DWIDTH 11 0
BBX 10 20 1 0
BITMAP
00C0
0140
0040
0080
0000
0380
0680
0880
0000
0000
0E80
1180
2180
4100
C100
C300
8300
8E00
CE80
F700
ENDCHAR
STARTCHAR 1EAA
ENCODING 7850
SWIDTH 630 0
DWIDTH 14 0
BBX 15 20 0 0
BITMAP
0030
004E
0018
0024
0000
0020
0020
0060
00E0
00E0
0160
0260
0460
0460
0FE0
1040
2040
20C0
40C0
E1E0
ENDCHAR
STARTCHAR 1EAB
ENCODING 7851
SWIDTH 495 0
DWIDTH 11 0
BBX 12 20 1 0
BITMAP
0300
07D0
00E0
0000
0000
0380
0680
0880
0000
0000
0E80
1180
2180
4100
C100
C300
8300
8E00
CE80
F700
ENDCHAR
STARTCHAR 1EAC
ENCODING 7852
SWIDTH 630 0
DWIDTH 14 0
BBX 14 21 0 -3
BITMAP
0018
0024
0000
0020
0020
0060
00E0
00E0
0160
0260
0460
0460
0FE0
1040
2040
20C0
40C0
E1E0
0000
0800
1800
ENDCHAR
STARTCHAR 1EAD
ENCODING 7853
SWIDTH 495 0
DWIDTH 11 0
BBX 9 18 1 -3
BITMAP
0380
0680
0880
0000
0000
0E80
1180
2180
4100
C100
C300
8300
8E00
CE80
F700
0000
3000
3000
ENDCHAR
STARTCHAR 1EAE
ENCODING 7854
SWIDTH 630 0
DWIDTH 14 0
BBX 15 20 0 0
BITMAP
000C
0008
0042
003C
0000
0020
0020
0060
00E0
00E0
0160
0260
0460
0460
0FE0
1040
2040
20C0
40C0
E1E0
ENDCHAR
STARTCHAR 1EAF
ENCODING 7855
SWIDTH 495 0
DWIDTH 11 0
BBX 10 20 1 0
BITMAP
00C0
0180
0100
0000
0000
0840
0F80
0700
0000
0000
0E80
1180
2180
4100
C100
C300
8300
8E00
CE80
F700
ENDCHAR
STARTCHAR 1EB0
ENCODING 7856
SWIDTH 630 0
DWIDTH 14 0
BBX 15 20 0 0
BITMAP
0030
0008
0042
003C
0000
0020
0020
0060
00E0
00E0
0160
0260
0460
0460
0FE0
1040
2040
20C0
40C0
E1E0
ENDCHAR
STARTCHAR 1EB1
ENCODING 7857
SWIDTH 495 0
DWIDTH 11 0
BBX 10 20 1 0
BITMAP
0700
0300
0100
0080
0000
0840
0F80
0700
0000
0000
0E80
1180
2180
4100
C100
C300
8300
8E00
CE80
F700
ENDCHAR
STARTCHAR 1EB2
ENCODING 7858
SWIDTH 630 0
DWIDTH 14 0
BBX 15 20 0 0
BITMAP
001C
0008
0042
003C
0000
0020
0020
0060
00E0
00E0
0160
0260
0460
0460
0FE0
1040
2040
20C0
40C0
E1E0
ENDCHAR
STARTCHAR 1EB3
ENCODING 7859
SWIDTH 495 0
DWIDTH 11 0
BBX 10 20 1 0
BITMAP
0180
0280
0100
0000
0000
0840
0F80
0700
0000
0000
0E80
1180
2180
4100
C100
C300
8300
8E00
CE80
F700
ENDCHAR
STARTCHAR 1EB4
ENCODING 7860
SWIDTH 630 0
DWIDTH 14 0
BBX 15 20 0 0
BITMAP
0030
004E
0042
003C
0000
0020
0020
0060
00E0
00E0
0160
0260
0460
0460
0FE0
1040
2040
20C0
40C0
E1E0
ENDCHAR
STARTCHAR 1EB5
ENCODING 7861
SWIDTH 495 0
DWIDTH 11 0
BBX 11 20 1 0
BITMAP
0600
0FA0
09C0
0000
0000
0840
0F80
0700
0000
0000
0E80
1180
2180
4100
C100
C300
8300
8E00
CE80
F700
ENDCHAR
STARTCHAR 1EB6
ENCODING 7862
SWIDTH 630 0
DWIDTH 14 0
BBX 15 21 0 -3
BITMAP
0042
003C
0000
0020
0020
0060
00E0
00E0
0160
0260
0460
0460
0FE0
1040
2040
20C0
40C0
E1E0
0000
0800
1800
ENDCHAR
STARTCHAR 1EB7
ENCODING 7863
SWIDTH 495 0
DWIDTH 11 0
BBX 9 18 1 -3
BITMAP
1080
0F80
0600
0000
0000
0E80
1180
2180
4100
C100
C300
8300
8E00
CE80
F700
0000
3000
3000
ENDCHAR
STARTCHAR 1EB8
ENCODING 7864
SWIDTH 630 0
DWIDTH 14 0
BBX 13 18 1 -3
BITMAP
3FF8
0C18
0C10
0800
1800
1880
1880
3F80
3080
3000
2000
6020
6020
6040
FFC0
0000
0800
1C00
ENDCHAR
STARTCHAR 1EB9
ENCODING 7865
SWIDTH 450 0
DWIDTH 10 0
BBX 9 13 1 -3
BITMAP
0F00
1180
2100
4300
C600
F800
C000
C100
C200
7C00
0000
2000
7000
ENDCHAR
STARTCHAR 1EBA
ENCODING 7866
SWIDTH 630 0
DWIDTH 14 0
BBX 13 20 1 0
BITMAP
0060
00A0
0040
0000
0000
3FF8
0C18
0C10
0800
1800
1880
1880
3F80
3080
3000
2000
6020
6020
6040
FFC0
ENDCHAR
STARTCHAR 1EBB
ENCODING 7867
SWIDTH 450 0
DWIDTH 10 0
BBX 9 15 1 0
BITMAP
0700
0500
0200
0000
0000
0F00
1180
2100
4300
C600
F800
C000
C100
C200
7C00
ENDCHAR
STARTCHAR 1EBC
ENCODING 7868
SWIDTH 630 0
DWIDTH 14 0
BBX 13 19 1 0
BITMAP
0188
03F0
0070
0000
3FF8
0C18
0C10
0800
1800
1880
1880
3F80
3080
3000
2000
6020
6020
6040
FFC0
ENDCHAR
STARTCHAR 1EBD
ENCODING 7869
SWIDTH 450 0
DWIDTH 10 0
BBX 10 15 1 0
BITMAP
0C00
1F40
0380
0000
0000
0F00
1180
2100
4300
C600
F800
C000
C100
C200
7C00
ENDCHAR
STARTCHAR 1EBE
ENCODING 7870
SWIDTH 630 0
DWIDTH 14 0
BBX 13 20 1 0
BITMAP
0030
0040
00C0
0120
0000
3FF8
0C18
0C10
0800
1800
1880
1880
3F80
3080
3000
2000
6020
6020
6040
FFC0
ENDCHAR
STARTCHAR 1EBF
ENCODING 7871
SWIDTH 450 0
DWIDTH 10 0
BBX 10 20 1 0
BITMAP
00C0
0180
0100
0000
0000
0300
0500
0880
0000
0000
0F00
1180
2100
4300
C600
F800
C000
C100
C200
7C00
ENDCHAR
STARTCHAR 1EC0
ENCODING 7872
SWIDTH 630 0
DWIDTH 14 0
BBX 13 20 1 0
BITMAP
0060
0020
00C0
0120
0000
3FF8
0C18
0C10
0800
1800
1880
1880
3F80
3080
3000
2000
6020
6020
6040
FFC0
ENDCHAR
STARTCHAR 1EC1
ENCODING 7873
SWIDTH 450 0
DWIDTH 10 0
BBX 9 20 1 0
BITMAP
0300
0100
0080
0080
0000
0300
0500
0880
0000
0000
0F00
1180
2100
4300
C600
F800
C000
C100
C200
7C00
ENDCHAR
STARTCHAR 1EC2
ENCODING 7874
SWIDTH 630 0
DWIDTH 14 0
BBX 13 20 1 0
BITMAP
00A0
0040
00C0
0120
0000
3FF8
0C18
0C10
0800
1800
1880
1880
3F80
3080
3000
2000
6020
6020
6040
FFC0
ENDCHAR
STARTCHAR 1EC3
ENCODING 7875
SWIDTH 450 0
DWIDTH 10 0
BBX 10 20 1 0
BITMAP
00C0
0140
0080
0000
0000
0300
0500
0880
0000
0000
0F00
1180
2100
4300
C600
F800
C000
C100
C200
7C00
ENDCHAR
STARTCHAR 1EC4
ENCODING 7876
SWIDTH 630 0
DWIDTH 14 0
BBX 13 20 1 0
BITMAP
01C8
0070
00C0
0120
0000
3FF8
0C18
0C10
0800
1800
1880
1880
3F80
3080
3000
2000
6020
6020
6040
FFC0
ENDCHAR
STARTCHAR 1EC5
ENCODING 7877
SWIDTH 450 0
DWIDTH 10 0
BBX 11 20 1 0
BITMAP
0200
07A0
09E0
0000
0000
0300
0500
0880
0000
0000
0F00
1180
2100
4300
C600
F800
C000
C100
C200
7C00
ENDCHAR
STARTCHAR 1EC6
ENCODING 7878
SWIDTH 630 0
DWIDTH 14 0
BBX 13 21 1 -3
BITMAP
00C0
0120
0000
3FF8
0C18
0C10
0800
1800
1880
1880
3F80
3080
3000
2000
6020
6020
6040
FFC0
0000
0800
1C00
ENDCHAR
STARTCHAR 1EC7
ENCODING 7879
SWIDTH 450 0
DWIDTH 10 0
BBX 9 18 1 -3
BITMAP
0300
0500
0880
0000
0000
0F00
1180
2100
4300
C600
F800
C000
C100
C200
7C00
0000
2000
7000
ENDCHAR
STARTCHAR 1EC8
ENCODING 7880
SWIDTH 315 0
DWIDTH 7 0
BBX 9 20 0 0
BITMAP
0180
0280
0100
0000
0000
1F80
0600
0600
0400
0C00
0C00
0C00
1800
1800
1800
1000
3000
3000
3000
F800
ENDCHAR
STARTCHAR 1EC9
ENCODING 7881
SWIDTH 270 0
DWIDTH 6 0
BBX 6 15 1 0
BITMAP
1C
14
08
00
00
30
70
20
20
60
60
40
C0
D0
E0
ENDCHAR
STARTCHAR 1ECA
ENCODING 7882
SWIDTH 315 0
DWIDTH 7 0
BBX 9 18 0 -3
BITMAP
1F80
0600
0600
0400
0C00
0C00
0C00
1800
1800
1800
1000
3000
3000
3000
7800
8000
4000
6000
ENDCHAR
STARTCHAR 1ECB
ENCODING 7883
SWIDTH 270 0
DWIDTH 6 0
BBX 5 17 1 -3
BITMAP
18
18
00
00
30
70
20
20
60
60
40
C0
D0
E0
00
80
C0
ENDCHAR
STARTCHAR 1ECC
ENCODING 7884
SWIDTH 720 0
DWIDTH 16 0
BBX 15 18 1 -3
BITMAP
01F0
060C
0C0C
1806
3006
3006
6006
600E
E00C
E00C
E018
E038
6030
6060
3980
0600
0800
0C00
ENDCHAR
STARTCHAR 1ECD
ENCODING 7885
SWIDTH 495 0
DWIDTH 11 0
BBX 9 13 1 -3
BITMAP
0E00
3180
6180
6180
C180
C180
8180
8300
C600
4C00
3000
6000
6000
ENDCHAR
STARTCHAR 1ECE
ENCODING 7886
SWIDTH 720 0
DWIDTH 16 0
BBX 15 20 1 0
BITMAP
0030
0008
0010
0020
0000
01F0
060C
0C0C
1806
3006
3006
6006
600E
E00C
E00C
E018
E038
6030
6060
3F80
ENDCHAR
STARTCHAR 1ECF
ENCODING 7887
SWIDTH 495 0
DWIDTH 11 0
BBX 9 15 1 0
BITMAP
0380
0080
0300
0200
0000
0E00
3180
6180
6180
C180
C180
8180
8300
C600
7C00
ENDCHAR
STARTCHAR 1ED0
ENCODING 7888
SWIDTH 720 0
DWIDTH 16 0
BBX 15 20 1 0
BITMAP
0018
0020
0070
0090
0000
01F0
060C
0C0C
1806
3006
3006
6006
600E
E00C
E00C
E018
E038
6030
6060
3F80
ENDCHAR
STARTCHAR 1ED1
ENCODING 7889
SWIDTH 495 0
DWIDTH 11 0
BBX 11 20 1 0
BITMAP
00E0
00C0
0080
0100
0000
0380
0680
0880
0000
0000
0E00
3180
6180
6180
C180
C180
8180
8300
C600
7C00
ENDCHAR
STARTCHAR 1ED2
ENCODING 7890
SWIDTH 720 0
DWIDTH 16 0
BBX 15 20 1 0
BITMAP
0030
0010
0070
0090
0000
01F0
060C
0C0C
1806
3006
3006
6006
600E
E00C
E00C
E018
E038
6030
6060
3F80
ENDCHAR
STARTCHAR 1ED3
ENCODING 7891
SWIDTH 495 0
DWIDTH 11 0
BBX 10 20 1 0
BITMAP
0380
0180
0080
0040
0000
0380
0680
0880
0000
0000
0E00
3180
6180
6180
C180
C180
8180
8300
C600
7C00
ENDCHAR
STARTCHAR 1ED4
ENCODING 7892
SWIDTH 720 0
DWIDTH 16 0
BBX 15 20 1 0
BITMAP
0050
0020
0070
0090
0000
01F0
060C
0C0C
1806
3006
3006
6006
600E
E00C
E00C
E018
E038
6030
6060
3F80
ENDCHAR
STARTCHAR 1ED5
ENCODING 7893
SWIDTH 495 0
DWIDTH 11 0
BBX 10 20 1 0
BITMAP
00C0
0140
0040
0080
0000
0380
0680
0880
0000
0000
0E00
3180
6180
6180
C180
C180
8180
8300
C600
7C00
ENDCHAR
STARTCHAR 1ED6
ENCODING 7894
SWIDTH 720 0
DWIDTH 16 0
BBX 15 20 1 0
BITMAP
00E4
0038
0070
0090
0000
01F0
060C
0C0C
1806
3006
3006
6006
600E
E00C
E00C
E018
E038
6030
6060
3F80
ENDCHAR
STARTCHAR 1ED7
ENCODING 7895
SWIDTH 495 0
DWIDTH 11 0
BBX 12 20 1 0
BITMAP
0300
07D0
00E0
0000
0000
0380
0680
0880
0000
0000
0E00
3180
6180
6180
C180
C180
8180
8300
C600
7C00
ENDCHAR
STARTCHAR 1ED8
ENCODING 7896
SWIDTH 720 0
DWIDTH 16 0
BBX 15 21 1 -3
BITMAP
0070
0090
0000
01F0
060C
0C0C
1806
3006
3006
6006
600E
E00C
E00C
E018
E038
6030
6060
3980
0600
0800
0C00
ENDCHAR
STARTCHAR 1ED9
ENCODING 7897
SWIDTH 495 0
DWIDTH 11 0
BBX 9 18 1 -3
BITMAP
0380
0680
0880
0000
0000
0E00
3180
6180
6180
C180
C180
8180
8300
C600
4C00
3000
6000
6000
ENDCHAR
STARTCHAR 1EDA
ENCODING 7898
SWIDTH 720 0
DWIDTH 16 0
BBX 17 20 1 0
BITMAP
001800
001000
003000
002000
000000
01F180
060D80
0C0E00
180600
300600
300600
600600
600E00
E00C00
E00C00
E01800
E03800
603000
606000
3F8000
ENDCHAR
STARTCHAR 1EDB
ENCODING 7899
SWIDTH 540 0
DWIDTH 12 0
BBX 12 15 1 0
BITMAP
0300
0200
0200
0400
0000
0E30
31B0
61C0
4180
C180
C180
8180
8300
C600
7C00
ENDCHAR
STARTCHAR 1EDC
ENCODING 7900
SWIDTH 720 0
DWIDTH 16 0
BBX 17 20 1 0
BITMAP
00E000
006000
002000
001000
000000
01F180
060D80
0C0E00
180600
300600
300600
600600
600E00
E00C00
E00C00
E01800
E03800
603000
606000
3F8000
ENDCHAR
STARTCHAR 1EDD
ENCODING 7901
SWIDTH 540 0
DWIDTH 12 0
BBX 12 15 1 0
BITMAP
0700
0300
0100
0080
0000
0E30
31B0
61C0
4180
C180
C180
8180
8300
C600
7C00
ENDCHAR
STARTCHAR 1EDE
ENCODING 7902
SWIDTH 720 0
DWIDTH 16 0
BBX 17 20 1 0
BITMAP
003000
000800
001000
002000
000000
01F180
060D80
0C0E00
180600
300600
300600
600600
600E00
E00C00
E00C00
E01800
E03800
603000
606000
3F8000
ENDCHAR
STARTCHAR 1EDF
ENCODING 7903
SWIDTH 540 0
DWIDTH 12 0
BBX 12 15 1 0
BITMAP
0380
0080
0300
0200
0000
0E30
31B0
61C0
4180
C180
C180
8180
8300
C600
7C00
ENDCHAR
STARTCHAR 1EE0
ENCODING 7904
SWIDTH 720 0
DWIDTH 16 0
BBX 17 19 1 0
BITMAP
00C400
01F400
003800
000000
01F180
060D80
0C0E00
180600
300600
300600
600600
600E00
E00C00
E00C00
E01800
E03800
603000
606000
3F8000
ENDCHAR
STARTCHAR 1EE1
ENCODING 7905
SWIDTH 540 0
DWIDTH 12 0
BBX 12 15 1 0
BITMAP
0C00
1F40
0380
0000
0000
0E30
31B0
61C0
4180
C180
C180
8180
8300
C600
7C00
ENDCHAR
STARTCHAR 1EE2
ENCODING 7906
SWIDTH 720 0
DWIDTH 16 0
BBX 17 18 1 -3
BITMAP
01F180
060D80
0C0E00
180600
300600
300600
600600
600E00
E00C00
E00C00
E01800
E03800
603000
606000
398000
060000
080000
0C0000
ENDCHAR
STARTCHAR 1EE3
ENCODING 7907
SWIDTH 540 0
DWIDTH 12 0
BBX 12 13 1 -3
BITMAP
0E30
31B0
61C0
4180
C180
C180
8180
8300
C600
4C00
3000
6000
6000
ENDCHAR
STARTCHAR 1EE4
ENCODING 7908
SWIDTH 720 0
DWIDTH 16 0
BBX 16 18 2 -3
BITMAP
7E1F
1804
1004
3008
3008
3008
6008
6010
6010
4010
C020
C020
4040
60C0
3F80
0000
0800
1C00
ENDCHAR
STARTCHAR 1EE5
ENCODING 7909
SWIDTH 495 0
DWIDTH 11 0
BBX 9 13 1 -3
BITMAP
2080
F180
2180
6180
6300
4300
C700
CA00
D280
E700
0000
3000
3000
ENDCHAR
STARTCHAR 1EE6
ENCODING 7910
SWIDTH 720 0
DWIDTH 16 0
BBX 16 20 2 0
BITMAP
0060
00A0
0040
0000
0000
7E1F
1804
1004
3008
3008
3008
6008
6010
6010
4010
C020
C020
4040
60C0
3F80
ENDCHAR
STARTCHAR 1EE7
ENCODING 7911
SWIDTH 495 0
DWIDTH 11 0
BBX 9 15 1 0
BITMAP
0700
0100
0200
0000
0000
2080
F180
2180
6180
6300
4300
C700
CA00
D280
E700
ENDCHAR
STARTCHAR 1EE8
ENCODING 7912
SWIDTH 765 0
DWIDTH 17 0
BBX 18 20 2 0
BITMAP
007000
006000
004000
0080C0
0000C0
7E1F80
180400
100400
300800
300800
300800
600800
601000
601000
401000
C02000
C02000
404000
60C000
3F0000
ENDCHAR
STARTCHAR 1EE9
ENCODING 7913
SWIDTH 540 0
DWIDTH 12 0
BBX 12 15 1 0
BITMAP
0300
0200
0200
0400
0000
20A0
F1B0
21B0
61C0
6300
4300
C700
CA00
D280
E700
ENDCHAR
STARTCHAR 1EEA
ENCODING 7914
SWIDTH 765 0
DWIDTH 17 0
BBX 18 20 2 0
BITMAP
00C000
004000
006000
0020C0
0000C0
7E1F80
180400
100400
300800
300800
300800
600800
601000
601000
401000
C02000
C02000
404000
60C000
3F0000
ENDCHAR
STARTCHAR 1EEB
ENCODING 7915
SWIDTH 540 0
DWIDTH 12 0
BBX 12 15 1 0
BITMAP
0C00
0400
0200
0000
0000
20A0
F1B0
21B0
61C0
6300
4300
C700
CA00
D280
E700
ENDCHAR
STARTCHAR 1EEC
ENCODING 7916
SWIDTH 765 0
DWIDTH 17 0
BBX 18 20 2 0
BITMAP
006000
00A000
004000
0000C0
0000C0
7E1F80
180400
100400
300800
300800
300800
600800
601000
601000
401000
C02000
C02000
404000
60C000
3F0000
ENDCHAR
STARTCHAR 1EED
ENCODING 7917
SWIDTH 540 0
DWIDTH 12 0
BBX 12 15 1 0
BITMAP
0700
0100
0200
0000
0000
20A0
F1B0
21B0
61C0
6300
4300
C700
CA00
D280
E700
ENDCHAR
STARTCHAR 1EEE
ENCODING 7918
SWIDTH 765 0
DWIDTH 17 0
BBX 18 19 2 0
BITMAP
018000
03E800
0270C0
0000C0
7E1F80
180400
100400
300800
300800
300800
600800
601000
601000
401000
C02000
C02000
404000
60C000
3F0000
ENDCHAR
STARTCHAR 1EEF
ENCODING 7919
SWIDTH 540 0
DWIDTH 12 0
BBX 12 15 1 0
BITMAP
0C00
1F40
0380
0000
0000
20A0
F1B0
21B0
61C0
6300
4300
C700
CA00
D280
E700
ENDCHAR
STARTCHAR 1EF0
ENCODING 7920
SWIDTH 765 0
DWIDTH 17 0
BBX 18 20 2 -3
BITMAP
0000C0
0000C0
7E1F80
180400
100400
300800
300800
300800
600800
601000
601000
401000
C02000
C02000
404000
60C000
3F0000
000000
080000
1C0000
ENDCHAR
STARTCHAR 1EF1
ENCODING 7921
SWIDTH 540 0
DWIDTH 12 0
BBX 12 13 1 -3
BITMAP
20A0
F1B0
21B0
61C0
6300
4300
C700
CA00
D280
E700
0000
3000
3000
ENDCHAR
STARTCHAR 1EF2
ENCODING 7922
SWIDTH 540 0
DWIDTH 12 0
BBX 12 19 3 0
BITMAP
0600
0200
0200
0000
F9F0
6040
6080
3100
3100
3200
1C00
1800
1800
1800
3000
3000
3000
6000
F000
ENDCHAR
STARTCHAR 1EF3
ENCODING 7923
SWIDTH 450 0
DWIDTH 10 0
BBX 12 20 -2 -5
BITMAP
0180
0080
0080
0040
0000
0C20
1C30
0410
0420
0420
0640
0680
0680
0700
0600
0400
0800
1000
E000
C000
ENDCHAR
STARTCHAR 1EF4
ENCODING 7924
SWIDTH 540 0
DWIDTH 12 0
BBX 12 18 3 -3
BITMAP
F9F0
6040
6080
3100
3100
3200
1C00
1800
1800
1800
3000
3000
3000
6000
F000
0000
4000
E000
ENDCHAR
STARTCHAR 1EF5
ENCODING 7925
SWIDTH 450 0
DWIDTH 10 0
BBX 12 15 -2 -5
BITMAP
0C20
1C30
0410
0420
0420
0640
0680
0680
0700
0600
0400
0980
1180
E000
C000
ENDCHAR
STARTCHAR 1EF6
ENCODING 7926
SWIDTH 540 0
DWIDTH 12 0
BBX 12 20 3 0
BITMAP
0300
0280
0100
0200
0000
F9F0
6040
6080
3100
3100
3200
1C00
1800
1800
1800
3000
3000
3000
6000
F000
ENDCHAR
STARTCHAR 1EF7
ENCODING 7927
SWIDTH 450 0
DWIDTH 10 0
BBX 12 20 -2 -5
BITMAP
01E0
0040
0080
0000
0000
0C20
1C30
0410
0420
0420
0640
0680
0680
0700
0600
0400
0800
1000
E000
C000
ENDCHAR
STARTCHAR 1EF8
ENCODING 7928
SWIDTH 540 0
DWIDTH 12 0
BBX 12 19 3 0
BITMAP
0C00
0F40
1180
0000
F9F0
6040
6080
3100
3100
3200
1C00
1800
1800
1800
3000
3000
3000
6000
F000
ENDCHAR
STARTCHAR 1EF9
ENCODING 7929
SWIDTH 450 0
DWIDTH 10 0
BBX 12 20 -2 -5
BITMAP
0180
03D0
0070
0000
0000
0C20
1C30
0410
0420
0420
0640
0680
0680
0700
0600
0400
0800
1000
E000
C000
ENDCHAR
STARTCHAR 200C
ENCODING 8204
SWIDTH 0 0
DWIDTH 0 0
BBX 1 15 -1 -2
BITMAP
80
80
80
80
80
80
80
80
80
80
80
80
80
80
80
ENDCHAR
STARTCHAR 200D
ENCODING 8205
SWIDTH 0 0
DWIDTH 0 0
BBX 4 17 -2 -3
BITMAP
90
60
60
D0
40
40
40
40
40
40
40
40
40
40
40
40
40
ENDCHAR
STARTCHAR 200E
ENCODING 8206
SWIDTH 0 0
DWIDTH 0 0
BBX 4 17 0 -3
BITMAP
20
10
F0
A0
80
80
80
80
80
80
80
80
80
80
80
80
80
ENDCHAR
STARTCHAR 200F
ENCODING 8207
SWIDTH 0 0
DWIDTH 0 0
BBX 4 17 -4 -3
BITMAP
40
80
F0
50
10
10
10
10
10
10
10
10
10
10
10
10
10
ENDCHAR
STARTCHAR 2013
ENCODING 8211
SWIDTH 495 0
DWIDTH 11 0
BBX 11 1 0 4
BITMAP
FFE0
ENDCHAR
STARTCHAR 2014
ENCODING 8212
SWIDTH 900 0
DWIDTH 20 0
BBX 20 1 0 4
BITMAP
FFFFF0
ENDCHAR
STARTCHAR 2015
ENCODING 8213
SWIDTH 990 0
DWIDTH 22 0
BBX 21 2 1 5
BITMAP
FFFFF8
FFFFF8
ENDCHAR
STARTCHAR 2017
ENCODING 8215
SWIDTH 495 0
DWIDTH 11 0
BBX 11 3 0 -5
BITMAP
FFE0
0000
FFE0
ENDCHAR
STARTCHAR 2018
ENCODING 8216
SWIDTH 315 0
DWIDTH 7 0
BBX 2 4 5 11
BITMAP
C0
80
C0
80
ENDCHAR
STARTCHAR 2019
ENCODING 8217
SWIDTH 315 0
DWIDTH 7 0
BBX 3 5 4 10
BITMAP
60
60
20
40
80
ENDCHAR
STARTCHAR 201A
ENCODING 8218
SWIDTH 315 0
DWIDTH 7 0
BBX 3 5 1 -3
BITMAP
60
60
60
40
80
ENDCHAR
STARTCHAR 201B
ENCODING 8219
SWIDTH 315 0
DWIDTH 7 0
BBX 2 4 5 10
BITMAP
C0
C0
80
80
ENDCHAR
STARTCHAR 201C
ENCODING 8220
SWIDTH 540 0
DWIDTH 12 0
BBX 8 5 4 10
BITMAP
21
42
C6
C6
42
ENDCHAR
STARTCHAR 201D
ENCODING 8221
SWIDTH 540 0
DWIDTH 12 0
BBX 8 5 4 10
BITMAP
63
63
21
42
84
ENDCHAR
STARTCHAR 201E
ENCODING 8222
SWIDTH 540 0
DWIDTH 12 0
BBX 8 5 0 -3
BITMAP
23
63
21
21
C6
ENDCHAR
STARTCHAR 2020
ENCODING 8224
SWIDTH 495 0
DWIDTH 11 0
BBX 10 19 2 -5
BITMAP
0600
0600
0600
0400
6980
FFC0
0800
1800
1800
1800
1000
1000
2000
2000
2000
4000
4000
4000
8000
ENDCHAR
STARTCHAR 2021
ENCODING 8225
SWIDTH 495 0
DWIDTH 11 0
BBX 11 20 0 -5
BITMAP
0180
0180
0100
1920
1EE0
0200
0200
0600
0400
0400
0800
0800
1C00
0800
9200
FF00
1000
3000
3000
2000
ENDCHAR
STARTCHAR 2022
ENCODING 8226
SWIDTH 360 0
DWIDTH 8 0
BBX 5 5 2 5
BITMAP
70
F8
F8
F8
78
ENDCHAR
STARTCHAR 2026
ENCODING 8230
SWIDTH 900 0
DWIDTH 20 0
BBX 14 2 3 0
BITMAP
C30C
C31C
ENDCHAR
STARTCHAR 2030
ENCODING 8240
SWIDTH 990 0
DWIDTH 22 0
BBX 21 16 1 -1
BITMAP
1C0800
221000
622000
422000
C64000
C68000
4D0000
310000
0278F0
048988
098918
110B18
111B18
211B30
413120
80C0C0
ENDCHAR
STARTCHAR 2032
ENCODING 8242
SWIDTH 225 0
DWIDTH 5 0
BBX 3 6 3 9
BITMAP
60
E0
C0
C0
80
80
ENDCHAR
STARTCHAR 2033
ENCODING 8243
SWIDTH 405 0
DWIDTH 9 0
BBX 7 6 3 9
BITMAP
66
66
44
CC
8C
88
ENDCHAR
STARTCHAR 2039
ENCODING 8249
SWIDTH 315 0
DWIDTH 7 0
BBX 6 10 1 0
BITMAP
04
08
10
20
60
C0
60
60
20
20
ENDCHAR
STARTCHAR 203A
ENCODING 8250
SWIDTH 315 0
DWIDTH 7 0
BBX 5 10 1 0
BITMAP
20
20
10
10
18
18
30
20
40
80
ENDCHAR
STARTCHAR 203C
ENCODING 8252
SWIDTH 585 0
DWIDTH 13 0
BBX 10 15 2 0
BITMAP
1840
18C0
18C0
10C0
1080
3080
2080
2100
4100
4200
4000
0000
0000
C600
C600
ENDCHAR
STARTCHAR 203E
ENCODING 8254
SWIDTH 315 0
DWIDTH 7 0
BBX 8 1 2 13
BITMAP
FF
ENDCHAR
STARTCHAR 2044
ENCODING 8260
SWIDTH 180 0
DWIDTH 4 0
BBX 11 16 -4 -1
BITMAP
0020
0040
0040
0080
0100
0100
0200
0200
0400
0800
0800
1000
2000
2000
4000
8000
ENDCHAR
STARTCHAR 207F
ENCODING 8319
SWIDTH 315 0
DWIDTH 7 0
BBX 6 6 0 6
BITMAP
6C
34
64
4C
48
8C
ENDCHAR
STARTCHAR 20A3
ENCODING 8355
SWIDTH 495 0
DWIDTH 11 0
BBX 12 15 0 0
BITMAP
1FF0
0630
0610
0400
0C00
0C40
0C80
1F80
1880
1800
1000
FE00
3000
3000
F000
ENDCHAR
STARTCHAR 20A4
ENCODING 8356
SWIDTH 495 0
DWIDTH 11 0
BBX 11 15 1 0
BITMAP
01C0
0660
0440
0C00
0C00
0C00
7F00
1800
FF00
1800
1000
1000
7000
BC80
CF00
ENDCHAR
STARTCHAR 20A7
ENCODING 8359
SWIDTH 990 0
DWIDTH 22 0
BBX 21 15 1 0
BITMAP
1FC000
067000
063000
0E3C00
0C3C00
0C3EF8
0C6C90
1FC990
1818C0
1818C0
381060
303060
303420
702420
F83FC0
ENDCHAR
STARTCHAR 20AA
ENCODING 8362
SWIDTH 765 0
DWIDTH 17 0
BBX 17 11 0 0
BITMAP
1FF080
181180
101180
301100
333300
233300
222300
660200
660600
440C00
CFF800
ENDCHAR
STARTCHAR 20AB
ENCODING 8363
SWIDTH 495 0
DWIDTH 11 0
BBX 10 12 1 3
BITMAP
00C0
00C0
0180
0680
0980
1180
3100
2100
2300
3300
1C00
FF00
ENDCHAR
STARTCHAR 20AC
ENCODING 8364
SWIDTH 495 0
DWIDTH 11 0
BBX 13 15 0 0
BITMAP
01F0
0618
0C08
0810
1800
3000
7FC0
3000
FF80
6000
6000
6000
6040
6080
3F00
ENDCHAR
STARTCHAR 2105
ENCODING 8453
SWIDTH 855 0
DWIDTH 19 0
BBX 17 16 1 -1
BITMAP
0E0100
330200
200400
400800
401000
402000
644000
388600
011900
023180
042180
086180
106100
206200
402400
801800
ENDCHAR
STARTCHAR 2113
ENCODING 8467
SWIDTH 405 0
DWIDTH 9 0
BBX 9 15 1 0
BITMAP
0700
0C80
0900
1900
1200
1400
3800
3000
6000
E000
6000
4000
4400
4400
7800
ENDCHAR
STARTCHAR 2116
ENCODING 8470
SWIDTH 945 0
DWIDTH 21 0
BBX 22 15 -1 0
BITMAP
070180
0183C0
038280
038400
028430
04C4C8
04C98C
04C98C
086908
086918
087130
0870C0
103000
D02000
E027E0
ENDCHAR
STARTCHAR 2122
ENCODING 8482
SWIDTH 990 0
DWIDTH 22 0
BBX 21 9 2 6
BITMAP
FF7038
993830
183870
182CB0
182CB0
182730
182730
182330
1C2230
ENDCHAR
STARTCHAR 2126
ENCODING 8486
SWIDTH 765 0
DWIDTH 17 0
BBX 16 15 1 0
BITMAP
07E0
1838
301C
700C
600E
E00E
E00E
600E
600E
700C
301C
1831
8441
FC7F
FC7F
ENDCHAR
STARTCHAR 212E
ENCODING 8494
SWIDTH 585 0
DWIDTH 13 0
BBX 11 12 1 0
BITMAP
0F00
30C0
4040
C060
C060
FFE0
C000
C000
C000
4020
6040
1F80
ENDCHAR
STARTCHAR 2153
ENCODING 8531
SWIDTH 765 0
DWIDTH 17 0
BBX 13 16 2 -1
BITMAP
3810
1020
1040
3040
2080
2100
6100
E200
0478
0408
0810
1030
1010
2010
4190
40E0
ENDCHAR
STARTCHAR 2154
ENCODING 8532
SWIDTH 765 0
DWIDTH 17 0
BBX 14 16 1 -1
BITMAP
1C08
2410
0420
0420
0840
1080
6080
F900
023C
0204
0408
0818
0808
1008
20C8
2070
ENDCHAR
STARTCHAR 215B
ENCODING 8539
SWIDTH 765 0
DWIDTH 17 0
BBX 14 16 2 -1
BITMAP
3810
1020
1040
3040
2080
2100
6100
E200
0478
044C
0868
1070
1098
2198
4090
4060
ENDCHAR
STARTCHAR 215C
ENCODING 8540
SWIDTH 765 0
DWIDTH 17 0
BBX 15 16 1 -1
BITMAP
1C08
2410
0420
3820
0840
0C80
0880
F100
023C
0226
0434
0838
084C
10CC
2048
2030
ENDCHAR
STARTCHAR 215D
ENCODING 8541
SWIDTH 765 0
DWIDTH 17 0
BBX 14 16 2 -1
BITMAP
3810
4020
7040
1040
1880
1100
1100
E200
0478
044C
0868
1070
1098
2198
4090
4060
ENDCHAR
STARTCHAR 215E
ENCODING 8542
SWIDTH 765 0
DWIDTH 17 0
BBX 13 16 3 -1
BITMAP
7840
8840
1080
2100
2100
4200
8400
8400
08F0
1098
10D0
20E0
4130
4330
8120
80C0
ENDCHAR
STARTCHAR 2190
ENCODING 8592
SWIDTH 990 0
DWIDTH 22 0
BBX 20 8 1 2
BITMAP
080000
180000
300000
600000
FFFFF0
700000
100000
080000
ENDCHAR
STARTCHAR 2191
ENCODING 8593
SWIDTH 495 0
DWIDTH 11 0
BBX 7 20 2 -5
BITMAP
10
10
38
7C
D6
10
10
10
10
10
10
10
10
10
10
10
10
10
10
10
ENDCHAR
STARTCHAR 2192
ENCODING 8594
SWIDTH 990 0
DWIDTH 22 0
BBX 20 8 1 2
BITMAP
000100
000080
0000C0
000060
FFFFF0
000060
0000C0
000180
ENDCHAR
STARTCHAR 2193
ENCODING 8595
SWIDTH 495 0
DWIDTH 11 0
BBX 7 20 2 -5
BITMAP
10
10
10
10
10
10
10
10
10
10
10
10
10
10
10
D6
7C
38
10
10
ENDCHAR
STARTCHAR 2194
ENCODING 8596
SWIDTH 990 0
DWIDTH 22 0
BBX 20 8 1 2
BITMAP
080100
180080
3000C0
600060
FFFFF0
700060
1000C0
080180
ENDCHAR
STARTCHAR 2195
ENCODING 8597
SWIDTH 495 0
DWIDTH 11 0
BBX 7 21 2 -5
BITMAP
10
18
38
7C
92
10
10
10
10
10
10
10
10
10
10
10
D6
7C
38
10
10
ENDCHAR
STARTCHAR 21A8
ENCODING 8616
SWIDTH 495 0
DWIDTH 11 0
BBX 7 23 2 -7
BITMAP
10
18
38
7C
92
10
10
10
10
10
10
10
10
10
10
10
D6
7C
38
10
10
00
FE
ENDCHAR
STARTCHAR 2202
ENCODING 8706
SWIDTH 495 0
DWIDTH 11 0
BBX 10 15 1 0
BITMAP
1F00
3180
0080
0040
0040
0E40
31C0
6040
4080
C080
C080
C100
C100
C200
7C00
ENDCHAR
STARTCHAR 2206
ENCODING 8710
SWIDTH 630 0
DWIDTH 14 0
BBX 12 14 0 1
BITMAP
0600
0600
0700
0B00
0B00
1180
1180
21C0
20C0
40E0
4060
8060
8030
FFF0
ENDCHAR
STARTCHAR 220F
ENCODING 8719
SWIDTH 810 0
DWIDTH 18 0
BBX 17 20 2 -5
BITMAP
7FFF00
300600
300600
300600
300600
300600
300600
300600
300600
300600
300600
300600
300600
300600
300600
300600
300600
300600
300E00
FC3F80
ENDCHAR
STARTCHAR 2211
ENCODING 8721
SWIDTH 720 0
DWIDTH 16 0
BBX 15 20 0 -5
BITMAP
7FFC
3004
3802
1C00
0C00
0600
0700
0380
0180
0080
0100
0200
0200
0400
0800
1000
1002
2006
7FFE
FFFE
ENDCHAR
STARTCHAR 2212
ENCODING 8722
SWIDTH 675 0
DWIDTH 15 0
BBX 11 1 2 6
BITMAP
FFE0
ENDCHAR
STARTCHAR 2215
ENCODING 8725
SWIDTH 180 0
DWIDTH 4 0
BBX 11 16 -4 -1
BITMAP
0020
0040
0040
0080
0100
0100
0200
0200
0400
0800
0800
1000
2000
2000
4000
8000
ENDCHAR
STARTCHAR 2219
ENCODING 8729
SWIDTH 270 0
DWIDTH 6 0
BBX 2 3 2 6
BITMAP
80
C0
C0
ENDCHAR
STARTCHAR 221A
ENCODING 8730
SWIDTH 540 0
DWIDTH 12 0
BBX 11 20 1 -1
BITMAP
0020
0020
0020
0020
0040
0040
0040
0040
0040
7040
9080
1880
0880
0C80
0480
0680
0300
0300
0100
0100
ENDCHAR
STARTCHAR 221E
ENCODING 8734
SWIDTH 720 0
DWIDTH 16 0
BBX 14 9 1 1
BITMAP
30F0
C988
8704
8304
8604
8604
8D04
7C88
0070
ENDCHAR
STARTCHAR 221F
ENCODING 8735
SWIDTH 990 0
DWIDTH 22 0
BBX 14 14 4 0
BITMAP
8000
8000
8000
8000
8000
8000
8000
8000
8000
8000
8000
8000
8000
FFFC
ENDCHAR
STARTCHAR 2229
ENCODING 8745
SWIDTH 720 0
DWIDTH 16 0
BBX 12 15 2 0
BITMAP
0F00
30C0
6060
4020
C030
8010
8010
8010
8010
8010
8010
8010
8010
8010
8010
ENDCHAR
STARTCHAR 222B
ENCODING 8747
SWIDTH 270 0
DWIDTH 6 0
BBX 6 22 0 -2
BITMAP
1C
1C
20
20
30
30
30
30
30
30
30
30
30
30
30
30
30
30
10
10
E0
E0
ENDCHAR
STARTCHAR 2248
ENCODING 8776
SWIDTH 540 0
DWIDTH 12 0
BBX 12 8 0 3
BITMAP
7C10
8720
80C0
0000
0000
7810
4610
81E0
ENDCHAR
STARTCHAR 2260
ENCODING 8800
SWIDTH 540 0
DWIDTH 12 0
BBX 12 18 0 -3
BITMAP
0040
0080
0080
0080
0100
0100
FFF0
0200
0200
0400
0400
FFF0
0800
0800
1000
1000
1000
2000
ENDCHAR
STARTCHAR 2261
ENCODING 8801
SWIDTH 675 0
DWIDTH 15 0
BBX 12 8 2 3
BITMAP
FFF0
0000
0000
FFF0
0000
0000
0000
FFF0
ENDCHAR
STARTCHAR 2264
ENCODING 8804
SWIDTH 540 0
DWIDTH 12 0
BBX 12 15 1 -2
BITMAP
0070
01C0
0600
3800
C000
E000
1800
0700
01C0
0030
0000
0000
0000
0000
FFF0
ENDCHAR
STARTCHAR 2265
ENCODING 8805
SWIDTH 540 0
DWIDTH 12 0
BBX 12 15 1 -2
BITMAP
C000
3800
0E00
0180
0070
0060
0180
0E00
3000
C000
0000
0000
0000
0000
FFF0
ENDCHAR
STARTCHAR 2302
ENCODING 8962
SWIDTH 585 0
DWIDTH 13 0
BBX 10 12 2 1
BITMAP
0C00
1400
2200
4100
8080
8040
8040
8040
8040
8040
8040
FFC0
ENDCHAR
STARTCHAR 2310
ENCODING 8976
SWIDTH 675 0
DWIDTH 15 0
BBX 11 5 2 5
BITMAP
FFE0
8000
8000
8000
8000
ENDCHAR
STARTCHAR 2320
ENCODING 8992
SWIDTH 585 0
DWIDTH 13 0
BBX 5 25 6 -6
BITMAP
30
78
80
80
80
80
80
80
80
80
80
80
80
80
80
80
80
80
80
80
80
80
80
80
80
ENDCHAR
STARTCHAR 2321
ENCODING 8993
SWIDTH 585 0
DWIDTH 13 0
BBX 4 25 3 -6
BITMAP
10
10
10
10
10
10
10
10
10
10
10
10
10
10
10
10
10
10
10
10
10
10
90
E0
40
ENDCHAR
STARTCHAR 2500
ENCODING 9472
SWIDTH 720 0
DWIDTH 16 0
BBX 16 2 0 6
BITMAP
FFFF
FFFF
ENDCHAR
STARTCHAR 2502
ENCODING 9474
SWIDTH 630 0
DWIDTH 14 0
BBX 2 27 5 -7
BITMAP
C0
C0
C0
C0
C0
C0
C0
C0
C0
C0
C0
C0
C0
C0
C0
C0
C0
C0
C0
C0
C0
C0
C0
C0
C0
C0
C0
ENDCHAR
STARTCHAR 250C
ENCODING 9484
SWIDTH 720 0
DWIDTH 16 0
BBX 9 15 7 -7
BITMAP
FF80
FF80
C000
C000
C000
C000
C000
C000
C000
C000
C000
C000
C000
C000
C000
ENDCHAR
STARTCHAR 2510
ENCODING 9488
SWIDTH 720 0
DWIDTH 16 0
BBX 9 15 0 -7
BITMAP
FF80
FF80
0180
0180
0180
0180
0180
0180
0180
0180
0180
0180
0180
0180
0180
ENDCHAR
STARTCHAR 2514
ENCODING 9492
SWIDTH 720 0
DWIDTH 16 0
BBX 9 14 7 6
BITMAP
C000
C000
C000
C000
C000
C000
C000
C000
C000
C000
C000
C000
FF80
FF80
ENDCHAR
STARTCHAR 2518
ENCODING 9496
SWIDTH 720 0
DWIDTH 16 0
BBX 9 14 0 6
BITMAP
0180
0180
0180
0180
0180
0180
0180
0180
0180
0180
0180
0180
FF80
FF80
ENDCHAR
STARTCHAR 251C
ENCODING 9500
SWIDTH 720 0
DWIDTH 16 0
BBX 9 27 7 -7
BITMAP
C000
C000
C000
C000
C000
C000
C000
C000
C000
C000
C000
C000
FF80
FF80
C000
C000
C000
C000
C000
C000
C000
C000
C000
C000
C000
C000
C000
ENDCHAR
STARTCHAR 2524
ENCODING 9508
SWIDTH 720 0
DWIDTH 16 0
BBX 9 27 0 -7
BITMAP
0180
0180
0180
0180
0180
0180
0180
0180
0180
0180
0180
0180
FF80
FF80
0180
0180
0180
0180
0180
0180
0180
0180
0180
0180
0180
0180
0180
ENDCHAR
STARTCHAR 252C
ENCODING 9516
SWIDTH 720 0
DWIDTH 16 0
BBX 16 15 0 -7
BITMAP
FFFF
FFFF
0180
0180
0180
0180
0180
0180
0180
0180
0180
0180
0180
0180
0180
ENDCHAR
STARTCHAR 2534
ENCODING 9524
SWIDTH 720 0
DWIDTH 16 0
BBX 16 14 0 6
BITMAP
0180
0180
0180
0180
0180
0180
0180
0180
0180
0180
0180
0180
FFFF
FFFF
ENDCHAR
STARTCHAR 253C
ENCODING 9532
SWIDTH 720 0
DWIDTH 16 0
BBX 16 27 0 -7
BITMAP
0180
0180
0180
0180
0180
0180
0180
0180
0180
0180
0180
0180
FFFF
FFFF
0180
0180
0180
0180
0180
0180
0180
0180
0180
0180
0180
0180
0180
ENDCHAR
STARTCHAR 2550
ENCODING 9552
SWIDTH 720 0
DWIDTH 16 0
BBX 16 6 0 4
BITMAP
FFFF
FFFF
0000
0000
FFFF
FFFF
ENDCHAR
STARTCHAR 2551
ENCODING 9553
SWIDTH 720 0
DWIDTH 16 0
BBX 6 27 5 -7
BITMAP
CC
CC
CC
CC
CC
CC
CC
CC
CC
CC
CC
CC
CC
CC
CC
CC
CC
CC
CC
CC
CC
CC
CC
CC
CC
CC
CC
ENDCHAR
STARTCHAR 2552
ENCODING 9554
SWIDTH 720 0
DWIDTH 16 0
BBX 9 17 7 -7
BITMAP
FF80
FF80
C000
C000
FF80
FF80
C000
C000
C000
C000
C000
C000
C000
C000
C000
C000
C000
ENDCHAR
STARTCHAR 2553
ENCODING 9555
SWIDTH 720 0
DWIDTH 16 0
BBX 11 15 5 -7
BITMAP
FFE0
FFE0
CC00
CC00
CC00
CC00
CC00
CC00
CC00
CC00
CC00
CC00
CC00
CC00
CC00
ENDCHAR
STARTCHAR 2554
ENCODING 9556
SWIDTH 720 0
DWIDTH 16 0
BBX 11 17 5 -7
BITMAP
FFE0
FFE0
C000
C000
CFE0
CFE0
CC00
CC00
CC00
CC00
CC00
CC00
CC00
CC00
CC00
CC00
CC00
ENDCHAR
STARTCHAR 2555
ENCODING 9557
SWIDTH 720 0
DWIDTH 16 0
BBX 9 17 0 -7
BITMAP
FF80
FF80
0180
0180
FF80
FF80
0180
0180
0180
0180
0180
0180
0180
0180
0180
0180
0180
ENDCHAR
STARTCHAR 2556
ENCODING 9558
SWIDTH 720 0
DWIDTH 16 0
BBX 11 15 0 -7
BITMAP
FFE0
FFE0
0660
0660
0660
0660
0660
0660
0660
0660
0660
0660
0660
0660
0660
ENDCHAR
STARTCHAR 2557
ENCODING 9559
SWIDTH 720 0
DWIDTH 16 0
BBX 11 17 0 -7
BITMAP
FFE0
FFE0
0060
0060
FE60
FE60
0660
0660
0660
0660
0660
0660
0660
0660
0660
0660
0660
ENDCHAR
STARTCHAR 2558
ENCODING 9560
SWIDTH 720 0
DWIDTH 16 0
BBX 9 16 7 4
BITMAP
C000
C000
C000
C000
C000
C000
C000
C000
C000
C000
FF80
FF80
C000
C000
FF80
FF80
ENDCHAR
STARTCHAR 2559
ENCODING 9561
SWIDTH 720 0
DWIDTH 16 0
BBX 11 14 5 6
BITMAP
CC00
CC00
CC00
CC00
CC00
CC00
CC00
CC00
CC00
CC00
CC00
CC00
FFE0
FFE0
ENDCHAR
STARTCHAR 255A
ENCODING 9562
SWIDTH 720 0
DWIDTH 16 0
BBX 11 16 5 4
BITMAP
CC00
CC00
CC00
CC00
CC00
CC00
CC00
CC00
CC00
CC00
CFE0
CFE0
C000
C000
FFE0
FFE0
ENDCHAR
STARTCHAR 255B
ENCODING 9563
SWIDTH 720 0
DWIDTH 16 0
BBX 9 16 0 4
BITMAP
0180
0180
0180
0180
0180
0180
0180
0180
0180
0180
FF80
FF80
0180
0180
FF80
FF80
ENDCHAR
STARTCHAR 255C
ENCODING 9564
SWIDTH 720 0
DWIDTH 16 0
BBX 11 14 0 6
BITMAP
0660
0660
0660
0660
0660
0660
0660
0660
0660
0660
0660
0660
FFE0
FFE0
ENDCHAR
STARTCHAR 255D
ENCODING 9565
SWIDTH 720 0
DWIDTH 16 0
BBX 11 16 0 4
BITMAP
0660
0660
0660
0660
0660
0660
0660
0660
0660
0660
FE60
FE60
0060
0060
FFE0
FFE0
ENDCHAR
STARTCHAR 255E
ENCODING 9566
SWIDTH 720 0
DWIDTH 16 0
BBX 9 27 7 -7
BITMAP
C000
C000
C000
C000
C000
C000
C000
C000
C000
C000
FF80
FF80
C000
C000
FF80
FF80
C000
C000
C000
C000
C000
C000
C000
C000
C000
C000
C000
ENDCHAR
STARTCHAR 255F
ENCODING 9567
SWIDTH 720 0
DWIDTH 16 0
BBX 11 27 5 -7
BITMAP
CC00
CC00
CC00
CC00
CC00
CC00
CC00
CC00
CC00
CC00
CC00
CC00
CFE0
CFE0
CC00
CC00
CC00
CC00
CC00
CC00
CC00
CC00
CC00
CC00
CC00
CC00
CC00
ENDCHAR
STARTCHAR 2560
ENCODING 9568
SWIDTH 720 0
DWIDTH 16 0
BBX 11 27 5 -7
BITMAP
CC00
CC00
CC00
CC00
CC00
CC00
CC00
CC00
CC00
CC00
CFE0
CFE0
C000
C000
CFE0
CFE0
CC00
CC00
CC00
CC00
CC00
CC00
CC00
CC00
CC00
CC00
CC00
ENDCHAR
STARTCHAR 2561
ENCODING 9569
SWIDTH 720 0
DWIDTH 16 0
BBX 9 27 0 -7
BITMAP
0180
0180
0180
0180
0180
0180
0180
0180
0180
0180
FF80
FF80
0180
0180
FF80
FF80
0180
0180
0180
0180
0180
0180
0180
0180
0180
0180
0180
ENDCHAR
STARTCHAR 2562
ENCODING 9570
SWIDTH 720 0
DWIDTH 16 0
BBX 11 27 0 -7
BITMAP
0660
0660
0660
0660
0660
0660
0660
0660
0660
0660
0660
0660
FE60
FE60
0660
0660
0660
0660
0660
0660
0660
0660
0660
0660
0660
0660
0660
ENDCHAR
STARTCHAR 2563
ENCODING 9571
SWIDTH 720 0
DWIDTH 16 0
BBX 11 27 0 -7
BITMAP
0660
0660
0660
0660
0660
0660
0660
0660
0660
0660
FE60
FE60
0060
0060
FE60
FE60
0660
0660
0660
0660
0660
0660
0660
0660
0660
0660
0660
ENDCHAR
STARTCHAR 2564
ENCODING 9572
SWIDTH 720 0
DWIDTH 16 0
BBX 16 17 0 -7
BITMAP
FFFF
FFFF
0000
0000
FFFF
FFFF
0180
0180
0180
0180
0180
0180
0180
0180
0180
0180
0180
ENDCHAR
STARTCHAR 2565
ENCODING 9573
SWIDTH 720 0
DWIDTH 16 0
BBX 16 15 0 -7
BITMAP
FFFF
FFFF
0660
0660
0660
0660
0660
0660
0660
0660
0660
0660
0660
0660
0660
ENDCHAR
STARTCHAR 2566
ENCODING 9574
SWIDTH 720 0
DWIDTH 16 0
BBX 16 17 0 -7
BITMAP
FFFF
FFFF
0000
0000
FE7F
FE7F
0660
0660
0660
0660
0660
0660
0660
0660
0660
0660
0660
ENDCHAR
STARTCHAR 2567
ENCODING 9575
SWIDTH 720 0
DWIDTH 16 0
BBX 16 16 0 4
BITMAP
0180
0180
0180
0180
0180
0180
0180
0180
0180
0180
FFFF
FFFF
0000
0000
FFFF
FFFF
ENDCHAR
STARTCHAR 2568
ENCODING 9576
SWIDTH 720 0
DWIDTH 16 0
BBX 16 14 0 6
BITMAP
0660
0660
0660
0660
0660
0660
0660
0660
0660
0660
0660
0660
FFFF
FFFF
ENDCHAR
STARTCHAR 2569
ENCODING 9577
SWIDTH 720 0
DWIDTH 16 0
BBX 16 16 0 4
BITMAP
0660
0660
0660
0660
0660
0660
0660
0660
0660
0660
FE7F
FE7F
0000
0000
FFFF
FFFF
ENDCHAR
STARTCHAR 256A
ENCODING 9578
SWIDTH 720 0
DWIDTH 16 0
BBX 16 27 0 -7
BITMAP
0180
0180
0180
0180
0180
0180
0180
0180
0180
0180
FFFF
FFFF
0180
0180
FFFF
FFFF
0180
0180
0180
0180
0180
0180
0180
0180
0180
0180
0180
ENDCHAR
STARTCHAR 256B
ENCODING 9579
SWIDTH 720 0
DWIDTH 16 0
BBX 16 27 0 -7
BITMAP
0660
0660
0660
0660
0660
0660
0660
0660
0660
0660
0660
0660
FFFF
FFFF
0660
0660
0660
0660
0660
0660
0660
0660
0660
0660
0660
0660
0660
ENDCHAR
STARTCHAR 256C
ENCODING 9580
SWIDTH 720 0
DWIDTH 16 0
BBX 16 27 0 -7
BITMAP
0660
0660
0660
0660
0660
0660
0660
0660
0660
0660
FE7F
FE7F
0000
0000
FE7F
FE7F
0660
0660
0660
0660
0660
0660
0660
0660
0660
0660
0660
ENDCHAR
STARTCHAR 2580
ENCODING 9600
SWIDTH 720 0
DWIDTH 16 0
BBX 16 13 0 7
BITMAP
FFFF
FFFF
FFFF
FFFF
FFFF
FFFF
FFFF
FFFF
FFFF
FFFF
FFFF
FFFF
FFFF
ENDCHAR
STARTCHAR 2584
ENCODING 9604
SWIDTH 720 0
DWIDTH 16 0
BBX 16 14 0 -7
BITMAP
FFFF
FFFF
FFFF
FFFF
FFFF
FFFF
FFFF
FFFF
FFFF
FFFF
FFFF
FFFF
FFFF
FFFF
ENDCHAR
STARTCHAR 2588
ENCODING 9608
SWIDTH 720 0
DWIDTH 16 0
BBX 16 27 0 -7
BITMAP
FFFF
FFFF
FFFF
FFFF
FFFF
FFFF
FFFF
FFFF
FFFF
FFFF
FFFF
FFFF
FFFF
FFFF
FFFF
FFFF
FFFF
FFFF
FFFF
FFFF
FFFF
FFFF
FFFF
FFFF
FFFF
FFFF
FFFF
ENDCHAR
STARTCHAR 258C
ENCODING 9612
SWIDTH 720 0
DWIDTH 16 0
BBX 8 27 0 -7
BITMAP
FF
FF
FF
FF
FF
FF
FF
FF
FF
FF
FF
FF
FF
FF
FF
FF
FF
FF
FF
FF
FF
FF
FF
FF
FF
FF
FF
ENDCHAR
STARTCHAR 2590
ENCODING 9616
SWIDTH 720 0
DWIDTH 16 0
BBX 8 27 8 -7
BITMAP
FF
FF
FF
FF
FF
FF
FF
FF
FF
FF
FF
FF
FF
FF
FF
FF
FF
FF
FF
FF
FF
FF
FF
FF
FF
FF
FF
ENDCHAR
STARTCHAR 2591
ENCODING 9617
SWIDTH 720 0
DWIDTH 16 0
BBX 15 25 1 -5
BITMAP
8610
0000
10C2
10C2
0000
8610
8610
0000
10C2
0000
0000
8610
0000
10C2
10C2
0000
8610
0000
0000
10C2
0000
8610
8610
0000
10C2
ENDCHAR
STARTCHAR 2592
ENCODING 9618
SWIDTH 720 0
DWIDTH 16 0
BBX 16 25 0 -5
BITMAP
4969
0000
B696
B696
0000
4969
4969
0000
B696
0000
0000
4969
0000
B696
B696
0000
4969
0000
0000
B696
0000
4969
4969
0000
B696
ENDCHAR
STARTCHAR 2593
ENCODING 9619
SWIDTH 720 0
DWIDTH 16 0
BBX 16 27 0 -7
BITMAP
696D
FFFF
9696
9696
FFFF
696D
696D
FFFF
9696
FFFF
FFFF
696D
FFFF
9696
9696
FFFF
696D
FFFF
FFFF
9696
FFFF
696D
696D
FFFF
9696
FFFF
FFFF
ENDCHAR
STARTCHAR 25A0
ENCODING 9632
SWIDTH 585 0
DWIDTH 13 0
BBX 10 10 2 0
BITMAP
FFC0
FFC0
FFC0
FFC0
FFC0
FFC0
FFC0
FFC0
FFC0
FFC0
ENDCHAR
STARTCHAR 25A1
ENCODING 9633
SWIDTH 585 0
DWIDTH 13 0
BBX 10 10 2 0
BITMAP
FFC0
8040
8040
8040
8040
8040
8040
8040
8040
FFC0
ENDCHAR
STARTCHAR 25AA
ENCODING 9642
SWIDTH 360 0
DWIDTH 8 0
BBX 5 5 1 5
BITMAP
F8
F8
F8
F8
F8
ENDCHAR
STARTCHAR 25AB
ENCODING 9643
SWIDTH 360 0
DWIDTH 8 0
BBX 5 5 1 5
BITMAP
F8
88
88
88
F8
ENDCHAR
STARTCHAR 25AC
ENCODING 9644
SWIDTH 990 0
DWIDTH 22 0
BBX 22 5 0 3
BITMAP
FFFFFC
FFFFFC
FFFFFC
FFFFFC
FFFFFC
ENDCHAR
STARTCHAR 25B2
ENCODING 9650
SWIDTH 990 0
DWIDTH 22 0
BBX 14 15 4 0
BITMAP
0200
0300
0300
0780
0780
0FC0
0FC0
1FE0
1FE0
3FF0
3FF0
7FF8
7FF8
FFFC
FFFC
ENDCHAR
STARTCHAR 25BA
ENCODING 9658
SWIDTH 990 0
DWIDTH 22 0
BBX 16 15 3 0
BITMAP
C000
F000
FC00
FF00
FFC0
FFF0
FFFC
FFFF
FFFC
FFF0
FFC0
FF00
FC00
F000
C000
ENDCHAR
STARTCHAR 25BC
ENCODING 9660
SWIDTH 990 0
DWIDTH 22 0
BBX 14 15 4 0
BITMAP
FFFC
FFFC
7FF8
7FF8
3FF0
3FF0
1FE0
1FE0
0FC0
0FC0
0780
0780
0300
0300
0200
ENDCHAR
STARTCHAR 25C4
ENCODING 9668
SWIDTH 990 0
DWIDTH 22 0
BBX 16 15 3 0
BITMAP
0003
000F
003F
00FF
03FF
0FFF
3FFF
FFFF
3FFF
0FFF
03FF
00FF
003F
000F
0003
ENDCHAR
STARTCHAR 25CA
ENCODING 9674
SWIDTH 495 0
DWIDTH 11 0
BBX 9 15 1 0
BITMAP
1800
1400
2600
2200
4100
C100
8080
8080
8080
4100
4300
2200
3400
1400
1800
ENDCHAR
STARTCHAR 25CB
ENCODING 9675
SWIDTH 585 0
DWIDTH 13 0
BBX 9 10 2 1
BITMAP
1E00
6100
8080
8080
8080
8080
8080
4080
2300
1C00
ENDCHAR
STARTCHAR 25CF
ENCODING 9679
SWIDTH 585 0
DWIDTH 13 0
BBX 9 10 2 1
BITMAP
1E00
7F00
FF80
FF80
FF80
FF80
FF80
7F80
3F00
0800
ENDCHAR
STARTCHAR 25D8
ENCODING 9688
SWIDTH 585 0
DWIDTH 13 0
BBX 11 11 1 0
BITMAP
FFE0
FFE0
FFE0
FFE0
F0E0
F0E0
F0E0
F1E0
FFE0
FFE0
FFE0
ENDCHAR
STARTCHAR 25D9
ENCODING 9689
SWIDTH 585 0
DWIDTH 13 0
BBX 13 13 0 0
BITMAP
FFF8
FFF8
F878
EFB8
DFD8
DFD8
DFF8
DFF8
DFD8
EFD8
F738
FDF8
FFF8
ENDCHAR
STARTCHAR 25E6
ENCODING 9702
SWIDTH 360 0
DWIDTH 8 0
BBX 6 5 1 5
BITMAP
78
88
84
84
78
ENDCHAR
STARTCHAR 263A
ENCODING 9786
SWIDTH 1035 0
DWIDTH 23 0
BBX 14 14 4 -1
BITMAP
0100
0EE0
3010
2008
400C
4864
8864
8004
4004
4804
444C
2388
1030
0FE0
ENDCHAR
STARTCHAR 263B
ENCODING 9787
SWIDTH 1035 0
DWIDTH 23 0
BBX 14 14 5 -1
BITMAP
0200
1FC0
3FF0
7FF0
FFF8
E7B8
E7BC
FFFC
FFFC
FFB8
7778
78F0
3FE0
1FC0
ENDCHAR
STARTCHAR 263C
ENCODING 9788
SWIDTH 900 0
DWIDTH 20 0
BBX 20 20 0 -2
BITMAP
002000
002000
002000
102040
08F880
070500
040200
080100
080100
080080
F800F0
080100
080100
040100
040200
070D00
08F080
102040
002000
002000
ENDCHAR
STARTCHAR 2640
ENCODING 9792
SWIDTH 765 0
DWIDTH 17 0
BBX 11 21 3 -5
BITMAP
3F00
40C0
8040
8020
8020
8020
8020
8020
8040
4080
3F00
0400
0400
0400
0400
FFE0
0400
0400
0400
0400
0400
ENDCHAR
STARTCHAR 2642
ENCODING 9794
SWIDTH 765 0
DWIDTH 17 0
BBX 14 20 1 -2
BITMAP
0038
00D8
0328
0024
0044
0044
0084
0080
0480
1B80
6040
4020
8020
8010
8010
8020
8020
4040
2040
1F80
ENDCHAR
STARTCHAR 2660
ENCODING 9824
SWIDTH 540 0
DWIDTH 12 0
BBX 10 12 1 1
BITMAP
0C00
0C00
1E00
7F00
FF80
FFC0
FFC0
FFC0
7B80
0800
0C00
3F00
ENDCHAR
STARTCHAR 2663
ENCODING 9827
SWIDTH 675 0
DWIDTH 15 0
BBX 13 13 1 0
BITMAP
0F00
1F80
1F80
1F80
7FF0
FFF8
FFF8
FFF8
FDF8
72F0
0600
0700
3FC0
ENDCHAR
STARTCHAR 2665
ENCODING 9829
SWIDTH 585 0
DWIDTH 13 0
BBX 11 13 1 0
BITMAP
F9E0
FBE0
FFE0
FFE0
FFE0
7FC0
3FC0
3F80
1F00
0E00
0E00
0400
0400
ENDCHAR
STARTCHAR 2666
ENCODING 9830
SWIDTH 495 0
DWIDTH 11 0
BBX 10 13 1 0
BITMAP
0800
1C00
1E00
3E00
7F00
FF80
FFC0
7F80
7F00
3E00
1C00
0C00
0800
ENDCHAR
STARTCHAR 266A
ENCODING 9834
SWIDTH 495 0
DWIDTH 11 0
BBX 11 15 0 0
BITMAP
0780
07C0
07C0
0460
0420
0420
0400
0400
0400
0400
3C00
7C00
FC00
FC00
7800
ENDCHAR
STARTCHAR 266B
ENCODING 9835
SWIDTH 765 0
DWIDTH 17 0
BBX 13 17 1 -1
BITMAP
0038
01F8
07F8
07C8
0408
0408
0408
0408
0408
0408
0478
04F8
35F8
FCF8
FCF0
FC00
F800
ENDCHAR
STARTCHAR E801
ENCODING 59393
SWIDTH 270 0
DWIDTH 6 0
BBX 5 15 1 0
BITMAP
80
80
00
60
78
38
18
10
10
10
20
20
20
40
40
ENDCHAR
STARTCHAR E802
ENCODING 59394
SWIDTH 450 0
DWIDTH 10 0
BBX 8 15 2 -4
BITMAP
C0
FF
FF
02
02
04
04
44
44
08
68
08
08
10
10
ENDCHAR
STARTCHAR E803
ENCODING 59395
SWIDTH 450 0
DWIDTH 10 0
BBX 8 15 2 -4
BITMAP
C0
FF
FF
02
02
04
04
F4
44
48
48
08
08
10
10
ENDCHAR
STARTCHAR E804
ENCODING 59396
SWIDTH 450 0
DWIDTH 10 0
BBX 10 16 0 1
BITMAP
3000
D000
D000
2000
3000
3F80
1FC0
0080
0080
0080
0100
0200
0400
0800
0800
0800
ENDCHAR
STARTCHAR E805
ENCODING 59397
SWIDTH 450 0
DWIDTH 10 0
BBX 10 16 0 1
BITMAP
3000
D000
D000
2000
3000
3F80
1FC0
0080
0080
0880
0900
0200
0400
0800
0800
0800
ENDCHAR
STARTCHAR F001
ENCODING 61441
SWIDTH 495 0
DWIDTH 11 0
BBX 15 20 -4 -5
BITMAP
003E
0046
00C0
0080
0180
07FC
010C
030C
0308
0308
0218
0618
0610
0434
0438
0C00
0800
0800
9000
E000
ENDCHAR
STARTCHAR F002
ENCODING 61442
SWIDTH 495 0
DWIDTH 11 0
BBX 16 20 -4 -5
BITMAP
003F
0043
00C2
0086
0186
07FC
0104
030C
030C
0308
0218
0618
0610
0634
0438
0C00
0800
0800
9000
E000
ENDCHAR
STARTCHAR F004
ENCODING 61444
SWIDTH 315 0
DWIDTH 7 0
BBX 3 4 1 -5
BITMAP
60
60
40
80
ENDCHAR
STARTCHAR F005
ENCODING 61445
SWIDTH 315 0
DWIDTH 7 0
BBX 3 3 1 -3
BITMAP
E0
60
C0
ENDCHAR
STARTCHAR F006
ENCODING 61446
SWIDTH 0 0
DWIDTH 0 0
BBX 2 2 -1 18
BITMAP
C0
80
ENDCHAR
STARTCHAR F007
ENCODING 61447
SWIDTH 0 0
DWIDTH 0 0
BBX 3 2 -3 18
BITMAP
60
80
ENDCHAR
STARTCHAR F008
ENCODING 61448
SWIDTH 0 0
DWIDTH 0 0
BBX 3 3 -2 11
BITMAP
60
C0
80
ENDCHAR
STARTCHAR F009
ENCODING 61449
SWIDTH 0 0
DWIDTH 0 0
BBX 3 4 -3 16
BITMAP
60
40
80
80
ENDCHAR
STARTCHAR F00F
ENCODING 61455
SWIDTH 0 0
DWIDTH 0 0
BBX 3 3 -6 11
BITMAP
E0
60
20
ENDCHAR
STARTCHAR F010
ENCODING 61456
SWIDTH 0 0
DWIDTH 0 0
BBX 2 2 -1 18
BITMAP
C0
40
ENDCHAR
STARTCHAR F011
ENCODING 61457
SWIDTH 0 0
DWIDTH 0 0
BBX 3 2 -3 18
BITMAP
E0
40
ENDCHAR
STARTCHAR F012
ENCODING 61458
SWIDTH 0 0
DWIDTH 0 0
BBX 3 4 -2 11
BITMAP
E0
40
80
80
ENDCHAR
STARTCHAR F013
ENCODING 61459
SWIDTH 0 0
DWIDTH 0 0
BBX 3 3 -4 16
BITMAP
60
A0
40
ENDCHAR
STARTCHAR F014
ENCODING 61460
SWIDTH 0 0
DWIDTH 0 0
BBX 3 3 -5 11
BITMAP
E0
A0
40
ENDCHAR
STARTCHAR F015
ENCODING 61461
SWIDTH 0 0
DWIDTH 0 0
BBX 6 2 -4 18
BITMAP
E4
38
ENDCHAR
STARTCHAR F016
ENCODING 61462
SWIDTH 0 0
DWIDTH 0 0
BBX 7 3 -6 17
BITMAP
62
F2
1C
ENDCHAR
STARTCHAR F017
ENCODING 61463
SWIDTH 0 0
DWIDTH 0 0
BBX 7 3 -8 17
BITMAP
60
FA
1C
ENDCHAR
STARTCHAR F018
ENCODING 61464
SWIDTH 0 0
DWIDTH 0 0
BBX 7 3 -9 17
BITMAP
20
7A
9E
ENDCHAR
STARTCHAR F019
ENCODING 61465
SWIDTH 0 0
DWIDTH 0 0
BBX 7 3 -7 12
BITMAP
62
FA
1C
ENDCHAR
STARTCHAR F01A
ENCODING 61466
SWIDTH 0 0
DWIDTH 0 0
BBX 7 3 -8 12
BITMAP
70
7A
8E
ENDCHAR
STARTCHAR F01B
ENCODING 61467
SWIDTH 0 0
DWIDTH 0 0
BBX 6 3 -8 12
BITMAP
60
F4
1C
ENDCHAR
STARTCHAR F01C
ENCODING 61468
SWIDTH 0 0
DWIDTH 0 0
BBX 7 3 -4 17
BITMAP
60
7A
9E
ENDCHAR
STARTCHAR F01D
ENCODING 61469
SWIDTH 0 0
DWIDTH 0 0
BBX 7 3 -5 12
BITMAP
60
FA
1C
ENDCHAR
STARTCHAR F01E
ENCODING 61470
SWIDTH 0 0
DWIDTH 0 0
BBX 2 2 -9 -3
BITMAP
40
C0
ENDCHAR
STARTCHAR F01F
ENCODING 61471
SWIDTH 0 0
DWIDTH 0 0
BBX 2 2 -11 -3
BITMAP
C0
C0
ENDCHAR
STARTCHAR F020
ENCODING 61472
SWIDTH 0 0
DWIDTH 0 0
BBX 2 2 -11 -3
BITMAP
C0
C0
ENDCHAR
STARTCHAR F021
ENCODING 61473
SWIDTH 0 0
DWIDTH 0 0
BBX 2 2 -10 -3
BITMAP
C0
C0
ENDCHAR
STARTCHAR F022
ENCODING 61474
SWIDTH 0 0
DWIDTH 0 0
BBX 2 2 -11 -3
BITMAP
40
C0
ENDCHAR
STARTCHAR F023
ENCODING 61475
SWIDTH 0 0
DWIDTH 0 0
BBX 3 2 -9 -3
BITMAP
40
E0
ENDCHAR
STARTCHAR F024
ENCODING 61476
SWIDTH 0 0
DWIDTH 0 0
BBX 2 2 -7 -3
BITMAP
80
C0
ENDCHAR
STARTCHAR F025
ENCODING 61477
SWIDTH 0 0
DWIDTH 0 0
BBX 3 2 -9 -3
BITMAP
40
E0
ENDCHAR
STARTCHAR F026
ENCODING 61478
SWIDTH 0 0
DWIDTH 0 0
BBX 2 2 -9 -3
BITMAP
C0
C0
ENDCHAR
STARTCHAR F027
ENCODING 61479
SWIDTH 0 0
DWIDTH 0 0
BBX 2 2 -8 -3
BITMAP
C0
C0
ENDCHAR
STARTCHAR F028
ENCODING 61480
SWIDTH 0 0
DWIDTH 0 0
BBX 2 2 -9 -3
BITMAP
C0
C0
ENDCHAR
STARTCHAR F029
ENCODING 61481
SWIDTH 0 0
DWIDTH 0 0
BBX 3 2 -7 -3
BITMAP
40
E0
ENDCHAR
STARTCHAR F02A
ENCODING 61482
SWIDTH 0 0
DWIDTH 0 0
BBX 2 2 -6 -3
BITMAP
40
C0
ENDCHAR
STARTCHAR F02B
ENCODING 61483
SWIDTH 0 0
DWIDTH 0 0
BBX 2 2 -9 -3
BITMAP
80
C0
ENDCHAR
STARTCHAR F02C
ENCODING 61484
SWIDTH 0 0
DWIDTH 0 0
BBX 2 2 -5 -3
BITMAP
40
C0
ENDCHAR
STARTCHAR F02D
ENCODING 61485
SWIDTH 0 0
DWIDTH 0 0
BBX 5 2 -6 18
BITMAP
E0
38
ENDCHAR
STARTCHAR F02E
ENCODING 61486
SWIDTH 0 0
DWIDTH 0 0
BBX 7 3 -7 17
BITMAP
20
7A
9E
ENDCHAR
STARTCHAR F02F
ENCODING 61487
SWIDTH 0 0
DWIDTH 0 0
BBX 6 2 -7 18
BITMAP
60
9C
ENDCHAR
STARTCHAR F030
ENCODING 61488
SWIDTH 0 0
DWIDTH 0 0
BBX 7 3 -8 17
BITMAP
60
FA
9E
ENDCHAR
STARTCHAR F031
ENCODING 61489
SWIDTH 270 0
DWIDTH 6 0
BBX 4 10 1 0
BITMAP
30
70
20
20
60
60
40
C0
D0
E0
ENDCHAR
STARTCHAR FB01
ENCODING 64257
SWIDTH 495 0
DWIDTH 11 0
BBX 15 20 -4 -5
BITMAP
003E
0046
00C0
0080
0180
07FC
010C
030C
0308
0308
0218
0618
0610
0434
0438
0C00
0800
0800
9000
E000
ENDCHAR
STARTCHAR FB02
ENCODING 64258
SWIDTH 495 0
DWIDTH 11 0
BBX 16 20 -4 -5
BITMAP
003F
0043
00C2
0086
0186
07FC
0104
030C
030C
0308
0218
0618
0610
0634
0438
0C00
0800
0800
9000
E000
ENDCHAR
STARTCHAR FB1D
ENCODING 64285
SWIDTH 225 0
DWIDTH 5 0
BBX 4 9 2 3
BITMAP
C0
E0
70
30
20
20
40
80
C0
ENDCHAR
STARTCHAR FB1E
ENCODING 64286
SWIDTH 0 0
DWIDTH 0 0
BBX 6 3 0 13
BITMAP
84
F8
70
ENDCHAR
STARTCHAR FB1F
ENCODING 64287
SWIDTH 495 0
DWIDTH 11 0
BBX 10 9 1 3
BITMAP
6100
71C0
39C0
1840
1040
1080
2100
FF80
FF80
ENDCHAR
STARTCHAR FB20
ENCODING 64288
SWIDTH 450 0
DWIDTH 10 0
BBX 10 12 0 0
BITMAP
3080
39C0
3CC0
1040
1080
1100
1900
0A00
1200
1600
7C00
F800
ENDCHAR
STARTCHAR FB2A
ENCODING 64298
SWIDTH 630 0
DWIDTH 14 0
BBX 12 15 2 0
BITMAP
0030
0030
0000
C420
E770
6730
4410
8420
8840
8880
9080
A100
A100
FE00
FE00
ENDCHAR
STARTCHAR FB2B
ENCODING 64299
SWIDTH 630 0
DWIDTH 14 0
BBX 12 15 2 0
BITMAP
4000
4000
0000
C420
E770
6730
4410
8420
8840
8880
9080
A100
A100
FE00
FE00
ENDCHAR
STARTCHAR FB2C
ENCODING 64300
SWIDTH 630 0
DWIDTH 14 0
BBX 12 15 2 0
BITMAP
0030
0030
0000
C420
E770
6730
4410
8420
8840
8B80
9080
A100
A100
FE00
FE00
ENDCHAR
STARTCHAR FB2D
ENCODING 64301
SWIDTH 630 0
DWIDTH 14 0
BBX 12 15 2 0
BITMAP
4000
4000
0000
C420
E770
6730
4410
8420
8840
8B80
9080
A100
A100
FE00
FE00
ENDCHAR
STARTCHAR FB2E
ENCODING 64302
SWIDTH 495 0
DWIDTH 11 0
BBX 11 15 0 -3
BITMAP
1080
31E0
38E0
1880
1D00
2F00
4700
4300
4380
6180
6180
C100
0000
0000
7800
ENDCHAR
STARTCHAR FB2F
ENCODING 64303
SWIDTH 495 0
DWIDTH 11 0
BBX 11 17 0 -5
BITMAP
1080
31E0
38E0
1880
1D00
2F00
4700
4300
4380
6180
6180
C100
0000
0000
7800
1000
3000
ENDCHAR
STARTCHAR FB30
ENCODING 64304
SWIDTH 495 0
DWIDTH 11 0
BBX 11 12 0 0
BITMAP
1080
31E0
38E0
1880
1D00
2F00
4700
4300
4380
6D80
6D80
C100
ENDCHAR
STARTCHAR FB31
ENCODING 64305
SWIDTH 450 0
DWIDTH 10 0
BBX 9 12 0 0
BITMAP
3000
3F80
3F80
0080
0080
0080
0900
0100
0100
0200
FF00
FF00
ENDCHAR
STARTCHAR FB32
ENCODING 64306
SWIDTH 315 0
DWIDTH 7 0
BBX 8 12 -1 0
BITMAP
0C
0E
0F
02
02
04
14
04
04
0C
76
E4
ENDCHAR
STARTCHAR FB33
ENCODING 64307
SWIDTH 405 0
DWIDTH 9 0
BBX 8 12 2 0
BITMAP
C0
FF
FF
04
08
08
68
18
10
10
10
20
ENDCHAR
STARTCHAR FB34
ENCODING 64308
SWIDTH 495 0
DWIDTH 11 0
BBX 11 12 0 0
BITMAP
1000
3FE0
1FE0
0040
0080
0080
2480
6080
4180
4100
C100
8100
ENDCHAR
STARTCHAR FB35
ENCODING 64309
SWIDTH 270 0
DWIDTH 6 0
BBX 5 12 1 0
BITMAP
60
78
38
18
10
10
D0
20
20
20
40
40
ENDCHAR
STARTCHAR FB36
ENCODING 64310
SWIDTH 270 0
DWIDTH 6 0
BBX 6 12 0 0
BITMAP
10
3C
1C
10
10
10
F0
20
20
20
20
40
ENDCHAR
STARTCHAR FB38
ENCODING 64312
SWIDTH 495 0
DWIDTH 11 0
BBX 9 12 1 0
BITMAP
6080
7380
7780
2480
4880
4080
4C80
8100
8100
8200
FE00
FC00
ENDCHAR
STARTCHAR FB39
ENCODING 64313
SWIDTH 225 0
DWIDTH 5 0
BBX 5 7 1 5
BITMAP
60
70
38
18
D0
90
20
ENDCHAR
STARTCHAR FB3A
ENCODING 64314
SWIDTH 450 0
DWIDTH 10 0
BBX 8 15 2 -4
BITMAP
C0
FF
FF
02
02
04
34
04
04
08
08
08
08
10
10
ENDCHAR
STARTCHAR FB3B
ENCODING 64315
SWIDTH 405 0
DWIDTH 9 0
BBX 9 12 0 0
BITMAP
3000
3F00
3F80
0180
0080
0100
1900
0100
0200
0600
FC00
F800
ENDCHAR
STARTCHAR FB3C
ENCODING 64316
SWIDTH 450 0
DWIDTH 10 0
BBX 8 16 2 1
BITMAP
C0
40
40
80
C0
FE
7F
02
02
22
24
08
10
20
20
20
ENDCHAR
STARTCHAR FB3E
ENCODING 64318
SWIDTH 450 0
DWIDTH 10 0
BBX 10 12 0 0
BITMAP
3000
3980
3BC0
0CC0
1040
1040
2640
4080
4080
8100
9F00
BE00
ENDCHAR
STARTCHAR FB40
ENCODING 64320
SWIDTH 270 0
DWIDTH 6 0
BBX 7 12 -1 0
BITMAP
08
1E
0E
06
04
04
34
08
08
08
78
F8
ENDCHAR
STARTCHAR FB41
ENCODING 64321
SWIDTH 450 0
DWIDTH 10 0
BBX 9 12 1 0
BITMAP
6000
7F00
7F80
2180
4080
8100
8900
8100
8100
C200
7E00
7C00
ENDCHAR
STARTCHAR FB43
ENCODING 64323
SWIDTH 450 0
DWIDTH 10 0
BBX 8 16 1 -4
BITMAP
20
7F
3F
41
41
C1
EA
02
02
02
04
04
04
0C
08
08
ENDCHAR
STARTCHAR FB44
ENCODING 64324
SWIDTH 450 0
DWIDTH 10 0
BBX 9 12 0 0
BITMAP
1000
3F80
1F80
2080
2080
7080
7680
0100
0100
0200
7E00
FC00
ENDCHAR
STARTCHAR FB46
ENCODING 64326
SWIDTH 450 0
DWIDTH 10 0
BBX 11 12 0 0
BITMAP
3180
39C0
18E0
0880
1100
0A00
6E00
0600
0600
0300
7F00
FE00
ENDCHAR
STARTCHAR FB47
ENCODING 64327
SWIDTH 450 0
DWIDTH 10 0
BBX 11 15 -1 -4
BITMAP
0800
1FE0
1FE0
0020
0020
1640
2640
2080
2300
4400
4C00
4800
4000
8000
8000
ENDCHAR
STARTCHAR FB48
ENCODING 64328
SWIDTH 450 0
DWIDTH 10 0
BBX 8 12 2 0
BITMAP
80
FE
FF
02
02
22
22
04
04
04
08
08
ENDCHAR
STARTCHAR FB49
ENCODING 64329
SWIDTH 630 0
DWIDTH 14 0
BBX 12 12 2 0
BITMAP
C420
E770
6730
4410
8420
8840
8B80
9080
A100
A100
FE00
FE00
ENDCHAR
STARTCHAR FB4A
ENCODING 64330
SWIDTH 495 0
DWIDTH 11 0
BBX 11 12 -1 0
BITMAP
0800
0FE0
0FE0
0420
0820
1020
1340
1040
1040
1040
7080
E080
ENDCHAR
STARTCHAR FB4B
ENCODING 64331
SWIDTH 270 0
DWIDTH 6 0
BBX 4 15 2 0
BITMAP
30
30
00
C0
F0
70
30
20
20
20
40
40
40
80
80
ENDCHAR
STARTCHAR FB4C
ENCODING 64332
SWIDTH 450 0
DWIDTH 10 0
BBX 9 14 0 0
BITMAP
0780
0000
3000
3F80
3F80
0080
0080
0080
0100
0100
0100
0200
FF00
FF00
ENDCHAR
STARTCHAR FB4D
ENCODING 64333
SWIDTH 405 0
DWIDTH 9 0
BBX 9 14 0 0
BITMAP
0780
0000
3000
3F00
3F80
0180
0080
0100
0100
0100
0200
0600
FC00
F800
ENDCHAR
STARTCHAR FB4E
ENCODING 64334
SWIDTH 450 0
DWIDTH 10 0
BBX 9 14 0 0
BITMAP
0780
0000
1000
3F80
1F80
2080
2080
7080
7080
0100
0100
0200
7E00
FC00
ENDCHAR
STARTCHAR FB4F
ENCODING 64335
SWIDTH 540 0
DWIDTH 12 0
BBX 11 16 1 1
BITMAP
6000
2000
2000
4000
6080
70E0
38E0
1C80
0D00
1F00
2700
4300
6180
6180
6080
E080
ENDCHAR
STARTCHAR FFFC
ENCODING 65532
SWIDTH 990 0
DWIDTH 22 0
BBX 22 16 0 0
BITMAP
F3CF1C
800004
800004
800004
0F3C20
19A620
90A224
B0BE24
B0A624
90A224
11A220
0F3CE0
800004
800004
800004
F3CF1C
ENDCHAR
ENDFONT
